<svg xmlns="http://www.w3.org/2000/svg" width="204.35pt" height="38.53pt" viewBox="0 0 204.35 38.53"><defs><clipPath id="a"><path d="M194 21h10.352v8H194Zm0 0"/></clipPath><clipPath id="b"><path d="M199 13h5.352v9H199Zm0 0"/></clipPath><clipPath id="c"><path d="M70 32h2v6.531h-2Zm0 0"/></clipPath><clipPath id="d"><path d="M79 33h4v5.531h-4Zm0 0"/></clipPath><clipPath id="e"><path d="M128 33h3v5.531h-3Zm0 0"/></clipPath><clipPath id="f"><path d="M202 33h2.352v5H202Zm0 0"/></clipPath><clipPath id="g"><path d="M29 23h23v15.531H29Zm0 0"/></clipPath><clipPath id="h"><path d="M0 8h26v30.531H0Zm0 0"/></clipPath></defs><g clip-path="url(#a)"><path d="M199.398 27.016c-1.398 0-2.445-.766-2.445-1.852s1.047-1.852 2.445-1.852c1.415 0 2.457.766 2.457 1.852s-1.042 1.852-2.457 1.852m0-5.047c-2.77 0-4.785 1.285-4.785 3.195s2.016 3.195 4.785 3.195c2.786 0 4.786-1.285 4.786-3.195s-2.032-3.195-4.786-3.195" style="stroke:none;fill-rule:nonzero;fill:#4c4949;fill-opacity:1"/></g><path d="M184.043 18.184c-1.59 0-2.777-.735-2.777-1.778s1.187-1.777 2.777-1.777c1.605 0 2.793.734 2.793 1.777s-1.188 1.778-2.793 1.778m0-4.903c-2.965 0-5.117 1.258-5.117 3.125 0 1.864 2.152 3.125 5.117 3.125 2.98 0 5.117-1.261 5.117-3.125 0-1.867-2.172-3.125-5.117-3.125M72.273 17.3h-2.007v1.41h2.007v9.384h2.176V14.098a.615.615 0 0 0-.613-.618h-1.563" style="stroke:none;fill-rule:nonzero;fill:#4c4949;fill-opacity:1"/><path d="M68.805 18.297q.1-.715.101-1.527V15.19h2.274v-1.41h-6.543v1.41h2.008v1.579q0 2.226-.598 3.843a6.47 6.47 0 0 1-1.89 2.73l.663.798q2.954-1.54 3.754-4.633c.262.734.45 1.476.555 2.226q.157 1.131.074 2.391h2.309q.015-1.694-.672-3.113-.69-1.42-2.035-2.715M75.695 13.414v14.781h2.227V14.031a.62.62 0 0 0-.617-.617M86.582 15.207v.402q0 .53-.168.977 3.737.73 5.148 3.672h-2.64q-.797-1.895-3.024-2.723-.744.977-2.238 1.692-1.498.713-3.722 1.164l-.415-.95c1.418-.472 2.532-1.035 3.348-1.675q1.22-.962 1.219-2.157v-.402h-3.785v-1.41h10.527v1.41Zm5.496 6.445v1.41h-5.316v5h-2.39v-5h-5.313v-1.41M103.309 23.844h-9.11v1.41h7.922v2.941h2.344V25c0-.363-.098-.645-.281-.852q-.282-.304-.875-.304M95.586 20.11h9.21v-1.364h-8.105v-1.262h7.836v-1.328h-7.836v-1.195h7.97v-1.363H94.347v5.113q.001 1.397 1.238 1.398M92.973 22.664h12.886v-1.477H92.973ZM111.582 26.816v-1.18h7.422v-3.902h-9.797v1.364h7.457v1.21h-7.441v2.493c0 .93.418 1.394 1.246 1.394h8.734v-1.379M111.898 19.012h-2.742v-1.809h2.742Zm2.34-2.692h2.422v1.414h-2.422Zm0 2.825h2.426v1.695h2.34V14.03a.615.615 0 0 0-.613-.617h-1.727v1.496h-2.426v-.531a.61.61 0 0 0-.613-.613h-1.727v2.109h-2.742V14.41a.614.614 0 0 0-.613-.613h-1.727v5.183q-.001 1.395 1.246 1.395h6.176M132.426 13.414h-1.727v14.781h2.34v-8.984h2.094V17.8h-2.094v-3.77a.615.615 0 0 0-.613-.617M125.965 18.016q.1-.598.101-1.246v-1.56h3.024v-1.413h-8.172v1.414h2.805v1.559q.002 2.073-.91 3.703-.915 1.63-2.579 2.87l.7.798c1.171-.594 2.16-1.297 2.96-2.098a7.3 7.3 0 0 0 1.743-2.766q.627 1.08.984 2.176t.457 2.34h2.406c-.156-1.207-.523-2.281-1.113-3.23q-.878-1.418-2.406-2.547M146.063 28.195h2.34V14.031a.615.615 0 0 0-.614-.617h-1.726M140.813 18.828q.052-.28.085-.59c.02-.203.032-.418.032-.636v-1.23h3.023V14.96h-3.023v-1.23a.61.61 0 0 0-.614-.614h-1.726v1.844h-2.809v1.41h2.809v1.23c0 2.477-1.153 4.446-3.453 5.895l.629.828q1.81-.746 3-1.808a6.2 6.2 0 0 0 1.718-2.477q1.325 1.843 1.625 3.922h2.407q-.528-3.24-3.703-5.133M157.688 26.285v-4.137h4.218v-1.375h-8.187v-5.582h8.12v-1.41h-10.491v6.973q0 1.394 1.242 1.394h2.707v4.137h-5.313v1.41h13.02v-1.41M173.395 24.16h2.34v-9.2c0-.366-.09-.651-.278-.855q-.28-.31-.875-.308h-9.59v1.414h8.403" style="stroke:none;fill-rule:nonzero;fill:#4c4949;fill-opacity:1"/><path d="M172.148 26.285v-5.797a.61.61 0 0 0-.613-.613h-1.644v6.41h-1.387v-5.797a.615.615 0 0 0-.617-.613h-1.66v6.41h-2.395v1.41h13.016v-1.41" style="stroke:none;fill-rule:nonzero;fill:#4c4949;fill-opacity:1"/><g clip-path="url(#b)"><path d="M199.59 17.27v1.445h2.422v2.953h2.343v-7.637a.62.62 0 0 0-.617-.617h-1.726v3.856" style="stroke:none;fill-rule:nonzero;fill:#4c4949;fill-opacity:1"/></g><path d="M196.195 18.68a5.43 5.43 0 0 1 1.364 2.789h2.406c-.375-1.692-1.485-2.973-3.32-3.836q.147-.515.148-1.13v-.464h2.941v-1.41h-2.941v-.899a.61.61 0 0 0-.613-.613h-1.743v1.512h-2.722v1.41h2.722v.465c0 1.762-1.128 3.16-3.39 4.203l.566.895q1.627-.463 2.797-1.196 1.17-.731 1.785-1.726M182.633 23.512h2.82v-1.61h-2.82Zm-5.016-3.09h12.852v1.48h-2.672v1.61h.129q.59 0 .87.304.277.309.278.852v3.527h-2.34v-3.273h-7.89v-1.41h1.445v-1.61h-2.672" style="stroke:none;fill-rule:nonzero;fill:#4c4949;fill-opacity:1"/><path d="M182.633 23.512h2.82v-1.61h-2.82Zm-5.016-3.09h12.852v1.48h-2.672v1.61h.129q.59 0 .87.304.277.309.278.852v3.527h-2.34v-3.273h-7.89v-1.41h1.445v-1.61h-2.672M64.637 35.73h.68v.153q0 .391.128.601c.086.137.227.207.41.207q.237.002.395-.156.159-.152.16-.703v-3.547h.68v3.63q0 .75-.34 1.042-.341.288-.898.29-.6.001-.91-.29-.305-.291-.305-.945M68.453 35.188h.934v-.356c0-.258-.043-.43-.121-.52q-.12-.136-.348-.136a.42.42 0 0 0-.34.144q-.124.148-.125.512Zm0 .48v.477c0 .261.043.433.129.507a.47.47 0 0 0 .32.114q.246-.002.364-.121.119-.128.12-.461v-.036h.637v.145q-.002.485-.296.719-.296.234-.825.234-.545 0-.816-.258c-.18-.175-.27-.484-.27-.918v-1.136c0-.473.098-.797.286-.973q.286-.27.835-.27 1.085.001 1.086 1.028v.949" style="stroke:none;fill-rule:nonzero;fill:#4c4949;fill-opacity:1"/><g clip-path="url(#c)"><path d="M70.645 32.21h.675v.645h-.675Zm.02 5.368v-3.832h.636v4.102q-.001.384-.172.535-.168.147-.465.148-.088 0-.176-.011l-.218-.036v-.437h.148q.186.001.215-.098a1 1 0 0 0 .031-.3" style="stroke:none;fill-rule:nonzero;fill:#4c4949;fill-opacity:1"/></g><path d="M71.984 33.746h.637v2.492q0 .528.434.528.55-.002.55-.743v-2.277h.633v3.45h-.633v-.313a.95.95 0 0 1-.761.363 1 1 0 0 1-.606-.195q-.253-.2-.254-.711v-.258M77.129 35.523v.29q-.001.474.191.68.189.198.535.198.369 0 .579-.195.215-.2.214-.57c0-.211-.05-.375-.16-.496q-.15-.182-.629-.422c-.62-.32-.992-.59-1.117-.801a1.43 1.43 0 0 1-.183-.734q0-.657.363-.946.369-.298 1.02-.297.646-.001.964.274.317.274.317.875v.367h-.68v-.21q0-.34-.121-.544-.118-.206-.488-.207-.37 0-.536.2a.72.72 0 0 0-.164.48q-.001.375.262.574.259.194.758.453c.465.227.758.45.883.66q.192.316.191.766 0 .737-.41 1.035-.406.293-1.05.293-.786-.001-1.102-.371-.315-.374-.313-.977v-.375" style="stroke:none;fill-rule:nonzero;fill:#4c4949;fill-opacity:1"/><g clip-path="url(#d)"><path d="M80.594 35.055v.976q.002.734.508.735a.41.41 0 0 0 .355-.168c.082-.118.121-.328.121-.641V34.82c0-.43-.137-.644-.422-.644h-.043c-.195 0-.332.07-.402.215q-.117.211-.117.664m0-.942.023-.027a1 1 0 0 1 .367-.309c.13-.054.262-.086.395-.086q.374 0 .605.258.235.252.235.856v1.21q0 .72-.258.977a.86.86 0 0 1-.629.254 1 1 0 0 1-.398-.078 1 1 0 0 1-.34-.285v1.562h-.633v-4.699h.633" style="stroke:none;fill-rule:nonzero;fill:#4c4949;fill-opacity:1"/></g><path d="M83.457 35.188h.934v-.356c0-.258-.043-.43-.121-.52q-.12-.136-.348-.136a.42.42 0 0 0-.34.144q-.124.148-.125.512Zm0 .48v.477c0 .261.043.433.129.507a.47.47 0 0 0 .32.114q.246-.002.364-.121.119-.128.12-.461v-.036h.637v.145q-.001.485-.297.719-.297.234-.824.234-.545 0-.816-.258c-.18-.175-.27-.484-.27-.918v-1.136c0-.473.098-.797.285-.973q.287-.27.836-.27 1.085.001 1.086 1.028v.949M87.148 36.098h.637q0 .039-.012.285a.94.94 0 0 1-.113.433c-.152.29-.457.43-.914.43q-.816-.001-1.012-.535-.087-.24-.086-.688v-1.175q.001-.67.278-.91c.183-.165.453-.243.804-.243q.464-.001.739.215.276.218.277.77v.164h-.637v-.153q.002-.286-.097-.402a.33.33 0 0 0-.266-.113h-.016q-.218 0-.332.117-.115.121-.113.43v1.25q0 .363.012.445.071.346.418.348.228-.002.328-.133.105-.135.105-.492M88.445 33.746h.637v3.45h-.637Zm-.02-1.535h.677v.644h-.676ZM91.383 35.559h-.098q-.428-.002-.656.168-.227.164-.227.539-.001.499.403.5a.53.53 0 0 0 .418-.188q.162-.188.16-.746Zm-1.547-.82q0-.575.316-.81c.211-.156.47-.238.774-.238q.59 0 .84.258.255.256.254.781v2.465h-.637v-.367a.86.86 0 0 1-.363.336 1.1 1.1 0 0 1-.426.082c-.266 0-.469-.078-.617-.238q-.213-.24-.215-.727 0-.73.36-.965.355-.239 1.222-.238h.039v-.371a.7.7 0 0 0-.094-.375q-.091-.157-.348-.156-.252.001-.351.136-.1.134-.121.426M92.707 37.195h.637V32.23h-.637ZM96.25 35.523v.29q0 .474.191.68.186.198.532.198.37 0 .582-.195c.14-.133.215-.324.215-.57q-.001-.316-.16-.496-.154-.182-.63-.422c-.62-.32-.992-.59-1.117-.801a1.44 1.44 0 0 1-.187-.734q-.002-.657.367-.946.369-.298 1.02-.297.645-.001.96.274.318.274.32.875v.367h-.679v-.21c0-.227-.043-.407-.121-.544q-.118-.206-.488-.207c-.25 0-.426.067-.54.2a.74.74 0 0 0-.16.48q-.001.375.262.574.259.194.758.453c.465.227.758.45.883.66q.187.316.187.766c0 .492-.132.836-.406 1.035q-.406.293-1.05.293-.788-.001-1.106-.371-.312-.374-.313-.977v-.375M99.656 35.188h.934v-.356c0-.258-.043-.43-.121-.52a.44.44 0 0 0-.348-.136.43.43 0 0 0-.344.144q-.121.148-.12.512Zm0 .48v.477c0 .261.043.433.125.507a.48.48 0 0 0 .324.114c.165 0 .282-.043.364-.121q.119-.128.12-.461v-.036h.634v.145q0 .485-.293.719-.299.234-.825.234c-.367 0-.636-.086-.82-.258-.176-.175-.265-.484-.265-.918v-1.136q-.001-.71.285-.973c.187-.18.468-.27.832-.27q1.088.001 1.086 1.028v.949M101.867 37.195h.637V32.23h-.637ZM103.086 33.746h.473v-.754q0-.404.183-.601.194-.2.563-.2c.152 0 .308.012.46.036v.453q-.1-.007-.183-.008a.4.4 0 0 0-.285.094q-.103.087-.102.308v.672h.524v.48h-.524v2.97h-.636v-2.97h-.473M105.262 35.688h.945v-.555h-.945ZM108.422 35.14v-.554h1.406v2.434a4 4 0 0 1-1.375.226c-.488 0-.848-.101-1.09-.305q-.351-.306-.351-1.035V33.7q0-.822.375-1.144.375-.324 1.066-.325t1.031.31q.344.309.344.913v.238h-.676v-.07q0-.462-.175-.648c-.118-.125-.278-.188-.489-.188q-.406 0-.601.223-.2.222-.2.707v2.082q0 .551.208.726.203.17.578.168.287 0 .68-.132V35.14M111.223 35.914v.113q0 .381.117.563.122.176.379.176.217 0 .347-.153c.094-.101.137-.308.137-.613v-1.047q.002-.473-.137-.625a.46.46 0 0 0-.351-.152.45.45 0 0 0-.363.164c-.086.11-.13.3-.13.578Zm-.637.016v-.934q0-.744.305-1.02c.207-.19.48-.28.824-.28q.756-.001.996.53c.086.208.133.473.133.805v.899q0 .462-.082.703-.21.614-1.032.613-.59 0-.87-.281-.275-.282-.274-.899M114.59 36.613l.543-2.867h.656l-.781 3.45h-.836l-.785-3.45h.656M116.914 35.188h.93v-.356q0-.386-.117-.52a.45.45 0 0 0-.348-.136.42.42 0 0 0-.344.144q-.122.148-.12.512Zm0 .48v.477c0 .261.04.433.125.507a.48.48 0 0 0 .324.114q.24-.002.364-.121.117-.128.117-.461v-.036h.636v.145q0 .485-.293.719-.297.234-.824.234-.55 0-.82-.258c-.176-.175-.266-.484-.266-.918v-1.136q0-.71.285-.973.281-.27.833-.27 1.084.001 1.085 1.028v.949M119.137 33.746h.633v.441a.8.8 0 0 1 .32-.359c.137-.078.289-.125.465-.133v.63q-.476.015-.63.25c-.1.155-.155.398-.155.726v1.894h-.633M121.113 37.195v-3.449h.637v.313q.254-.369.79-.368.374 0 .6.207c.157.141.231.38.231.723v2.574h-.637V34.86q-.001-.386-.113-.539-.11-.145-.344-.144c-.199 0-.34.066-.414.195-.074.133-.113.363-.113.7v2.124M124.023 33.746h.637v3.45h-.637Zm-.02-1.535h.677v.644h-.676ZM125.363 37.195v-3.449H126v.313q.254-.369.79-.368.374 0 .6.207c.157.141.231.38.231.723v2.574h-.637V34.86q-.001-.386-.113-.539-.11-.145-.344-.144-.298 0-.414.195c-.074.133-.113.363-.113.7v2.124" style="stroke:none;fill-rule:nonzero;fill:#4c4949;fill-opacity:1"/><g clip-path="url(#e)"><path d="M128.89 35.836v.223q0 .403.122.52.117.116.304.116.2 0 .352-.148c.102-.102.152-.336.152-.711v-.957c0-.469-.16-.703-.488-.703q-.217 0-.328.152c-.078.102-.113.27-.113.504Zm-.53 1.598h.546v.144c0 .149.035.262.106.348q.11.121.324.12.251.002.367-.108.117-.118.117-.426v-.696a.9.9 0 0 1-.324.282.86.86 0 0 1-.379.078q-.403 0-.637-.27-.227-.274-.226-1.047v-1.21q-.001-.489.238-.72a.84.84 0 0 1 .617-.238.95.95 0 0 1 .403.082q.18.082.308.258v-.285h.637v3.734q.001 1.05-1.105 1.051-.486-.001-.739-.242c-.172-.164-.254-.418-.254-.77" style="stroke:none;fill-rule:nonzero;fill:#4c4949;fill-opacity:1"/></g><path d="M133.586 32.84v1.652h.547q.38 0 .543-.176t.164-.675c0-.282-.059-.48-.176-.61q-.175-.192-.633-.191Zm-.68-.555h1.301q.718-.002 1.016.336.298.335.297.969-.001.754-.325 1.105-.315.352-.96.352h-.65v2.148h-.679M136.129 33.746h.637v.441a.76.76 0 0 1 .32-.359 1 1 0 0 1 .46-.133v.63q-.475.015-.628.25-.153.233-.152.726v1.894h-.637M138.7 35.914v.113q.002.381.12.563.119.176.38.176.216 0 .347-.153c.094-.101.137-.308.137-.613v-1.047q-.001-.473-.137-.625a.47.47 0 0 0-.356-.152.44.44 0 0 0-.359.164c-.09.11-.133.3-.133.578Zm-.634.016v-.934q0-.744.305-1.02c.207-.19.48-.28.82-.28q.762-.001.996.53c.09.208.133.473.133.805v.899c0 .308-.023.543-.078.703q-.21.614-1.031.613-.594 0-.871-.281-.275-.282-.274-.899M142.066 36.613l.547-2.867h.657l-.786 3.45h-.836l-.78-3.45h.655M143.805 33.746h.636v3.45h-.636Zm-.02-1.535h.676v.644h-.676ZM145.145 37.195v-3.449h.636v.313c.168-.246.434-.368.79-.368q.374 0 .6.207.23.21.231.723v2.574h-.636V34.86q-.001-.386-.114-.539-.11-.145-.343-.144-.302 0-.414.195c-.079.133-.114.363-.114.7v2.124M149.547 36.098h.637q0 .039-.012.285a1 1 0 0 1-.113.433c-.153.29-.457.43-.914.43q-.82-.001-1.012-.535-.087-.24-.086-.688v-1.175q-.002-.67.277-.91c.184-.165.45-.243.805-.243q.464-.001.738.215.277.218.278.77v.164h-.637v-.153q.001-.286-.098-.402a.33.33 0 0 0-.27-.113h-.011c-.149 0-.258.039-.336.117q-.112.121-.113.43v1.25q.002.363.015.445.072.346.418.348c.153 0 .258-.047.328-.133q.105-.135.106-.492M150.844 33.746h.636v3.45h-.636Zm-.024-1.535h.68v.644h-.68ZM153.781 35.559h-.097q-.427-.002-.66.168-.228.164-.227.539.001.499.406.5a.53.53 0 0 0 .418-.188q.16-.188.16-.746Zm-1.55-.82q0-.575.316-.81c.215-.156.473-.238.777-.238q.587 0 .84.258.256.256.254.781v2.465h-.637v-.367a.87.87 0 0 1-.367.336 1.1 1.1 0 0 1-.422.082q-.398.001-.617-.238-.216-.24-.215-.727.002-.73.356-.965.358-.239 1.226-.238h.04v-.371a.7.7 0 0 0-.095-.375q-.095-.157-.347-.156t-.352.136q-.098.134-.12.426M155.102 37.195h.636V32.23h-.636ZM158.813 35.5v.16q0 .667.21.848c.141.125.317.183.52.183q.3 0 .512-.187c.148-.121.218-.399.218-.824v-1.957q0-.562-.21-.75a.74.74 0 0 0-.52-.188.83.83 0 0 0-.512.172q-.218.17-.219.797Zm-.68.004v-1.879q.001-.803.406-1.098.414-.298 1.004-.297.643 0 1.027.329.382.321.383 1.043v2.09q-.001.99-.383 1.273-.384.28-1.007.281-.721 0-1.079-.297-.351-.3-.351-1.226M161.633 33.746h.469v-.754q0-.404.187-.601.189-.2.559-.2c.156 0 .308.012.464.036v.453c-.07-.004-.128-.008-.187-.008a.42.42 0 0 0-.285.094q-.101.087-.102.308v.672h.524v.48h-.524v2.97h-.636v-2.97h-.47M163.754 33.746h.473v-.754q0-.404.183-.601.194-.2.563-.2.23 0 .46.036v.453q-.1-.007-.183-.008a.4.4 0 0 0-.285.094q-.103.087-.102.308v.672h.524v.48h-.524v2.97h-.636v-2.97h-.473M165.977 33.746h.636v3.45h-.636Zm-.024-1.535h.68v.644h-.68ZM168.797 36.098h.637q0 .039-.012.285a1 1 0 0 1-.113.433c-.153.29-.457.43-.914.43q-.82-.001-1.012-.535-.087-.24-.086-.688v-1.175q-.002-.67.277-.91c.184-.165.45-.243.805-.243q.464-.001.738.215.277.218.278.77v.164h-.637v-.153q.001-.286-.098-.402a.33.33 0 0 0-.27-.113h-.011c-.149 0-.258.039-.336.117q-.112.121-.113.43v1.25q.002.363.015.445.072.346.418.348c.153 0 .258-.047.328-.133q.105-.135.106-.492M170.68 35.188h.933v-.356c0-.258-.043-.43-.12-.52a.44.44 0 0 0-.348-.136.42.42 0 0 0-.34.144q-.124.148-.125.512Zm0 .48v.477c0 .261.043.433.129.507a.47.47 0 0 0 .32.114c.164 0 .281-.043.363-.121q.119-.128.121-.461v-.036h.633v.145q0 .485-.293.719c-.195.156-.473.234-.824.234q-.546 0-.816-.258c-.18-.175-.27-.484-.27-.918v-1.136c0-.473.098-.797.285-.973q.288-.27.832-.27c.727 0 1.086.344 1.086 1.028v.949M175.078 35.914v.113q0 .381.121.563.116.176.38.176.211 0 .347-.153c.09-.101.137-.308.137-.613v-1.047q0-.473-.141-.625a.46.46 0 0 0-.352-.152.45.45 0 0 0-.363.164c-.086.11-.129.3-.129.578Zm-.637.016v-.934q0-.744.305-1.02c.207-.19.48-.28.824-.28q.757-.001.993.53c.09.208.136.473.136.805v.899q0 .462-.082.703-.206.614-1.027.613-.6 0-.875-.281t-.274-.899M177.297 33.746h.469v-.754q0-.404.187-.601.189-.2.559-.2c.156 0 .308.012.465.036v.453q-.103-.007-.188-.008a.42.42 0 0 0-.285.094q-.1.087-.102.308v.672h.524v.48h-.524v2.97h-.636v-2.97h-.47M181.23 37.195v-4.91h2.247v.555h-1.57v1.574h1.472v.555h-1.473v1.672h1.61v.554M184.777 35.063v.984q-.001.46.125.594a.47.47 0 0 0 .336.125.45.45 0 0 0 .383-.18q.14-.18.14-.742v-.985q0-.684-.48-.683-.264 0-.386.183-.118.188-.118.703m.985-1.054V32.23h.636v4.965h-.636v-.312c-.133.14-.254.238-.371.289a.9.9 0 0 1-.383.074c-.278 0-.488-.094-.64-.289q-.228-.287-.227-.879v-1.18c0-.804.3-1.207.91-1.207q.2 0 .363.07.17.06.348.247M187.082 33.746h.637v2.492q-.001.528.437.528.546-.002.547-.743v-2.277h.637v3.45h-.637v-.313a.95.95 0 0 1-.758.363.98.98 0 0 1-.605-.195q-.258-.2-.258-.711v-.258M191.492 36.098h.637c0 .027 0 .12-.008.285a1 1 0 0 1-.113.433c-.156.29-.461.43-.914.43q-.82-.001-1.012-.535-.09-.24-.09-.688v-1.175q.001-.67.278-.91c.187-.165.453-.243.804-.243q.47-.001.738.215.282.218.282.77v.164h-.64v-.153q0-.286-.099-.402a.33.33 0 0 0-.265-.113h-.016q-.215 0-.332.117-.112.121-.113.43v1.25q-.001.363.016.445.067.346.417.348.223-.002.329-.133c.07-.09.101-.254.101-.492M194.402 35.559h-.097q-.433-.002-.66.168-.228.164-.227.539 0 .499.402.5a.52.52 0 0 0 .418-.188q.164-.188.164-.746Zm-1.55-.82q0-.575.316-.81c.215-.156.473-.238.777-.238q.583 0 .84.258.251.256.25.781v2.465h-.633v-.367a.9.9 0 0 1-.367.336 1.1 1.1 0 0 1-.426.082q-.397.001-.613-.238-.215-.24-.215-.727-.001-.73.356-.965.358-.239 1.226-.238h.04v-.371a.7.7 0 0 0-.098-.375q-.09-.157-.348-.156-.252.001-.352.136-.099.134-.117.426M195.594 34.227v-.48h.457v-.606l.637-.286v.891h.523v.48h-.524v2.18q-.002.194.079.27.075.082.27.09l.167.007v.43a2.6 2.6 0 0 1-.46.043q-.354 0-.524-.14t-.168-.54v-2.34M197.836 33.746h.637v3.45h-.637Zm-.024-1.535h.68v.644h-.68ZM199.77 35.914v.113q0 .381.12.563.117.176.38.176.211 0 .347-.153c.09-.101.137-.308.137-.613v-1.047q0-.473-.14-.625a.46.46 0 0 0-.352-.152.45.45 0 0 0-.364.164c-.085.11-.128.3-.128.578Zm-.637.016v-.934q0-.744.304-1.02c.208-.19.485-.28.825-.28q.756-.001.996.53c.086.208.133.473.133.805v.899q0 .462-.082.703-.205.614-1.032.613-.59 0-.87-.281-.275-.282-.274-.899" style="stroke:none;fill-rule:nonzero;fill:#4c4949;fill-opacity:1"/><g clip-path="url(#f)"><path d="M202.098 37.195v-3.449h.632v.313q.256-.369.793-.368.375 0 .602.207.229.21.23.723v2.574h-.636V34.86q-.001-.386-.114-.539-.115-.145-.343-.144-.3 0-.418.195c-.074.133-.114.363-.114.7v2.124" style="stroke:none;fill-rule:nonzero;fill:#4c4949;fill-opacity:1"/></g><g clip-path="url(#g)"><path d="M42.418 32.352a7.046 7.046 0 0 1-7.047-7.047c0-.301.024-.598.063-.89l-5.903-.75a13 13 0 0 0-.105 1.64c0 7.175 5.816 12.992 12.992 12.992 3.71 0 7.055-1.559 9.422-4.05l-2.371-2.25a3.2 3.2 0 0 0-3.723-.481 7 7 0 0 1-3.328.836" style="stroke:none;fill-rule:nonzero;fill:#2c4198;fill-opacity:1"/></g><path d="M35.723 23.086a7 7 0 0 1 3.53-4.078 6.99 6.99 0 0 1 5.376-.387 7.01 7.01 0 0 1 4.086 3.547 32.3 32.3 0 0 0 5.484-2.3 7 7 0 0 0-.183-.38 12.9 12.9 0 0 0-7.512-6.504 12.9 12.9 0 0 0-9.914.711 12.9 12.9 0 0 0-6.504 7.516q-.183.561-.32 1.129c1.906.566 3.855.95 5.836 1.152q.058-.206.12-.406" style="stroke:none;fill-rule:nonzero;fill:#2c4198;fill-opacity:1"/><path d="M25.055 20.574q.494.195.976.406a33 33 0 0 0 3.735 1.36c1.906.566 3.855.95 5.836 1.152q2.333.234 4.714.14c2.895-.124 5.7-.612 8.403-1.46a32.7 32.7 0 0 0 5.48-2.305q.219.482.403.969c1.007 2.73-.446 5.754-3.196 6.7a39 39 0 0 1-2.633.796c-2.66.7-5.402 1.11-8.207 1.227a39 39 0 0 1-3.793-.024 37.8 37.8 0 0 1-10.972-2.258l-.957-.382" style="stroke:none;fill-rule:nonzero;fill:#00a672;fill-opacity:1"/><g clip-path="url(#h)"><path d="M25.95 8.86h-2.973a2.97 2.97 0 0 0-2.97 2.968v13.309s.005 0 0 0a7 7 0 0 1-1.253 4.183 7 7 0 0 1-4.535 2.914 7 7 0 0 1-5.27-1.132 7.03 7.03 0 0 1-3.031-5.993v-.144c.039-1.516.5-2.98 1.332-4.238a7.5 7.5 0 0 1 2.355-2.297q-2.114.204-4.16.68c-3.383.78-5.738 3.921-5.418 7.378q.047.456.118.91.022.113.039.23a12.92 12.92 0 0 0 5.386 8.356 12.89 12.89 0 0 0 9.711 2.094 12.9 12.9 0 0 0 8.356-5.379 12.9 12.9 0 0 0 2.164-5.422c.097-.648.148-1.308.144-1.968h.004" style="stroke:none;fill-rule:nonzero;fill:#2c4198;fill-opacity:1"/></g><path d="M22.984.004a3.833 3.833 0 0 0-3.828 3.832 3.83 3.83 0 0 0 3.828 3.828c2.114 0 3.832-1.934 3.832-4.043 0-2.113-1.718-3.617-3.832-3.617" style="stroke:none;fill-rule:nonzero;fill:#f08300;fill-opacity:1"/><path d="M13.332 18.227q-.104.004-.207.015h-.02a7.05 7.05 0 0 0-6.312 6.653 27.5 27.5 0 0 1 4.988-.676 27 27 0 0 1 8.223.914l.004.004v-6.114c-2.79-.59-4.98-.898-6.676-.796" style="stroke:none;fill-rule:nonzero;fill:#00a672;fill-opacity:1"/></svg>