<svg xmlns="http://www.w3.org/2000/svg" width="1004.104" height="174.828" viewBox="0 0 265.669 46.257"><path fill="#0c0c0c" d="M59.728 37.844c0-.947-.39-1.454-1.425-1.454-.323 0-1.473.055-1.473 1.727v2.713c0 1.756.51 2.198 1.473 2.198.738 0 1.225-.199 1.435-.354v-2.4h-1.47v-.886h2.5v3.896c-.664.353-1.43.602-2.465.602-1.69 0-2.517-.879-2.517-3.102v-2.629c0-1.598.827-2.622 2.517-2.622 1.745 0 2.557.63 2.496 2.31zm6.576-2.147h1.034l-2.194 4.963v3.056h-1.023V40.66l-2.148-4.963h1.145l1.563 3.875zm2.15 8.019v-8.02h4.123v.89h-3.106v2.578h2.884v.885h-2.884v2.78h3.174v.887zm5.62-2.932v-2.629c0-1.598.824-2.622 2.526-2.622 1.701 0 2.526 1.024 2.526 2.622v2.63c0 2.222-.825 3.101-2.526 3.101-1.702 0-2.526-.879-2.526-3.102m4 .046v-2.713c0-1.672-1.144-1.727-1.474-1.727-.324 0-1.48.055-1.48 1.727v2.713c0 1.756.51 2.198 1.48 2.198.961 0 1.474-.442 1.474-2.198zm8.496-5.133v8.019h-1.411L82 36.762h-.03v6.954h-.9v-8.02h1.44l3.123 6.867h.019v-6.866zm5.81 2.147c0-.947-.395-1.454-1.434-1.454-.315 0-1.476.055-1.476 1.727v2.713c0 1.756.514 2.198 1.476 2.198.73 0 1.227-.199 1.439-.354v-2.4h-1.474v-.886h2.494v3.896c-.66.353-1.42.602-2.459.602-1.699 0-2.519-.879-2.519-3.102v-2.629c0-1.598.82-2.622 2.52-2.622 1.738 0 2.561.63 2.494 2.31zm3.836 3.486v.234c0 1.088.685 1.43 1.35 1.43.812 0 1.42-.342 1.42-1.295 0-1.78-3.593-1.582-3.593-3.988 0-1.427 1.012-2.178 2.36-2.178 1.463 0 2.28.71 2.218 2.344H98.9c.012-.88-.267-1.458-1.23-1.458-.611 0-1.228.311-1.228 1.177 0 1.77 3.592 1.511 3.592 4.057 0 1.686-1.162 2.233-2.486 2.233-2.363.021-2.363-1.788-2.35-2.556zm7.314-5.633h1.299l2.601 8.019h-1.143l-.578-1.908h-3.1l-.594 1.908h-1.04l2.556-8.02m.616.945h-.022l-1.25 4.277h2.557zm10.018-.944v8.019h-1.402l-3.158-6.954h-.032v6.954h-.913v-8.02h1.447l3.124 6.867h.019v-6.866zm5.805 2.147c0-.947-.39-1.454-1.419-1.454-.32 0-1.478.055-1.478 1.727v2.713c0 1.756.503 2.198 1.478 2.198.73 0 1.227-.199 1.43-.354v-2.4h-1.473v-.886h2.503v3.896c-.661.353-1.43.602-2.46.602-1.7 0-2.522-.879-2.522-3.102v-2.629c0-1.598.822-2.622 2.522-2.622 1.737 0 2.544.63 2.49 2.31zm8.606-2.147v8.019h-1.394l-3.161-6.954h-.027v6.954h-.905v-8.02h1.439l3.107 6.867h.03v-6.866zm3.776 0h1.307l2.606 8.019h-1.144l-.575-1.908h-3.103l-.596 1.908h-1.039l2.544-8.02m.62.945h-.016l-1.261 4.277h2.57zm5.435 7.075h-.955v-8.02h1.653l2.025 6.737h.022l2.039-6.736h1.695v8.019h-1.02v-7.13h-.02l-2.253 7.13h-.973l-2.186-7.13h-.027zm8.416-8.019h2.47c1.029 0 1.755.369 2.152 1.225.317.674.354 2.274.354 2.527 0 1.716-.156 2.698-.486 3.237-.43.686-1.238 1.03-2.648 1.03h-1.842v-8.02m1.03 7.133h.961c1.422 0 1.943-.538 1.943-2.403v-1.62c0-1.621-.499-2.22-1.558-2.22h-1.345zm5.812-2.045v-2.629c0-1.598.828-2.622 2.529-2.622 1.696 0 2.513 1.024 2.513 2.622v2.63c0 2.222-.817 3.101-2.513 3.101-1.7 0-2.529-.879-2.529-3.102m4.002.046v-2.713c0-1.672-1.156-1.727-1.473-1.727-.331 0-1.486.055-1.486 1.727v2.713c0 1.756.516 2.198 1.486 2.198.962 0 1.473-.442 1.473-2.198zm5.476-.046v-2.629c0-1.598.82-2.622 2.52-2.622 1.707 0 2.517 1.024 2.517 2.622v2.63c0 2.222-.81 3.101-2.516 3.101-1.7 0-2.52-.879-2.52-3.102m4 .046v-2.713c0-1.672-1.162-1.727-1.48-1.727-.327 0-1.482.055-1.482 1.727v2.713c0 1.756.511 2.198 1.482 2.198.974 0 1.48-.442 1.48-2.198zm2.852 2.886v-8.02h3.976v.89h-2.948v2.578h2.79v.885h-2.79v3.667zm5.045 0v-8.02h3.97v.89h-2.947v2.578h2.789v.885h-2.79v3.667zm6.265 0h-1.017v-8.02h1.017zm5.588-5.803c.01-.46-.033-.917-.24-1.17-.216-.255-.688-.345-.896-.345-.846 0-1.175.511-1.21.622-.038.09-.23.289-.23 1.666v2.144c0 1.964.638 2.198 1.42 2.198.32 0 1.26-.11 1.271-1.676h1.05c.051 2.534-1.737 2.534-2.26 2.534-.999 0-2.532-.069-2.532-3.18v-2.264c0-2.266.997-2.91 2.588-2.91 1.579 0 2.181.82 2.089 2.38zm2.745 5.803v-8.02h4.135v.89h-3.109v2.578h2.886v.885h-2.886v2.78h3.184v.887zm8.209-2.932v-2.629c0-1.598.822-2.622 2.528-2.622 1.687 0 2.511 1.024 2.511 2.622v2.63c0 2.222-.824 3.101-2.51 3.101-1.707 0-2.53-.879-2.53-3.102m4.001.046v-2.713c0-1.672-1.16-1.727-1.472-1.727-.32 0-1.484.055-1.484 1.727v2.713c0 1.756.514 2.198 1.484 2.198.964 0 1.472-.442 1.472-2.198zm2.852 2.886v-8.02h3.978v.89h-2.958v2.578h2.8v.885h-2.8v3.667zm7.703 0v-8.02h4.125v.89h-3.108v2.578h2.89v.885h-2.89v2.78h3.176v.887zm5.688-8.019h2.45c1.028 0 1.759.369 2.162 1.225.327.674.357 2.274.357 2.527 0 1.716-.157 2.698-.488 3.237-.44.686-1.243 1.03-2.645 1.03h-1.836v-8.02m1.01 7.133h.97c1.424 0 1.94-.538 1.94-2.403v-1.62c0-1.621-.494-2.22-1.568-2.22h-1.342zm5.825-7.132h1.02v5.133c0 1.756.537 2.198 1.496 2.198.972 0 1.51-.442 1.51-2.198v-5.133h1.015v5.087c0 2.223-.82 3.102-2.525 3.102-1.696 0-2.516-.879-2.516-3.102zm10.464 2.216c.01-.46-.03-.917-.24-1.17-.21-.255-.682-.345-.896-.345-.845 0-1.174.511-1.21.622-.03.09-.227.289-.227 1.666v2.144c0 1.964.635 2.198 1.426 2.198.314 0 1.251-.11 1.27-1.676h1.05c.045 2.534-1.745 2.534-2.258 2.534-1 0-2.53-.069-2.53-3.18v-2.264c0-2.266.99-2.91 2.566-2.91 1.592 0 2.205.82 2.103 2.38zm4.558-2.216h1.305l2.613 8.019h-1.148l-.582-1.908h-3.1l-.594 1.908h-1.032l2.538-8.02m.63.945h-.026l-1.249 4.277h2.563zm8.139-.944v.89h-2.113v7.129h-1.03v-7.13h-2.095v-.89zm2.322 8.019h-1.027v-8.02h1.027zm2.001-2.932v-2.629c0-1.598.83-2.622 2.532-2.622 1.693 0 2.52 1.024 2.52 2.622v2.63c0 2.222-.827 3.101-2.52 3.101-1.703 0-2.533-.879-2.533-3.102m4.008.046v-2.713c0-1.672-1.155-1.727-1.475-1.727-.322 0-1.481.055-1.481 1.727v2.713c0 1.756.51 2.198 1.481 2.198.966 0 1.475-.442 1.475-2.198zm8.486-5.133v8.019h-1.406l-3.156-6.954h-.028v6.954h-.906v-8.02h1.439l3.12 6.867h.025v-6.866zm.137-12.027V7.06h-4.172v4.774h-3.544v2.009h3.544v4.254c-1.451-.73-3.203-1.198-5.109-1.297v-.026s-5.258-2.713-6.676-6.753v-.795h5.828V7.221h-5.828V5.587h-3.987V7.22h-6.058v2.006h6.058v.528c-1.288 4.19-6.774 7.02-6.774 7.02l.084 2.26c4.06-.704 6.94-3.347 8.63-5.453 1.017 1.248 2.447 2.62 4.28 3.677-3.74.994-6.396 3.487-6.396 6.41 0 3.816 4.502 6.904 10.062 6.904 4.923 0 9.025-2.432 9.884-5.644l.173.095v-1.355m-10.057 4.903c-3.082 0-5.58-2.187-5.58-4.903 0-2.705 2.498-4.89 5.58-4.89.153 0 .321.008.483.013.068.01.133.038.21.053v-.03c2.744.304 4.88 2.363 4.88 4.854 0 2.716-2.494 4.903-5.573 4.903zM71.556 7.993h-.054l.14-1.298H55.77v2.432h11.164c-.343 2.302-2.273 7.69-11.343 7.895l-.081 2.337s15.098.52 16.047-11.366m11.112 13.934V6.872h-9.115v2.005H78.5v3.098h-4.947v2.013H78.5v3.437c-1.476-.69-3.236-1.1-5.117-1.1-5.223 0-8.867 2.966-8.867 6.772 0 3.812 3.644 7.024 8.867 7.024 5.226 0 9.444-3.087 9.444-6.894 0-.448-.065-.88-.159-1.3m-9.285 6.368c-3.033 0-5.203-2.256-5.203-5.06 0-2.8 2.17-5.086 5.203-5.086 3.024 0 5.475 2.27 5.475 5.078 0 2.801-2.451 5.068-5.475 5.068zm42.062-19.418V6.872h-7.801v11.033c-1.516-.753-3.34-1.218-5.332-1.305-.982-.502-5.214-2.855-6.461-6.426V6.357H91.86v3.55c-1.293 4.196-6.774 7.03-6.774 7.03l.09 2.258c4.064-.709 6.933-3.346 8.622-5.455.946 1.154 2.133 2.495 3.738 3.483-3.45 1.098-5.846 3.483-5.846 6.257 0 3.812 4.494 6.896 10.052 6.896 5.47 0 9.902-2.978 10.051-6.696l.018.007V8.877h3.634m-13.703 19.508c-3.077 0-5.569-2.195-5.569-4.905 0-2.633 2.372-4.773 5.322-4.886.309.034.622.062.944.062v-.028c2.75.303 4.876 2.357 4.876 4.852 0 2.71-2.486 4.905-5.573 4.905zm37.051-21.513v8.584H122.04V6.872h-3.731v10.585h20.484v2.77h-18.215v8.863h22.371V8.877h3.645V6.872h-7.8m-.01 20.21h-14.05v-4.846h14.05zM179.981 7.22v2.007h18.744v17.765h-3.553V16.24H191v10.752h-3.64V16.24h-4.164v10.752h-4.255v2h23.946V7.22zm-6.935 2.007V7.221h-22.894v12.488h3.286v.013h6.514v7.272h-9.8v2.01h22.894v-2.01h-8.934v-7.272h8.934v-2.006H154.31V9.227zm62.027 10.319v-1.995h-27.589v1.995h6.722v2.42h-4.819v2.013h19.442v5.012h4.164v-7.025h-5.289v-2.42h7.369m-11.544 2.42h-5.155v-2.42h5.155v2.42m-2.29-6.025c6.505 0 11.797-2.456 11.797-5.478 0-3.012-5.292-5.455-11.798-5.455-6.525 0-11.81 2.443-11.81 5.455 0 3.022 5.285 5.478 11.81 5.478m0-8.85c3.486 0 6.32 1.51 6.32 3.372 0 1.886-2.834 3.395-6.32 3.395-3.498 0-6.329-1.51-6.329-3.395 0-1.861 2.83-3.372 6.33-3.372zm0 0"/><path fill="#1e599e" d="M28.425 44.074C13.459 49.03 4.458 40.6 2.859 38.42c-7.185-9.68.436-18.442 8.914-21.912 0 0-8.694 4.56-6.738 11.721 1.95 7.165 10.531 9.877 18.565 7.71l8.256-2.93 7.71 7.316zm0 0"/><path fill="#19a3c7" d="m10.648 22.434 7.707 7.322 8.256-2.931c8.029-2.176 16.613.537 18.558 7.711 1.96 7.169-6.727 11.72-6.727 11.72 8.466-3.472 15.069-12.392 8.687-21.825-1.521-2.236-9.375-11.187-25.04-5.938zm0 0"/><path fill="#2b9c2e" d="M32.286 7.17c0 3.95-3.215 7.164-7.166 7.164-3.956 0-7.171-3.213-7.171-7.164A7.175 7.175 0 0 1 25.12 0c3.951 0 7.166 3.212 7.166 7.17zm0 0"/></svg>