<svg xmlns="http://www.w3.org/2000/svg" width="439.938" height="86.657" viewBox="0 0 116.4 22.928"><path fill="#2350a1" d="M22.928 11.464c0 6.332-5.133 11.464-11.464 11.464C5.134 22.928 0 17.796 0 11.464 0 5.133 5.133 0 11.464 0s11.464 5.133 11.464 11.464"/><path fill="#fff" d="m7.667 3.128.037 3.68s1.137-2.134 5.283-2.65V.81s-3.486.294-5.32 2.318m-.005 7.434.037 3.68s1.136-2.134 5.281-2.65V8.245s-3.485.294-5.318 2.318m.005 7.397.037 3.68s1.137-2.135 5.283-2.65v-3.35s-3.486.295-5.32 2.319"/><path fill="#12af98" d="m7.704 6.845-.037 3.68S6.53 8.392 2.384 7.877v-3.35s3.485.295 5.32 2.32m-.037 7.396-.037 3.68s-1.137-2.135-5.282-2.65v-3.349s3.485.294 5.32 2.319"/><path fill="#595c5d" d="M35.91 17.807V8.621h-1.025v9.186h-1.692V4.517h1.692v2.778h1.026V4.518h1.691v13.29zm-8.485-6.704V4.518h5.044v1.326h-3.353v3.933h4.553v1.326zm19.964 6.704V8.571h-1.966V7.3h1.966V4.518h1.619v13.29zm-6.222 0v-5.174h1.62v3.905h6.151v1.27z"/><path fill="#595c5d" d="m44.641 11.236-1.91-3.9-1.91 3.873h-1.545l2.696-5.472h-2.304v-1.22h6.125v1.22h-2.304l2.696 5.5zm15.287-2.675v6.632l-1.566-1.147V4.48h1.566v2.748h1.259v1.334zm-2.093 5.144a1.767 1.767 0 0 0-1.334-.568c-.53 0-.98.19-1.348.568a1.892 1.892 0 0 0-.555 1.375c0 .558.184 1.03.555 1.419.368.388.817.582 1.348.582.53 0 .975-.194 1.334-.582.36-.389.54-.861.54-1.42 0-.537-.18-.995-.54-1.374m1.09 3.736a3.4 3.4 0 0 1-2.439.974c-.947 0-1.76-.324-2.438-.974-.677-.65-1.017-1.436-1.017-2.361 0-.906.34-1.678 1.017-2.317.678-.64 1.491-.96 2.438-.96.948 0 1.76.32 2.439.96.678.639 1.016 1.411 1.016 2.317 0 .925-.338 1.712-1.016 2.361M55.638 10V5.813h-4.537V4.48h6.104V10zm-4.662 1.063V9.73h1.445V7.207h1.566v2.522h4.388v1.333zm19.244 1.569V9.996h-2.726l.836-1.3h1.862V6.79h-1.89l-1.253-1.3h3.143V4.479h1.583v8.153zm0 5.28v-4.097h-6.588v-1.3h8.172v5.397z"/><path fill="#595c5d" d="M66.951 6.49c-.36-.406-.796-.61-1.303-.61-.508 0-.948.204-1.319.61-.37.406-.557.901-.557 1.485 0 .583.187 1.078.557 1.484.371.406.811.609 1.32.609.506 0 .941-.203 1.302-.61.363-.405.544-.9.544-1.483 0-.584-.18-1.079-.544-1.485m1.07 3.931c-.671.669-1.467 1.003-2.387 1.003-.939 0-1.74-.334-2.401-1.003-.663-.668-.994-1.484-.994-2.446 0-.964.33-1.78.994-2.448a3.257 3.257 0 0 1 2.401-1.002c.92 0 1.716.334 2.386 1.002.673.669 1.009 1.484 1.009 2.448 0 .962-.336 1.778-1.009 2.446m13-5.941h1.566v13.432H81.02zm-2.397 6.823-2.088-4.83-2.032 4.83h-1.599l2.818-6.685h1.655l2.817 6.685zm13.426 1.707V6.063h-6.526v-1.27h8.092v8.217zm-7.543.962v-1.269h1.566v-4.55h1.566v4.55h1.567v-4.55h1.567v4.55h3.546v1.27zm17.261-8.144a1.775 1.775 0 0 0-1.325-.566c-.5 0-.932.189-1.297.566a1.878 1.878 0 0 0-.546 1.352c0 .524.181.975.546 1.352.365.377.797.566 1.297.566.52 0 .96-.189 1.325-.566.366-.377.548-.828.548-1.352 0-.524-.182-.974-.548-1.352m1.172 3.682c-.676.647-1.503.97-2.482.97-.96 0-1.784-.323-2.47-.97-.685-.645-1.028-1.422-1.028-2.33 0-.908.343-1.685 1.028-2.33.686-.646 1.51-.97 2.47-.97.979 0 1.806.324 2.482.97.676.645 1.013 1.422 1.013 2.33 0 .908-.337 1.685-1.013 2.33"/><path fill="#595c5d" d="M101.662 11.173h-2.456v1.24h2.456zm1.64 0v1.24h1.375v5.415h-1.638v-3.97h-6.906v-1.445h1.433v-1.24h-2.429V9.728h10.536v1.445zm10.886 2.037c-.37-.413-.815-.62-1.336-.62-.52 0-.971.207-1.352.62-.38.414-.57.912-.57 1.493 0 .581.19 1.084.57 1.509.38.425.831.637 1.352.637.521 0 .966-.212 1.336-.637a2.22 2.22 0 0 0 .556-1.51c0-.58-.185-1.078-.556-1.491m1.166 4.072c-.696.7-1.536 1.051-2.517 1.051-.982 0-1.822-.35-2.518-1.05-.696-.702-1.044-1.556-1.044-2.564s.348-1.862 1.044-2.563c.696-.701 1.536-1.052 2.518-1.052.98 0 1.821.35 2.517 1.052.697.7 1.046 1.555 1.046 2.563 0 1.008-.349 1.862-1.046 2.563"/><path fill="#595c5d" d="m111.826 11.331-1.851-3.638-1.752 3.412h-1.43l2.465-4.874h-2.194v-1.29h2.22v-.89h1.382v.89h2.219v1.29h-2.195l2.467 4.874z"/><path fill="#595c5d" d="M114.834 13.465V8.683h-2.043v-1.27h2.043V4.48h1.566v9.797z"/></svg>