<svg xmlns="http://www.w3.org/2000/svg" width="838.96509pt" height="224.99998pt" fill-rule="evenodd" viewBox="0 0 838.96509 224.99998"><path d="M240.176 451.082c.114-.039.296-.072.624-.072.663 0 1.037.37 1.037 1.069 0 .689-.405 1.143-1.18 1.143h-.481zm-1.451 7.686c.326.063.867.132 1.586.132 1.288 0 2.076-.298 2.548-.832.404-.453.674-1.112.674-1.964 0-1.201-.55-2.008-1.289-2.278v-.03c.719-.396 1.055-1.153 1.055-1.963 0-.845-.316-1.485-.767-1.827-.472-.402-1.021-.522-1.912-.522-.741 0-1.51.096-1.895.209zm1.451-4.051h.498c.732 0 1.319.373 1.319 1.307 0 .976-.587 1.341-1.251 1.341-.251 0-.424 0-.566-.043zM246.061 449.552v5.314c0 1.608.436 2.419 1.176 2.419.766 0 1.189-.765 1.189-2.419v-5.314h1.464v5.19c0 2.86-1.008 4.221-2.702 4.221-1.633 0-2.584-1.307-2.584-4.246v-5.165zM250.99 456.667c.387.289 1 .579 1.625.579.675 0 1.031-.401 1.031-1.017 0-.564-.31-.909-1.085-1.299-1.08-.535-1.792-1.399-1.792-2.756 0-1.576.933-2.77 2.453-2.77.739 0 1.267.2 1.652.464l-.325 1.674a2.36 2.36 0 0 0-1.346-.436c-.635 0-.945.424-.945.89 0 .59.357.85 1.204 1.319 1.145.607 1.673 1.455 1.673 2.775 0 1.552-.827 2.873-2.606 2.873-.739 0-1.472-.294-1.835-.577zM257.636 454.866l.395-1.961c.095-.532.199-1.231.288-1.788h.03c.097.541.21 1.242.315 1.788l.405 1.961zm1.654 1.566.5 2.377h1.576l-2.019-9.257h-1.913l-1.978 9.257h1.519l.45-2.377zM262.132 458.809v-9.257h1.713l1.345 3.388c.385.982.758 2.132 1.056 3.175h.019a55.227 55.227 0 0 1-.114-3.873v-2.69h1.346v9.257h-1.541l-1.381-3.567c-.388-1.009-.82-2.182-1.126-3.275h-.039c.048 1.244.067 2.546.067 4.057v2.785zM278.811 455.27a163.22 163.22 0 0 1-.056-3.809h-.021a77.923 77.923 0 0 1-.729 3.588l-.79 3.613h-1.144l-.691-3.572a62.949 62.949 0 0 1-.584-3.629h-.022a359.384 359.384 0 0 1-.105 3.832l-.126 3.516h-1.354l.413-9.257h1.952l.634 3.103c.211 1.065.403 2.211.549 3.294h.039c.17-1.07.392-2.271.614-3.321l.682-3.076h1.925l.344 9.257h-1.423zM285.72 454.897h-2.384v2.201H286v1.711h-4.125v-9.257h3.991v1.718h-2.53v1.928h2.384zM288.56 451.311h-1.749v-1.759h4.979v1.759h-1.769v7.498h-1.461zM294.092 451.117c.107-.035.306-.064.664-.064.67 0 1.076.433 1.076 1.279 0 .807-.432 1.33-1.162 1.33h-.578zm-1.452 7.692h1.452v-3.635h.432c.605.015.886.312 1.068 1.48.184 1.142.347 1.896.442 2.155h1.502c-.128-.353-.321-1.563-.522-2.623-.162-.853-.414-1.453-.864-1.717v-.041c.557-.291 1.144-1.096 1.144-2.27 0-.847-.212-1.494-.607-1.931-.461-.534-1.135-.743-2.096-.743-.787 0-1.479.084-1.951.209zM301.188 457.297c-.981 0-1.567-1.356-1.567-3.104 0-1.723.564-3.125 1.577-3.125 1.009 0 1.557 1.426 1.557 3.085 0 1.812-.566 3.144-1.557 3.144zm-.05 1.666c1.895 0 3.174-1.829 3.174-4.88 0-2.553-1.088-4.679-3.074-4.679-1.907 0-3.156 2.067-3.156 4.846 0 2.635 1.136 4.713 3.046 4.713zM306.74 451.147c.102-.041.306-.065.607-.065.735 0 1.146.506 1.146 1.359 0 .928-.485 1.495-1.263 1.495a1.66 1.66 0 0 1-.49-.053zm-1.455 7.662h1.455v-3.323c.133.042.306.057.501.057.861 0 1.614-.316 2.115-.976.381-.509.586-1.278.586-2.194 0-.912-.271-1.682-.686-2.134-.43-.506-1.082-.755-1.986-.755-.901 0-1.533.084-1.985.196zM313.531 457.297c-.983 0-1.571-1.356-1.571-3.104 0-1.723.57-3.125 1.581-3.125 1.007 0 1.557 1.426 1.557 3.085 0 1.812-.57 3.144-1.557 3.144zm-.053 1.666c1.898 0 3.179-1.829 3.179-4.88 0-2.553-1.093-4.679-3.082-4.679-1.9 0-3.151 2.067-3.151 4.846 0 2.635 1.132 4.713 3.048 4.713zM317.647 449.552h1.457v7.499h2.575v1.758h-4.032zM324.198 449.552v9.257h-1.457v-9.257zM327.082 451.311h-1.748v-1.759h4.98v1.759h-1.77v7.498h-1.462zM332.415 454.866l.387-1.961c.101-.532.205-1.231.293-1.788h.031c.092.541.21 1.242.317 1.788l.401 1.961zm1.652 1.566.502 2.377h1.574l-2.021-9.257h-1.912l-1.981 9.257h1.52l.453-2.377zM337.019 458.809v-9.257h1.71l1.346 3.388c.389.982.758 2.132 1.065 3.175h.013a54.652 54.652 0 0 1-.113-3.873v-2.69h1.346v9.257h-1.543l-1.38-3.567c-.386-1.009-.816-2.182-1.128-3.275h-.037c.045 1.244.068 2.546.068 4.057v2.785zM352.31 458.563c-.26.173-.876.4-1.656.4-2.239 0-3.391-2.007-3.391-4.654 0-3.162 1.577-4.905 3.541-4.905.756 0 1.334.215 1.593.412l-.309 1.645a2.336 2.336 0 0 0-1.233-.344c-1.146 0-2.051 1-2.051 3.076 0 1.857.767 3.023 2.061 3.023.459 0 .94-.118 1.231-.304zM354.995 449.552v9.257h-1.458v-9.257zM357.88 451.311h-1.75v-1.759h4.981v1.759h-1.765v7.498h-1.466zM363.59 458.809v-3.791l-2.044-5.466h1.681l.651 2.229c.203.67.348 1.159.497 1.767h.027c.14-.575.295-1.107.487-1.767l.65-2.229h1.647l-2.134 5.397v3.86zM373.964 457.295c-.977 0-1.565-1.355-1.565-3.103 0-1.722.567-3.124 1.575-3.124 1.009 0 1.556 1.427 1.556 3.083 0 1.814-.57 3.144-1.556 3.144zm-.047 1.67c1.893 0 3.174-1.831 3.174-4.882 0-2.551-1.091-4.679-3.08-4.679-1.902 0-3.152 2.069-3.152 4.846 0 2.637 1.138 4.715 3.052 4.715zM377.86 449.552h3.951v1.717h-2.492v2.114h2.327v1.709h-2.327v3.717h-1.459zM382.819 449.552h3.952v1.717h-2.494v2.114h2.328v1.709h-2.328v3.717h-1.458zM389.529 449.552v9.257h-1.457v-9.257zM395.564 458.561c-.265.179-.876.404-1.657.404-2.235 0-3.388-2.009-3.388-4.658 0-3.16 1.573-4.903 3.534-4.903.762 0 1.336.213 1.594.412l-.304 1.647a2.337 2.337 0 0 0-1.231-.346c-1.155 0-2.058 1-2.058 3.075 0 1.86.769 3.025 2.067 3.025.454 0 .931-.121 1.231-.305zM400.518 454.895h-2.383v2.201h2.662v1.713h-4.125v-9.257h3.991v1.717h-2.528v1.929h2.383zM408.76 457.295c-.977 0-1.567-1.355-1.567-3.103 0-1.722.571-3.124 1.578-3.124 1.011 0 1.56 1.427 1.56 3.083 0 1.814-.567 3.144-1.56 3.144zm-.042 1.67c1.89 0 3.169-1.831 3.169-4.882 0-2.551-1.084-4.679-3.073-4.679-1.904 0-3.16 2.069-3.16 4.846 0 2.637 1.141 4.715 3.053 4.715zM412.767 449.552h3.951v1.717h-2.489v2.114h2.325v1.709h-2.325v3.717h-1.462zM425.189 454.895h-2.387v2.201h2.662v1.713h-4.118v-9.257h3.985v1.717h-2.529v1.929h2.387zM428.372 451.177c.124-.044.34-.087.661-.087 1.266 0 2.055.948 2.055 2.941 0 2.208-.877 3.256-2.21 3.239-.175 0-.382 0-.506-.038zm-1.465 7.591c.358.065.903.134 1.661.134 1.273 0 2.317-.379 3.002-1.189.615-.757 1.063-1.979 1.063-3.75 0-1.646-.421-2.803-1.096-3.514-.612-.672-1.418-.963-2.659-.963-.731 0-1.434.066-1.971.207zM434.961 449.552v5.314c0 1.61.437 2.421 1.179 2.421.765 0 1.189-.767 1.189-2.421v-5.314h1.465v5.192c0 2.858-1.013 4.221-2.704 4.221-1.637 0-2.591-1.309-2.591-4.248v-5.165zM444.703 458.561c-.253.179-.865.404-1.648.404-2.24 0-3.395-2.009-3.395-4.658 0-3.16 1.579-4.903 3.54-4.903.76 0 1.336.213 1.595.412l-.307 1.647a2.345 2.345 0 0 0-1.234-.346c-1.15 0-2.054 1-2.054 3.075 0 1.86.769 3.025 2.067 3.025.452 0 .929-.121 1.23-.305zM447.39 454.866l.394-1.961c.099-.532.202-1.229.292-1.788h.026c.097.543.208 1.242.318 1.788l.403 1.961zm1.655 1.568.497 2.375h1.576l-2.018-9.257h-1.91l-1.983 9.257h1.519l.455-2.375zM452.677 451.313h-1.752v-1.761h4.981v1.761h-1.769v7.496h-1.46zM458.333 449.552v9.257h-1.461v-9.257zM462.48 457.295c-.975 0-1.569-1.355-1.569-3.103 0-1.722.568-3.124 1.576-3.124 1.012 0 1.561 1.427 1.561 3.083 0 1.814-.567 3.144-1.561 3.144zm-.049 1.67c1.899 0 3.172-1.831 3.172-4.882 0-2.551-1.086-4.679-3.076-4.679-1.902 0-3.152 2.069-3.152 4.846 0 2.637 1.135 4.715 3.047 4.715zM466.584 458.809v-9.257h1.715l1.345 3.39c.384.98.761 2.132 1.064 3.171h.011a54.636 54.636 0 0 1-.112-3.869v-2.692h1.346v9.257h-1.536l-1.39-3.571c-.382-1.005-.815-2.178-1.122-3.27h-.04c.048 1.244.07 2.545.07 4.056v2.785zM412.789 417.938c0-1.399-1.659-2.541-3.06-2.541h-18.555v3.617h17.444v14.971h-3.668v-8.666h-4.028v8.666h-2.947v-8.666h-4.029v8.666h-4.498v3.623h25.061v-3.623h-1.715c0-6.606-.005-16.047-.005-16.047zM379.944 443.137h4.137v-27.743h-4.137zM368.862 415.131c-.694 0-1.214.264-1.816.909 0 0-8.027 8.982-8.732 9.773l3.05 2.705 7.484-8.377s6.799 7.592 7.491 8.394l3.043-2.717c-1.269-1.452-8.576-9.626-8.576-9.637-.698-.738-1.276-1.05-1.944-1.05zM283.601 427.934c.149-.136 2.951-2.625 3.095-2.762-.719-.806-8.029-8.98-8.029-8.991-.694-.738-1.277-1.05-1.936-1.05-.691 0-1.217.264-1.819.909 0 0-8.031 8.982-8.174 9.145.145.124 2.955 2.61 3.104 2.741.144-.156 6.892-7.69 6.892-7.69s6.722 7.538 6.867 7.698zM468.022 415.396v4.249h-3.801v3.3h3.801v6.008h4.173v-13.557h-4.173zM462.282 428.481c-4.234.55-7.481 3.735-7.481 7.603 0 4.244 3.922 7.695 8.76 7.695 4.843 0 8.764-3.451 8.764-7.695 0-4.248-3.921-7.695-8.764-7.695-.336 0-.669.021-.995.053zm1.279 11.697c-2.538 0-4.586-1.832-4.586-4.094 0-2.262 2.048-4.1 4.586-4.1 2.535 0 4.594 1.838 4.594 4.1 0 2.262-2.059 4.094-4.594 4.094zM352.251 431.094v-.002h-17.436v3.64h15.807v8.393h4.154l-.007-9.488a2.524 2.524 0 0 0-2.518-2.543zM350.628 429.092h4.141v-13.711h-4.141v1.978h-3.231v3.482h3.231v2.486h-3.231v3.546h3.231v2.219zM345.72 421.596c0-3.869-3.473-7.008-7.768-7.008-4.281 0-7.76 3.139-7.76 7.008 0 3.871 3.479 7.006 7.76 7.006 4.295 0 7.768-3.135 7.768-7.006zm-11.364-.002c0-1.885 1.607-3.411 3.596-3.411 1.996 0 3.612 1.526 3.612 3.411 0 1.886-1.616 3.408-3.612 3.408-1.989 0-3.596-1.522-3.596-3.408zM242.806 428.513h16.607c1.486 0 2.465-1.034 2.465-2.532v-10.584h-4.142v3.049h-13.331v-3.049h-4.137v10.578a2.54 2.54 0 0 0 2.538 2.538zm1.599-6.579h13.331v2.955h-13.331zM238.493 434.367h10.467v9.402h4.141v-9.402h10.437v-3.616h-25.045z" style="fill:#00569f;stroke:none" transform="matrix(2.48726 0 0 2.48726 -335.83 -970.21)"/><path d="m462.096 428.031-5.811-6.131s-5.704 5.934-5.859 6.092c-.143-.15-2.721-2.785-2.846-2.914l5.464-5.664h-4.477v-3.441h5.698v-2.659h4.115v2.659h5.642v3.441h-4.626s5.299 5.494 5.54 5.74zM295.059 423.137v-3.558h-3.141v-4.196h-4.175v19.238h4.169v-11.484zM276.409 439.489v-8.748h-4.14v9.818a2.548 2.548 0 0 0 2.542 2.543h17.386v-3.619zM323.219 423.197h3.157v-3.558h-3.157v-4.262h-4.134v10.104h-3.405v-7.43c0-1.58-1.144-2.672-2.545-2.674h-12.488V419h10.899v6.481h-4.099v-3.613h-4.137v3.613h-3.757v3.572h11.432c-3.075 1.195-5.22 3.89-5.22 7.031 0 4.244 3.921 7.695 8.767 7.695 4.834 0 8.758-3.451 8.758-7.695 0-3.137-2.139-5.831-5.209-7.031h5.138v-5.856zm-8.687 16.981c-2.542 0-4.59-1.832-4.59-4.094 0-2.262 2.048-4.1 4.59-4.1 2.529 0 4.589 1.838 4.589 4.1 0 2.262-2.06 4.094-4.589 4.094zM444.442 429.347v-3.616h-6.517c1.523-1.32 2.466-3.151 2.466-5.169 0-4.021-3.733-7.283-8.339-7.283-.322 0-.638.02-.952.051l-.266.037c-4.029.517-7.116 3.533-7.116 7.195 0 2.018.94 3.849 2.464 5.169h-6.813v3.616h5.47v2.946h-3.761v3.617H438.5v7.192h4.175l-.003-8.272a2.544 2.544 0 0 0-2.541-2.537h-.91v-2.946h5.221zm-12.39-12.488c2.29 0 4.147 1.66 4.147 3.703 0 2.045-1.857 3.702-4.147 3.702-2.294 0-4.144-1.657-4.144-3.702 0-2.043 1.85-3.703 4.144-3.703zm3.022 15.434h-6.097v-2.946h6.097z" style="fill:#00569f;stroke:none" transform="matrix(2.48726 0 0 2.48726 -335.83 -970.21)"/><path d="M195.842 428.233c-.028-.254-.028-.516-.127-.727-.124-.245-.621-.57-.842-.711-.149-.101-.341-.171-.439-.348-.004 0-.055.012-.07.012v.086c-.079 0-.197-.217-.241-.278-.025 0-.14-.046-.161-.046 0 .033.015.033.034.051.01 0 .143.175.128.215-.014.038-.074.008-.085.008 0-.05-.094-.091-.129-.117-.297-.19-.525-.454-.82-.647-.147-.06-.319-.192-.467-.255-.41-.187-.79-.298-1.199-.475-.029-.015-.391-.201-.333-.093-.143 0-.293-.1-.417-.146 0 .068.173.136.222.176a1.129 1.129 0 0 0-.177-.03c0 .047-.039.043-.073.047 0-.038-.165-.125-.208-.155-.128-.05-.294-.038-.421-.062 0-.006.079-.042.117-.059h.057c0-.013-.269-.144-.392-.079-.25 0-.485.029-.706-.014a4.633 4.633 0 0 0-.43-.089.493.493 0 0 0-.02.103c-.018 0-.052-.041-.087-.041-.377.016-.884-.36-1.178-.575-.201-.159-.376-.221-.569-.328-.371-.232-.769-.424-1.253-.471-.002-.056.197-.041.197-.082-.031-.096-.357-.108-.586-.12v.034c-.248 0-.761.46-.922.651-.094.12-.192.338-.349.366-.296.476-.661 2.116-1.157 2.425 0 .203-.116.225-.227.37-.114.144-.14.3-.14.509.01 0 .209-.438.251-.344 0 .087-.084.179-.121.246-.104.279-.191.668-.474 1.04-.138.312-.26.828-.356 1.011-.239.469-.584.877-.863 1.322a4.112 4.112 0 0 0-.423.837c-.092.197-.201.352-.159.597-.055 0-.154.223-.185.28-.131.249-.293.576-.307.882-.053.548.507 1.316 1 1.52 0 .046.013.031.057.031.017-.074-.08-.181-.08-.199.221 0 .442.316.625.409.197.085.392.163.587.25.356.132.758.12 1.093.296.314.163.557.481.906.563v-.052c-.047 0-.137-.091-.137-.107.057-.033.13.012.16.018.264.131 1.166.836 1.389.793 0 .136.692.245.762.428.079 0 .152-.005.219.018.122.038.728.391.794.257.055 0 .487.321.577.376.211.151.553.278.818.484.235.267.879.507.913.536.022 0 .115.015.116.015 0-.066-.461-.281-.475-.281-.019-.075.089-.028.089-.036.05 0 .386.138.423.181 0 .008.09-.006.138-.026 0 .205 1.369.318 1.602.178-.015 0-.118-.069-.171-.069.058-.083.233-.083.259-.075.168.038.393-.181.481-.318.032 0 .005-.093-.014-.093 0 .045-.146.122-.181.122 0-.043.009-.107.035-.136.239-.31.493-.554.626-.913.06-.171.047-.383.09-.562.034-.175.048-.369.094-.543.014-.123-.005-.265 0-.38.031-.202.221-.554.23-.554.025.069-.009.191-.038.276-.023.181-.084.489-.077.489.074-.078.077-.169.115-.258.133-.402.272-.765.489-1.121.059-.102-.032-.106.016-.193.091-.161.191-.311.284-.469.053-.135.034-.273.107-.395.125-.19.25-.382.378-.564.125-.276.204-.559.335-.831.3-.589.592-1.173.89-1.765.127-.3.236-.63.345-.948.011-.072.014-.14.027-.209.095-.326.217-.578.313-.895-.13 0-.096-.093-.102-.224z" style="fill:#f69f13;stroke:none" transform="matrix(2.48726 0 0 2.48726 -335.83 -970.21)"/><path d="M177.091 426.531c.261-.188.368-.687.446-.988.08-.445.058-1.091.056-1.091-.045.02-.073.184-.12.258.03-.24-.045-.378-.056-.378a.504.504 0 0 0-.07.149c-.015.169.088.252.096.391.022.208-.183.596-.25.741 0 .066-.018-.163-.013-.204.026-.219.056-.431.092-.649.021-.205.036-.41.05-.615.011-.093.075-.15.113-.236.03-.076.03-.178.038-.274.007 0 .072.061.057.198.07-.097.038-.288.029-.288 0-.119-.05-.204-.056-.336-.044 0-.044.115-.06.115 0-.134-.145-.522-.223-.617-.063-.091-.159-.143-.197-.248-.033-.074.006-.155.017-.241-.001-.111-.017-.221-.017-.332-.021-.137-.056-.311.038-.424 0-.046-.071-.077-.094-.116a6.295 6.295 0 0 0-.095-.244c-.039-.073-.143-.201-.209-.173v.024c-.074 0-.095-.071-.113-.113a3.05 3.05 0 0 0-.304-.523c-.065-.059-.138-.119-.197-.172a27.01 27.01 0 0 0-.253-.309 4.681 4.681 0 0 0-.239-.265c-.06 0 .012.076.024.113-.112 0-.495-.563-.678-.622-.008.054.096.095.142.17-.132 0-.352-.286-.368-.286v-.024c.043.005.117.046.117.024-.005 0-.012-.06-.026-.06 0-.038-.055-.04-.091-.053-.356-.106-.48-.305-.804-.453-.017.098.2.18.208.202-.155 0-.452-.261-.641-.289-.091 0 .289.176.279.235-.177-.065-.353-.134-.537-.204-.504-.183-1.093-.516-1.661-.535-.002-.042.148-.03.226-.03 0-.192-.87-.207-1.085-.181a2.221 2.221 0 0 1-.28.084c0 .025.246.015.363-.01.334.01.432.089.632.195-.244 0-.776-.156-.959-.088h-.194c0-.002.167-.1-.085-.018-.064 0-.113.016-.17.018h-.052c0 .049.109.049.109.058-.203 0-.456.107-.595.231-.226 0-.317-.132-.594-.063h-.058c0 .05.107.067.107.077-.055.019-.212.054-.271.069 0 .048.421-.05.452.029-.143 0-.339.074-.452.142-.079.008-.151.019-.226.022-.014 0-.103.025-.11.056-.137.032-.27.071-.413.102-.353.111-.894.225-1.147.523-.007 0-.033.015-.022.057.015 0 .226-.123.28-.14 0-.051.02-.036.056-.036-.036.097-.543.502-.732.72-.083.07-.167.131-.256.194a3.52 3.52 0 0 0-.594.745c-.182.32-.312.7-.539 1.002 0 .041.053.041.089.049 0 .208-.47.367-.425.744-.05 0-.161.143-.192.196-.057 0-.03.012-.03.052.044 0 .031-.024.058-.052h.018v.022c-.018 0-.316.558-.365.651-.049 0-.023.017-.023.059.069 0-.044.254-.058.309-.029 0 0 .138 0 .195-.006.727.206 1.966.143 2.065-.052-.109-.118-.22-.172-.322a.492.492 0 0 1-.053-.25c-.048 0-.04.339-.063.4 0 .014-.015.031-.028.031-.018-.153-.062-.228-.089-.383-.044 0-.005-.08-.058-.08v-.03c-.042 0-.021.072-.028.121a5.68 5.68 0 0 0-.045 1.184c.052-.028.065-.19.078-.19 0 .177-.013.366.063.506 0 .006.017.028.023.028-.017-.085-.033-.255-.023-.255 0 .042.17.576.223.643 0 .035.077.054.103.1.1.211.161.464.296.667.044.037.044-.026.058-.058 0 .011.082.296.22.483 0 .01.217.284.251.334.012 0 .029.023.029.034.048-.034-.005-.173 0-.173 0-.015.033-.039.033-.026.083 0 .135.227.135.307a.322.322 0 0 1-.052-.108c-.1 0 .009.28.03.34-.038 0-.03.009-.009.033.174.225.293.468.471.686a.747.747 0 0 0 .268.237c-.004-.088-.043-.136-.024-.254.014 0 .024.022.024.033.055 0 .219.442.392.504 0-.042-.041-.076-.046-.117-.02 0-.034-.02-.034-.02.014 0 .39.282.73.345.074.02.23.092.286.168-.02 0-.093.001-.066.036 0 .001 0 .006.002.006.093.082.29.07.404.122.325.139.611.367.956.477 0-.004-.003-.038-.056-.088-.006 0 .01-.022.033-.022 0 .041.046.036.075.063.131.101.151.213.343.222.03.018.058.034.058-.009.021 0 .088.037.118.056.114.054.233.065.364.096.188.053.378.111.589.125.121-.001.231-.001.345-.014.296.073.672.233 1.011.099.025 0 .103-.039.103-.069-.151 0-.255-.066-.271-.066.148-.041.545-.051.592.026a.457.457 0 0 0-.271.144h.053c0 .045.023.033.061.033.286-.076.655-.288.778-.309.008.047-.031.065-.054.078-.011 0-.028.024-.028.028a.748.748 0 0 0 .195-.068c.184-.127.358-.279.547-.402.179-.131.386-.222.572-.366.06-.062.076-.122.171-.19.087-.041.169-.089.256-.14.085-.066.082-.099.126-.155.091-.078.153-.072.234-.11.12-.077.214-.19.348-.225.016-.154.146-.226.293-.297h.027c-.017.048-.202.143-.227.269a.812.812 0 0 0 .269-.166c.045-.055.088-.103.138-.164a2.53 2.53 0 0 0 .258-.145c.134-.091.252-.178.379-.269 0-.02 0-.121.026-.156.184-.211.351-.407.49-.642.092-.156.175-.388.32-.498.076-.028.078-.039.142-.064 0 .163-.156.242-.2.435-.004 0-.03.021-.03.028.289 0 .45-.977.576-1.189.014 0-.025-.172.113-.229 0-.181.096-.345.054-.538 0 .066-.105.161-.139.207a1.212 1.212 0 0 0-.17.504.274.274 0 0 1-.06-.199c0-.045.098-.423.108-.453.011-.013.011-.031.02-.036z" style="fill:#e31b33;stroke:none" transform="matrix(2.48726 0 0 2.48726 -335.83 -970.21)"/><path d="M173.996 435.823c.218.05.261.097.457.179.236.03.732.42.732.439-.04-.007-.076-.019-.119-.028.138.11.374.276.374.324.016 0 .073 0 .083.037.178.241.187.314.28.434.038.041.234.234.373.588.061.071.129.145.192.219.104.137.182.306.261.454.023.046.075.092.075.149.025 0-.021-.103.111-.09.018 0 .133.121.184.155.107.141.141.304.201.462.093.243.176.45.176.744.275.135.482.26.67.521.024.039.069.071.069.128.1-.019.118.079.198.079.029-.008.022.121-.026.121 0 .006.113.257.158.522.042.226.848.97 1.078.97-.078-.098-.284-.289-.381-.547-.096-.142-.238-.187-.23-.361.378.286.999.751 1.2 1.19.016.044.039.136.062.136a.957.957 0 0 0 .27.217c.126.063.2.181.348.181-.101-.198-.359-.314-.406-.544-.013-.037.406.233.406.404.137.005.937.611.937.854a.284.284 0 0 1-.128-.066c-.067-.084-.133-.193-.234-.213 0 .016-.03.076-.03.093-.014.226.918.981.918 1.357.009 0 .04-.09.04-.077.207.25.207.646.31.954.043.091.059.193.113.288.021 0 .055-.026.055-.087.127.08.214.348.211.476-.038.106-.084.135-.084.27-.013.113-.133.171-.189.228-.088.09-.106.204-.172.297-.18.248-.882.778-1.26.762-.237-.004-.647.088-.775.056 0-.011.187-.084.187-.133-.029-.073-.597-.114-.565 0 .024.04.116.077.188.077 0 .045-.035.056-.048.056-.285.134-.665-.011-.964.048-.129.048-.765.22-.948.253-.168.109-.828.213-.828.217-.15.029-.261.037-.399.065-.271.031-.521.031-.759.108a1.247 1.247 0 0 1-.179.09c-.028.017-.134.066-.134.014.012 0 .121-.039.121-.086.005 0 .023-.018.023-.029-.407 0-.957.344-.957.369-.156-.008-.287-.042-.42-.062l-.2.033v.029c.055.017.123.082.192.082 0 .035.008.024-.025.024-.193.098-.445.115-.653.156-.116.025-.24.054-.367.076l-.337-.032v-.027c.078-.002.166 0 .253 0-.245-.162-.26-.035-.479-.035v.062h.058c.038.01.075.02.11.032v.025c-.128.022-.261.074-.377.112-.127 0-.252.013-.387.013a2.933 2.933 0 0 1-.219.043c.015.037.055.076.055.09-.186.007-.377.024-.572.042a3.085 3.085 0 0 1-.162-.018c0 .007.052.074.052.111-.005 0-.442.089-.534.089a.387.387 0 0 1-.279.138c.025.029.082.08.082.088-.368 0-.693.053-1.074.053v-.028c.02-.025.081-.084.028-.084v-.029c.133-.024.267-.052.398-.077 0-.028-.282-.036-.282-.083.042-.017-.332-.148-.508-.127-.513.085-1-.033-1.143-.619-.087-.36.062-.9.163-1.232.086-.374.309-.683.467-1.025.068-.144.149-.251.149-.425.208-.177.475-.872.547-1.155.029-.112.019-.237.058-.342.061-.121.163-.218.221-.345.016-.098.031-.194.056-.289.162-.332.317-.668.479-1.005.064-.191.131-.379.193-.56.009-.08.023-.165.03-.245.049-.089.083-.174.129-.259.052-.224.105-.434.157-.652.032-.094.068-.188.102-.279-.018 0-.137.13-.137.222-.005 0-.081.059-.085.059.018-.206.148-.389.237-.57.136-.277.278-.548.362-.847.008-.034.017-.194.039-.194.084-.216.281-.448.281-.693h-.026c-.036.075-.153.176-.153.255-.009 0-.056.017-.072.017.012-.304.159-.411.244-.569.041-.104.093-.196.108-.306.027-.102.056-.205.087-.316.051-.186.129-.37.223-.555.125-.225.272-.448.272-.737-.102.07-.303.567-.414.567-.061-.023-.03-.084-.036-.084.098-.267.189-.527.28-.793h.055c0 .029.022.081.035.081.146-.492.622-1.054 1.182-1.093.1-.008.177.018.261.039.062.018.093.016.181.044-.078-.065-.014-.051-.131-.115z" style="fill:#a866a2;stroke:none" transform="matrix(2.48726 0 0 2.48726 -335.83 -970.21)"/><path d="M170.064 456.242c-.235-.238-.497-.49-.782-.739-1.315-1.127-2.987-2.101-4.375-2.536-1.451-.454-2.474-.576-3.551-.696-.748-.089-1.527-.175-2.504-.386-1.996-.42-3.675-1.504-5.281-3.402l-.207-.246-2.37 2.102.192.229c2.062 2.483 4.232 3.918 6.825 4.498 1.02.234 1.818.318 2.596.396 1.099.104 2.053.193 3.423.696 1.092.405 3.086 1.656 3.811 2.382l.226.222 2.187-2.305zM151.992 441.404c.785.69 1.449 1.146 2.087 1.581.918.631 1.702 1.166 2.657 2.263.776.873 1.925 2.919 2.21 3.916l.085.302 3.036-.958-.077-.287c-.379-1.498-1.467-3.813-2.946-5.346-1.052-1.106-1.892-1.704-2.782-2.324-.61-.433-1.241-.878-2.011-1.533-1.726-1.485-2.706-3.452-3.149-6.397l-.056-.337-3.071.847.046.273c.56 3.577 1.822 6.115 3.971 8zM154.336 428.918c.501.983.935 1.838 1.244 3.264.26 1.13.289 3.475.06 4.489l-.063.31 3.118.599.074-.272c.379-1.5.54-4.05-.014-6.111-.405-1.465-.857-2.393-1.326-3.37a20.962 20.962 0 0 1-1.028-2.312c-.807-2.137-.719-4.333.3-7.122l.117-.326-3.108-.725-.087.264c-1.219 3.393-1.327 6.227-.356 8.919.356.982.723 1.702 1.069 2.393z" style="fill:#00569f;stroke:none" transform="matrix(2.48726 0 0 2.48726 -335.83 -970.21)"/><path d="M208.762 424.25c-2.936-6.503-2.702-9.439-2.528-10.185.02-.063.027-.105.049-.156.032-.206-.159-.379-.373-.381a.307.307 0 0 0-.149.03v-.006c-2.693 1.456-5.201 4.507-5.995 10.593-.66 5.159 1.184 15.908-6.286 24.43-7.612 8.685-19.344 9.581-19.427 9.583h-.004a.196.196 0 0 0-.193.196.17.17 0 0 0 .084.157v.007c3.217 2.206 6.945 2.679 6.945 2.679-6.272 1.686-13.078.8-13.429.755a.191.191 0 0 0-.273.174c0 .073.032.132.092.171a29.71 29.71 0 0 0 14.009 3.757c16.362.253 29.833-12.809 30.086-29.171a29.587 29.587 0 0 0-2.608-12.633z" style="fill:#009240;stroke:none" transform="matrix(2.48726 0 0 2.48726 -335.83 -970.21)"/><path d="M148.581 411.713c-.023.086-.086.206-.226.399-.284.396-.664.455-1.078.154-.407-.293-.5-.727-.167-1.187l.206-.282zm-3.923-4.151a5.643 5.643 0 0 0-.76.876c-.553.762-.713 1.357-.597 1.868.094.429.369.873.871 1.239.707.511 1.421.534 1.9.215l.016.011c-.072.596.229 1.118.71 1.464.501.368 1.011.452 1.407.328.438-.108.745-.374 1.128-.907.318-.435.592-.93.692-1.207zm1.773 2.593-.213.293c-.314.434-.785.623-1.338.222-.573-.42-.543-.926-.259-1.314a1.59 1.59 0 0 1 .266-.319zM147.121 415.906l-3.388-1.887c-1.025-.576-1.696-.586-1.959-.113-.273.487.066 1.033 1.117 1.617l3.388 1.893-.52.933-3.31-1.849c-1.82-1.015-2.328-2.141-1.725-3.221.579-1.045 1.75-1.184 3.625-.14l3.292 1.838zM140.564 417.248c-.302.177-.671.509-.848.931-.188.454-.02.806.396.979.381.158.696.048 1.176-.371.672-.57 1.447-.807 2.361-.426 1.066.447 1.608 1.411 1.18 2.433-.207.498-.497.796-.779.982l-1.037-.692c.19-.119.498-.362.675-.783.178-.426-.023-.757-.337-.886-.397-.165-.673 0-1.227.437-.728.602-1.45.718-2.338.347-1.046-.435-1.701-1.365-1.2-2.561.206-.497.608-.91.905-1.074zM139.848 422.863l1.295.68c.357.177.825.395 1.192.566l-.007.022c-.393-.041-.908-.106-1.314-.144l-1.461-.12zm-1.435.837-1.768-.135-.323 1.1 6.9.487.392-1.34-6.082-3.286-.308 1.066 1.57.803zM136.006 426.108l6.67 1.088-.2 1.232-2.602.572c-.748.162-1.624.297-2.412.387l-.002.017c.892.079 1.796.205 2.806.37l1.938.317-.158.969-6.669-1.085.18-1.11 2.736-.578a28.75 28.75 0 0 1 2.487-.428l.005-.027a73.25 73.25 0 0 1-2.927-.429l-2.009-.325zM137.848 439.432c.811-.07 1.781-.148 2.772-.208l-.001-.014a54.396 54.396 0 0 1-2.644-.378l-2.668-.415-.052-.835 2.574-.66a47.224 47.224 0 0 1 2.618-.586l-.001-.014a189.6 189.6 0 0 1-2.798.09l-2.568.064-.06-.987 6.766-.103.084 1.42-2.234.597c-.76.203-1.593.393-2.378.544l.001.027c.788.081 1.679.189 2.449.305l2.272.365.085 1.399-6.73.659-.063-1.04zM138.942 444.575l-.322-1.71-1.576.299.36 1.908-1.232.234-.556-2.957 6.641-1.254.539 2.86-1.232.234-.342-1.813-1.38.259.323 1.711zM142.035 446.057l-.362-1.227 1.229-.365 1.033 3.486-1.232.366-.366-1.242-5.25 1.556-.305-1.024zM143.498 449.939c.058.061.134.189.233.428.188.452.005.848-.56 1.083-.547.227-1.018.082-1.223-.411l-.162-.388zm-5.59 1.173.404.983 2.456-1.02.12.289c.16.412.034.686-.7 1.136-.718.442-1.181.764-1.33.901l.419 1.011c.207-.182.965-.651 1.624-1.084.528-.35.866-.684.913-1.063l.03-.012c.349.294 1.061.463 1.848.135.574-.237.948-.559 1.135-.948.233-.462.183-.973-.087-1.622-.22-.532-.469-.975-.684-1.258zM141.844 456.898c-.353-.625.302-1.482 1.41-2.107 1.102-.623 2.197-.762 2.558-.121.362.644-.35 1.501-1.407 2.1-1.153.649-2.203.764-2.559.134zm-1.074.567c.679 1.205 2.298 1.362 4.238.269 1.624-.916 2.588-2.369 1.876-3.635-.684-1.21-2.45-1.261-4.214-.269-1.677.945-2.591 2.41-1.904 3.628zM147.996 458.228c.072.047.175.153.303.33.32.435.194.894-.309 1.26-.549.403-1.087.361-1.423-.096a1.121 1.121 0 0 1-.178-.314zm-5.141 2.45.626.854 1.959-1.432c.035.097.1.205.182.318.377.51.884.816 1.488.825.465.009 1.006-.204 1.548-.599.534-.392.872-.881.958-1.323.115-.472-.022-.962-.412-1.496-.384-.525-.706-.864-.965-1.084zM148.006 465.327c-.488-.524-.052-1.511.879-2.381.924-.859 1.955-1.253 2.457-.714.503.54.012 1.543-.876 2.37-.967.901-1.962 1.261-2.453.73zm-.913.8c.944 1.013 2.556.788 4.186-.728 1.364-1.27 1.961-2.911.97-3.974-.946-1.019-2.675-.651-4.159.726-1.409 1.313-1.953 2.949-1 3.971zM154.268 463.612l.81.696-3.564 4.157 1.428 1.226-.836.973-2.239-1.918zM157.976 466.598l-4 5.447-.86-.634 4.002-5.442zM158.917 468.779l-1.085-.671.674-1.09 3.093 1.915-.677 1.092-1.099-.683-2.881 4.656-.907-.561zM161.122 473.026l.89-1.159c.236-.322.528-.745.763-1.078l.018.008c-.109.383-.257.878-.364 1.272l-.368 1.417zm.583 1.559-.435 1.718 1.034.505 1.647-6.717-1.254-.612-4.27 5.434.996.485 1.057-1.414zM163.669 477.363l2.197-6.388 1.182.404.123 2.663c.035.767.018 1.648-.022 2.439l.013.004c.23-.861.507-1.731.839-2.7l.639-1.858.93.32-2.198 6.392-1.061-.367-.11-2.795c-.027-.78-.046-1.702 0-2.52l-.026-.014c-.26.868-.556 1.774-.917 2.815l-.661 1.927zM176.214 480.13c-.204.106-.67.205-1.234.133-1.622-.211-2.269-1.774-2.018-3.692.296-2.287 1.604-3.4 3.022-3.215.551.073.948.288 1.118.449l-.379 1.162a1.717 1.717 0 0 0-.859-.363c-.833-.109-1.583.533-1.779 2.036-.175 1.343.273 2.256 1.213 2.379.325.045.685-.002.918-.104zM178.963 473.675l-.318 6.752-1.065-.049.318-6.75zM180.951 474.978l-1.276.036-.042-1.281 3.634-.114.042 1.285-1.291.039.17 5.473-1.068.031zM186.119 480.073l-.393-2.736-2.047-3.738 1.216-.177.7 1.541c.217.467.374.807.549 1.229l.011-.004c.045-.43.1-.834.171-1.329l.241-1.676 1.19-.171-.982 4.127.4 2.785zM195.228 476.719c-.672.242-1.414-.545-1.849-1.74-.43-1.188-.391-2.289.301-2.541.693-.253 1.425.59 1.84 1.73.452 1.246.396 2.3-.286 2.548zm.383 1.154c1.299-.476 1.72-2.048.96-4.14-.637-1.752-1.913-2.942-3.279-2.445-1.307.475-1.646 2.209-.955 4.111.659 1.809 1.953 2.95 3.269 2.476zM196.089 470.289l2.581-1.29.56 1.124-1.626.812.69 1.382 1.519-.759.555 1.109-1.519.762 1.213 2.429-.954.479zM199.429 468.566l2.443-1.535.667 1.061-1.539.968.819 1.307 1.44-.902.662 1.053-1.44.902 1.447 2.302-.904.567zM203.469 465.85l4.021 5.428-.857.634-4.024-5.429zM211.235 467.898c-.057.222-.288.641-.715 1.017-1.23 1.077-2.83.529-4.105-.926-1.52-1.729-1.494-3.449-.419-4.393.417-.365.839-.519 1.077-.541l.623 1.051a1.733 1.733 0 0 0-.84.404c-.635.557-.648 1.545.35 2.683.893 1.015 1.878 1.286 2.59.661.248-.216.454-.517.53-.757zM212.2 462.995l-1.185 1.279 1.179 1.091 1.321-1.429.918.853-2.046 2.211-4.958-4.595 1.98-2.136.918.852-1.252 1.352 1.029.957 1.183-1.28zM217.797 458.261c-.373.611-1.444.457-2.528-.207-1.079-.657-1.737-1.539-1.352-2.17.384-.633 1.483-.431 2.518.206 1.129.686 1.744 1.547 1.367 2.167zm1.017.662c.721-1.18.071-2.673-1.83-3.831-1.59-.974-3.331-1.107-4.088.134-.725 1.187.09 2.754 1.82 3.809 1.642 1.003 3.367 1.086 4.095-.106zM214.462 452.697l1.212-2.618 1.135.528-.763 1.649 1.401.648.713-1.543 1.129.523-.714 1.542 2.465 1.14-.448.968zM221.502 444.475l-.43 1.688 1.555.392.48-1.881 1.214.309-.742 2.919-6.551-1.673.723-2.821 1.213.311-.457 1.784 1.361.353.429-1.69zM219.288 441.484a1.576 1.576 0 0 1 .004-.49c.121-.918.883-1.395 2.323-1.205 1.601.212 2.271.946 2.135 1.911-.017.126-.037.279-.081.367zm5.355 1.788c.084-.251.187-.642.26-1.192.121-.919-.057-1.715-.578-2.285-.488-.52-1.327-.963-2.612-1.133-1.193-.158-2.068.035-2.649.456-.545.38-.831.937-.952 1.832-.07.533-.087 1.047-.038 1.45zM218.561 436.631l3.879.05c1.173.014 1.77-.295 1.776-.837.007-.559-.551-.872-1.753-.887l-3.88-.053.013-1.067 3.789.05c2.087.025 3.071.776 3.054 2.012-.016 1.192-.976 1.874-3.122 1.846l-3.77-.048zM224.717 428.771c.149.173.357.603.414 1.17.171 1.626-1.197 2.616-3.123 2.817-2.293.242-3.679-.772-3.828-2.196-.056-.554.06-.987.178-1.191l1.219.099a1.69 1.69 0 0 0-.154.921c.087.837.884 1.418 2.389 1.259 1.348-.141 2.135-.789 2.039-1.729-.037-.329-.162-.67-.314-.872zM221.558 426.605l-1.463.034c-.397.018-.912.054-1.316.081l-.003-.022c.364-.153.845-.349 1.217-.513l1.336-.603zm.849-1.432 1.613-.737-.254-1.122-6.268 2.924.307 1.364 6.91-.077-.243-1.08-1.765.059zM218.057 423.473l.399 1.216-1.217.394-1.137-3.449 1.22-.401.403 1.227 5.2-1.712.333 1.014zM215.404 420.035l6.232-2.61.413.983-6.234 2.613zM219.062 414.632c.338.631-.337 1.476-1.46 2.076-1.113.596-2.211.712-2.558.063-.347-.652.385-1.496 1.454-2.067 1.167-.625 2.219-.719 2.56-.083zm1.087-.544c-.652-1.216-2.268-1.409-4.233-.361-1.645.877-2.64 2.309-1.955 3.59.653 1.225 2.42 1.32 4.206.364 1.699-.908 2.644-2.354 1.985-3.586zM218.124 410.789l-5.506 3.916-.725-1.015 1.449-2.237a26.5 26.5 0 0 1 1.438-1.972l-.007-.01a41.35 41.35 0 0 1-2.254 1.706l-1.604 1.14-.567-.8 5.504-3.918.65.914-1.537 2.335a28.854 28.854 0 0 1-1.467 2.053l.017.023a74.697 74.697 0 0 1 2.382-1.757l1.657-1.179z" style="fill:#7e7e7e;stroke:none" transform="matrix(2.48726 0 0 2.48726 -335.83 -970.21)"/><path d="M225.347 435.409c0 24.921-20.202 45.124-45.121 45.124-24.921 0-45.124-20.203-45.124-45.124 0-24.92 20.203-45.12 45.124-45.12 24.919 0 45.121 20.2 45.121 45.12z" style="fill:none;stroke:none" transform="matrix(2.48726 0 0 2.48726 -335.83 -970.21)"/><path d="M196.042 393.67c.111-.361-.228-.792-.595-.904l-4.845-1.487-.288.947 4.555 1.395-1.199 3.909c-.481-.152-.958-.295-.958-.295s.678-2.207.693-2.263c-.051-.016-.999-.308-1.051-.322-.018.053-.695 2.263-.695 2.263l-.767-.237s.676-2.206.691-2.261c-.052-.02-.997-.307-1.05-.326-.017.059-.694 2.266-.694 2.266l-1.172-.362-.29.947 6.54 2.005.291-.944-.447-.139 1.281-4.192zM186.066 398.144l1.125.104.707-7.542c-.055-.005-1.069-.101-1.125-.105zM183.769 390.247c-.189-.017-.338.041-.518.202 0 0-2.413 2.236-2.624 2.434l.76.813 2.249-2.088s1.656 2.238 1.822 2.473l.897-.658c-.308-.43-2.085-2.838-2.085-2.841-.171-.22-.32-.319-.501-.335zM178.86 394.407v-.001s-4.68.456-4.738.463l.096.989 4.296-.416.221 2.28 1.128-.11a1415.8 1415.8 0 0 0-.253-2.578.69.69 0 0 0-.75-.627zM178.366 393.908c.055-.006 1.081-.104 1.124-.11l-.361-3.726-1.126.112.053.534-.879.085.093.946.878-.085.065.678s-.821.075-.877.084c.004.054.088.909.092.966l.878-.086.06.602zM176.833 391.999c-.103-1.05-1.129-1.81-2.297-1.697-1.163.113-2.025 1.057-1.923 2.106.103 1.052 1.131 1.814 2.294 1.7 1.168-.116 2.028-1.058 1.926-2.109zm-3.089.3c-.05-.509.347-.969.889-1.023.539-.05 1.021.322 1.07.832.05.512-.348.973-.889 1.023-.541.055-1.02-.319-1.07-.832zM151.68 405.087l3.468-2.923c.31-.263.334-.651.071-.965l-1.864-2.209-.865.728c.035.045.536.64.536.64l-2.784 2.344s-.499-.596-.536-.636l-.865.727 1.862 2.21a.698.698 0 0 0 .977.084zm-.823-1.655 2.761-2.329.022-.019.52.618-2.784 2.342zM151.808 407.068l2.187-1.843 1.653 1.965.866-.729-1.654-1.963 2.18-1.839-.636-.755-5.231 4.408zM210.533 401.731l-.733.898s-.761-.623-.806-.657c-.033.041-.534.657-.569.695.044.038.804.66.804.66s-.999 1.223-1.036 1.272l.882.718c.036-.047 2.305-2.825 2.34-2.872-.041-.03-.839-.681-.882-.714zM207.059 403.504c-.989-.614-2.226-.498-2.895.316-.734.901-.499 2.308.525 3.142 1.025.837 2.45.785 3.183-.112.732-.902.498-2.308-.524-3.144a3.95 3.95 0 0 0-.22-.157zm-1.748 2.698c-.539-.441-.654-1.18-.264-1.661.389-.474 1.141-.513 1.678-.073.535.438.653 1.181.263 1.66-.389.479-1.143.51-1.677.074z" style="fill:#00569f;stroke:none" transform="matrix(2.48726 0 0 2.48726 -335.83 -970.21)"/><path d="m207.097 403.379-.171-2.301-2.29.278c-.006-.057-.096-1.061-.098-1.109l2.132-.255s-.818-.668-.945-.774l.592-.727c.141.117 1.206.985 1.206.985l.459-.565c.094.078.796.654.87.712l-.457.561 1.191.975c-.033.043-.558.687-.594.728l-.979-.798.181 2.172zM160.84 398.331c.018-.053.365-1.014.382-1.067-.277-.1-3.098-1.106-3.098-1.109-.265-.084-.444-.084-.604.001-.165.092-.256.223-.315.457 0 0-.754 3.202-.769 3.259.051.01 1.05.241 1.102.252.017-.056.65-2.746.65-2.746s2.596.934 2.652.953zM162.961 395.686l-.464-.852-.752.409s-.521-.96-.548-1.007c-.049.027-.951.519-1.001.544l2.512 4.616.998-.546-1.498-2.755zM160.623 402.041l-1.141-2.099-.994.541 1.282 2.356a.7.7 0 0 0 .942.279s4.119-2.245 4.17-2.271l-.471-.867zM170.566 393.325s.772-.228.826-.246l-.277-.932-.828.247-.329-1.115-1.085.321.789 2.645-.891.264-.58-1.942c-.124-.416-.507-.613-.874-.503l-3.267.972c.014.054.266.897.28.946.057-.015 2.855-.849 2.855-.849l.505 1.699-1.073.318-.282-.945c-.052.016-1.031.307-1.082.324l.282.943-.986.293c.017.052.262.878.28.936l2.991-.889c-.712.55-1.064 1.421-.818 2.244.33 1.111 1.626 1.71 2.894 1.332 1.267-.377 2.023-1.585 1.692-2.696-.243-.822-1.013-1.359-1.911-1.436l1.346-.398-.457-1.533zm-.952 5.119c-.663.2-1.344-.121-1.519-.712-.177-.593.216-1.234.88-1.432.665-.196 1.346.125 1.521.717.176.591-.219 1.231-.882 1.427zM202.886 400.569l.472-.869-1.564-.848c.535-.119 1-.434 1.26-.921.525-.965.051-2.235-1.055-2.833a6.296 6.296 0 0 0-.235-.11l-.069-.025c-1.035-.399-2.169-.077-2.645.802-.26.487-.274 1.048-.08 1.562l-1.635-.885-.471.871 1.314.707-.38.71s-.848-.459-.903-.492l-.472.87 4.184 2.263s-.907 1.678-.935 1.726c.051.031.955.517 1.003.546l1.074-1.989a.695.695 0 0 0-.278-.938l-.218-.119.381-.709 1.252.681zm-1.352-4.61c.549.299.779.937.514 1.427-.264.494-.927.649-1.477.352-.551-.298-.779-.935-.512-1.427.264-.491.924-.649 1.475-.352zm-1.278 4.1-1.465-.792.382-.708 1.348.73.118.063z" style="fill:#00569f;stroke:none" transform="matrix(2.48726 0 0 2.48726 -335.83 -970.21)"/></svg>