<svg xmlns="http://www.w3.org/2000/svg" width="338.569" height="89.271" viewBox="0 0 338.569 89.271"><defs><linearGradient id="b" x1="0" x2="1" y1="0" y2="0" gradientTransform="matrix(16.4952 34.0784 -49.04827 23.74107 49.82 28.91)" gradientUnits="userSpaceOnUse" spreadMethod="pad"><stop offset="0" stop-color="#1a64b7"/><stop offset="1" stop-color="#40c1e6"/></linearGradient><linearGradient id="d" x1="0" x2="1" y1="0" y2="0" gradientTransform="matrix(16.496 34.08027 -30.37907 14.70453 59.435 24.258)" gradientUnits="userSpaceOnUse" spreadMethod="pad"><stop offset="0" stop-color="#1a64b7"/><stop offset="1" stop-color="#40c1e6"/></linearGradient><linearGradient id="c" x1="0" x2="1" y1="0" y2="0" gradientTransform="matrix(12.10027 25.05027 -36.0492 17.4132 26.307 33.217)" gradientUnits="userSpaceOnUse" spreadMethod="pad"><stop offset="0" stop-color="#75c128"/><stop offset="1" stop-color="#00a363"/></linearGradient><radialGradient id="a" cx="0" cy="0" r=".9" fx="0" fy="0" gradientTransform="scale(97.434 -97.434) rotate(52.618 74.516 -8.744)" gradientUnits="userSpaceOnUse" spreadMethod="pad"><stop offset="0" stop-color="#fccf34"/><stop offset=".737" stop-color="#f4731c"/><stop offset="1" stop-color="#f4731c"/></radialGradient></defs><path fill="url(#a)" d="M2267.14 6084.78c5.68-40.85-22.84-78.57-63.69-84.24-40.87-5.66-78.58 22.86-84.25 63.74-5.65 40.84 22.87 78.56 63.73 84.22 40.86 5.66 78.57-22.87 84.21-63.72" transform="matrix(.13333 0 0 -.13333 -264.7 819.895)"/><path fill="url(#b)" d="M32.535 29.527a22.26 22.26 0 0 0-2.361.084 17.878 17.878 0 0 0-3.09.55c-8.548 2.29-13.987 10.663-10.816 19.882.493-4.727 3.65-9.673 10.218-10.582.2-.025.4-.045.598-.066 9.943-1.023 15.643 7.3 15.643 16.73 0 15.33-13.062 28.866-21.266 33.146 12.865-3.88 30.033-17.505 30.033-37.98 0-12.001-7.42-21.548-18.959-21.764z"/><path fill="url(#c)" d="M16.268 18.563C7.116 25.252-1.775 39.39.307 54.949 2.225 69.273 13.842 75.137 23.49 73.7c2.227-.332 4.21-.97 5.965-1.842 7.141-3.549 10.41-11.017 10.002-17.878-.563 4.265-5.083 8.083-10.002 8.84C17.342 64.683 1.37 49.944 16.268 18.561z"/><path fill="#696566" d="M225.111 46.831c-.276-.04-1.005-.364-1.581-.782-.627-.456-2.501-2.032-3.472-3.356 1.46-2.678 2.597-6.959 2.75-8.706.062-.69-.067-1.524-1.045-1.646-.842-.106-6.645-.815-7.006-.85-.37-.034-.58.04-.68.374-.124.404.093.716.428.888.2.101.87.421 1.529.712.659.29 1.383.922 1.317 1.637-.48 5.29-2.85 12.13-8.193 18.287-.364.422-.261.814-.007 1.09.296.323.86.226 1.087.078 3.072-2.018 6.437-5.842 8.473-9.386 1.474 2.58 4.538 6.434 5.524 7.368 1.632 1.544 2.61 1.635 3.334 1.158.725-.476.928-1.368.48-2.67-.448-1.304-1.84-4.045-2.938-4.196m11.059-17.048c-.036-.19-.247-.31-.628-.362l-6.14-.762c-.228-.025-.395.122-.495.44-.102.315.014.578.344.78.382.228.882.522 1.507.876.621.356.933.928.933 1.718v30.354c0 .331.07.566.21.707.14.139.35.21.629.21h1.297c.686 0 1.259-.318 1.715-.954a3.571 3.571 0 0 0 .685-2.136v-30.47c0-.077-.018-.21-.057-.4m-34.597-.371c-.582-.084-5.43-.684-5.812-.73-.383-.045-.598.098-.698.415-.101.316 0 .595.304.78.307.187.932.524 1.526.877.596.354.914.936.914 1.718V34.2h-6.253c-1.548-2.44-4.261-4.058-7.352-4.058-4.821 0-8.725 3.931-8.725 8.778 0 4.845 3.904 8.774 8.725 8.774a8.707 8.707 0 0 0 7.257-3.905h6.348v4.29c0 .686.31.917.88.917h1.258c1.68 0 2.404-1.862 2.404-3.09V30.284c0-.452-.195-.784-.776-.872zm-17.371 15.453c-2.16 0-3.91-2.663-3.91-5.945 0-3.286 1.75-5.947 3.91-5.947 2.159 0 3.907 2.661 3.907 5.947 0 3.282-1.748 5.945-3.907 5.945zm8.49-3.93c.15-.647.235-1.322.235-2.015a8.78 8.78 0 0 0-.202-1.867h5.082v3.883h-5.114m7.873 10.07h-20.132c-.424 0-.69.162-.69.58 0 .52.373 1.056.789 1.39.56.446 1.306.882 2.192.882h13.924c.413 0 .629.264.629.64v8.323c0 .684.308.913.876.913h1.259c1.68 0 2.404-1.858 2.404-3.088V52.26c0-.665-.626-1.252-1.251-1.252m-57.923-17.214c.56.447 1.31.883 2.195.883h8.752c.561 0 .633.325.633.568 0 1.91-.325 5.13-.702 6.805-.208.916 1.093 1.324 2.596-.193.8-.808 2.877-4.035 3.226-8.202.104-1.216-.473-1.83-1.438-1.83h-15.36c-.423 0-.69.161-.69.58 0 .518.37 1.056.788 1.39"/><path fill="#696566" d="M171.393 37.695c-.56-.448-1.307-.882-2.191-.882h-2.11v-6.528c0-.452-.195-.784-.778-.872a885.77 885.77 0 0 0-5.812-.73c-.384-.045-.593.098-.695.415-.104.316 0 .595.304.78.307.187.93.524 1.527.877.592.354.913.936.913 1.718v10.59c-2.705 1.472-6.788 1.662-8.664 1.662h-2.686v-5.043c0-.545-.272-.82-.774-.883-.338-.04-4.678-.418-4.91-.434-.347-.022-.515.046-.63.352-.113.306.023.594.44.821.21.113.476.277.658.372.416.22.676.779.676 1.232v3.583h-6.484c-.424 0-.692.162-.692.58 0 .521.372 1.056.789 1.39.559.448 1.308.883 2.195.883h11.418c3.512 0 6.715-.823 8.664-2.16v3.61c0 .685.31.915.879.915h1.259c1.68 0 2.402-1.862 2.402-3.089v-7.188h4.402c.424 0 .69-.161.69-.58 0-.521-.37-1.056-.79-1.39M306.611 46.2c-.56-.447-1.312-.883-2.196-.883H276.58c-.425 0-.693.162-.693.58 0 .521.373 1.056.79 1.39.56.447 1.309.884 2.194.884h5.753v3.59h-4.588c-.426 0-.694.161-.694.58 0 .52.373 1.057.793 1.39.556.447 1.308.883 2.192.883h14.95c.414 0 .63.263.63.64v7.568c0 .684.307.913.875.913h1.26c1.68 0 2.4-1.858 2.4-3.088V53.01c0-.663-.624-1.25-1.248-1.25h-2.14v-3.589h7.654c.424 0 .688-.164.688-.58 0-.52-.368-1.057-.784-1.39zm-12.096 5.56h-5.354v-3.589h5.354v3.59m-3.07-8.487c5.58 0 10.106-3.321 10.106-7.42s-4.525-7.419-10.106-7.419c-5.58 0-10.102 3.32-10.102 7.42 0 4.098 4.523 7.42 10.102 7.42zm0-12.001c2.938 0 5.317 2.052 5.317 4.581 0 2.53-2.379 4.581-5.317 4.581-2.934 0-5.315-2.05-5.315-4.58 0-2.53 2.381-4.582 5.315-4.582m-44.547 2.907c.563.447 1.31.882 2.195.882h14.98c.558 0 .633.325.633.57 0 2.91-.653 11.26-1.212 14.435-.265 1.49 1.279 2.016 2.473-.3 2.947-5.72 3.526-11.033 3.859-15.726.087-1.215-.58-1.83-1.543-1.83h-21.482c-.423 0-.692.162-.692.58 0 .52.372 1.055.789 1.39"/><path fill="#696566" d="M272.025 57.2c-.56-.446-1.308-.882-2.195-.882h-7.885V44.242c0-.547-.274-.819-.771-.881-.339-.043-4.68-.42-4.908-.435-.352-.023-.519.047-.633.352-.116.305.024.593.44.82.208.112.474.279.656.373.418.22.677.776.677 1.231v10.616h-2.512V44.875c0-.546-.273-.82-.775-.882a472.49 472.49 0 0 0-4.908-.436c-.348-.023-.512.048-.63.353-.112.305.024.595.438.819.212.114.478.278.66.373.414.22.675.777.675 1.233v9.983h-7.328c-.424 0-.69.163-.69.581 0 .52.373 1.056.789 1.39.56.448 1.309.882 2.193.882h26.805c.424 0 .692-.162.692-.58 0-.52-.374-1.057-.79-1.39m-145.33-27.323c.304.187.93.524 1.523.877.593.354.917.936.917 1.718v6.937h-7.132c-.422 0-.692.163-.692.58 0 .52.374 1.057.79 1.39.562.449 1.308.883 2.196.883h4.838V52.99c0 .684.307.913.876.913h1.26c1.678 0 2.4-1.86 2.4-3.088v-20.53c0-.452-.192-.784-.774-.872a885.77 885.77 0 0 0-5.812-.73c-.386-.045-.595.098-.695.415-.105.316 0 .595.305.78m6.778 30.713c-.556-.448-1.307-.884-2.19-.884h-10.61c-1.028 0-2.06-.372-2.06-2.325V51.95c0-.545-.27-.817-.771-.881-.339-.043-5.785-.494-6.015-.51-.35-.022-.516.047-.632.352-.112.307.023.594.442.82.206.114 1.113.552 1.293.648.536.284.879.74.879 1.335v5.339c0 2.484 1.437 3.508 3.394 3.508h16.368c.426 0 .695-.163.695-.582 0-.518-.373-1.056-.793-1.388"/><path fill="#696566" d="m115.887 44.075-.004.015c1.614 2.245 5 6.42 7.542 6.42.98 0 1.608-.773 1.648-1.755.058-1.473-2.326-4.998-3.326-5.014-.525-.01-.894-.176-1.524-.458-.557-.248-1.642-.874-2.697-1.788a18.637 18.637 0 0 0 1.721-4.85h5.359c.887 0 1.265-.646 1.265-1.434 0-.788-.378-1.418-1.265-1.418h-4.937c.088-1.027.124-2.055.124-3.087 0-.45-.114-.795-.698-.88-.58-.085-5.43-.685-5.812-.728-.384-.047-.593.092-.696.412-.1.317 0 .595.306.78.306.187 1.032.684 1.28 1.33.245.637.405 1.434.426 2.173h-7.086c-.426 0-.691.162-.691.578 0 .52.372 1.058.79 1.391.557.448 1.307.883 2.191.883h4.55c-1.154 6.366-5.987 11.493-7.234 12.514-.385.315-.532.703-.281 1.087.37.561 1.596 1.019 6.087-2.981a21.873 21.873 0 0 0 2.962-3.19M95.225 32.473c0-.782-.322-1.364-.916-1.718-.595-.353-1.222-.69-1.526-.877-.305-.185-.408-.464-.305-.78.103-.317.312-.46.695-.415.385.046 5.233.646 5.812.73.585.088.777.42.777.872v20.53c0 1.228-.721 3.088-2.403 3.088h-1.257c-.57 0-.877-.229-.877-.913V32.473m5.03 29.507c0 .418-.266.58-.693.58h-16.81c-1.955 0-3.393-1.023-3.393-3.507v-5.339c0-.596-.341-1.05-.878-1.335-.18-.096-1.086-.534-1.295-.648-.417-.226-.553-.513-.439-.82.114-.305.28-.374.628-.352.23.016 5.678.467 6.018.51.498.064.772.336.772.881v5.432c0 1.953 1.029 2.325 2.06 2.325H97.27c.886 0 1.635.436 2.195.884.416.332.79.87.79 1.388M90.207 39.025c0 4.846-3.905 8.776-8.724 8.776-4.818 0-8.725-3.93-8.725-8.776 0-4.847 3.907-8.775 8.725-8.775 4.819 0 8.724 3.928 8.724 8.775zm-8.724-5.946c-2.158 0-3.908 2.663-3.908 5.946 0 3.284 1.75 5.946 3.908 5.946 2.159 0 3.908-2.662 3.908-5.946 0-3.283-1.75-5.946-3.908-5.946m84.21 23.618c0 3.985-4.106 7.217-9.168 7.217-5.066 0-9.17-3.232-9.17-7.217 0-3.986 4.104-7.22 9.17-7.22 5.062 0 9.168 3.234 9.168 7.22zm-9.168-4.359a4.359 4.359 0 1 0 0 8.718 4.359 4.359 0 0 0 0-8.718M337.79 29.433c-.577-.084-5.428-.683-5.81-.728-.383-.046-.595.096-.697.413-.102.317 0 .595.306.781.302.186.933.524 1.525.878.595.353.916.936.916 1.716v5.814h-7.057c-.427 0-.695.164-.695.582 0 .518.373 1.056.79 1.39.56.447 1.307.883 2.191.883h4.77v7.515c0 .685.309.916.878.916h1.259c1.68 0 2.403-1.862 2.403-3.088v-16.2c0-.452-.194-.784-.78-.872"/><path fill="#696566" d="M320.507 41.7c1.682 2.297 4.895 6.138 7.335 6.138.984 0 1.65-.77 1.65-1.755 0-1.349-2.14-4.209-2.913-4.209-.525 0-1.35-.332-1.982-.615-.568-.252-1.68-.862-2.754-1.8.53-1.077.907-2.142 1.174-3.192h5.352c.885 0 1.262-.646 1.262-1.432 0-.789-.378-1.42-1.262-1.42h-4.858c.11-1.105.14-2.178.14-3.205 0-.45-.117-.796-.698-.881a702.25 702.25 0 0 0-5.812-.73c-.384-.045-.594.096-.696.414-.103.318 0 .594.305.781.304.185 1.03.683 1.279 1.328.258.672.424 1.523.426 2.292h-6.57c-.426 0-.69.161-.69.58 0 .52.37 1.057.79 1.39.56.449 1.305.883 2.189.883h4.003c-1.2 6.052-5.92 10.192-7.155 11.203-.385.316-.533.703-.281 1.088.368.561 1.789.928 6.62-3.377 1.297-1.155 2.325-2.318 3.146-3.48m7.039 7.776c-5.063 0-9.168 3.234-9.168 7.22 0 3.985 4.105 7.217 9.168 7.217 5.065 0 9.168-3.232 9.168-7.217 0-3.986-4.103-7.22-9.168-7.22zm0 11.578a4.36 4.36 0 1 1 0-8.719 4.36 4.36 0 0 1 0 8.72"/><path fill="url(#d)" d="M38.15 23.88c-.8.02-1.61.077-2.43.175a26.008 26.008 0 0 0-8.636 2.586c-4.13 2.09-7.49 5.25-9.52 9.129 2.17-2.882 5.167-5.588 9.52-7.004 1.988-.648 4.259-1.026 6.865-1.026 12.304 0 21.553 10.202 21.553 25.66 0 4.447-.656 8.904-2.574 13.924 4.558-7.037 6.904-14.578 6.904-20.947 0-14.23-9.678-22.774-21.682-22.496z"/><path fill="#1a64b7" d="M17.565 35.77c2.169-2.881 5.165-5.59 9.518-7.005V26.64c-4.13 2.09-7.49 5.25-9.518 9.13"/><path fill="#1a64b7" d="M16.267 50.043c.494-4.726 3.652-9.673 10.22-10.582.2-.026.398-.044.596-.066V30.16c-8.548 2.291-13.986 10.666-10.816 19.884"/><path fill="#00a363" d="M39.457 53.98c-.563 4.265-5.083 8.082-10.002 8.838v9.039c7.142-3.55 10.41-11.016 10.002-17.878"/></svg>