<svg xmlns="http://www.w3.org/2000/svg" xmlns:xlink="http://www.w3.org/1999/xlink" width="762.228" height="136.219" viewBox="0 0 201.673 36.041"><defs><radialGradient xlink:href="#a" id="b" cx="119.167" cy="-654.985" r="48.668" fx="119.167" fy="-654.985" gradientTransform="matrix(-.85781 -1.02728 -1.04348 .87133 -573.651 1251.486)" gradientUnits="userSpaceOnUse"/><linearGradient id="a"><stop offset="0" stop-color="#fff"/><stop offset=".071" stop-color="#deedf2"/><stop offset=".224" stop-color="#90d6ee"/><stop offset=".359" stop-color="#2fb5e0"/><stop offset=".41" stop-color="#22add6"/><stop offset=".87" stop-color="#207846"/><stop offset=".932" stop-color="#4e8a3d" stop-opacity=".996"/><stop offset="1" stop-color="#7d9d35" stop-opacity=".996"/></linearGradient></defs><path fill="url(#b)" d="M66.708 543.454a46.167 46.167 0 0 0-46.167-46.167 46.167 46.167 0 0 0-46.166 46.167A46.167 46.167 0 0 0 20.54 589.62a46.167 46.167 0 0 0 46.167-46.167z" paint-order="stroke fill markers" transform="matrix(.35278 0 0 -.35278 9.923 208.888)"/><path fill="#3db042" d="M42.539 34.59v.133l-.264.132-.527.263-1.055.264-1.187.132-3.428.395-3.955.132-4.088-.132-3.428-.395-1.186-.132-1.055-.264-.528-.263-.131-.132-.132-.132.132-.264.131-.132.528-.263 1.055-.264 1.186-.132 3.428-.395h8.043l3.428.395 1.187.132 1.055.264.527.263.264.132z"/><path fill="#fff" d="m26.849 8.617-.791-.66-.792-.527-1.054-.527-.923-.264-1.055-.132h-2.11l-1.054.264-.264.132.264-.264.395-.66.66-.658.659-.528.79-.396.924-.263.79-.132h.924l.79.264.528.131.396-.131.263-.132.132-.264v-.264l-.132-.132-.263-.263-.396-.264-1.186-.395h-1.187l-1.055.131-1.055.396-1.054.527-1.055.66-.791.923-.792 1.054-.131.132v-.132l-.791-.922-.791-.924-.923-.659-1.055-.527-1.055-.396-1.187-.263h-1.054l-1.187.131-.396.132-.263.264v.791l.263.132.264.132h.395l.792-.132.79.132.924.132.79.263.792.396.66.396.658.659.66.659.132.264-.264-.132-1.055-.264-1.055-.132-.923-.132-1.054.132-1.055.264-.923.395-.923.528-.791.66-.132.13-.132.265-.132.263.132.264.132.264.264.263h.659l.264-.263.79-.528.924-.527.923-.264.922-.132h1.055l.923.132.923.264.923.527.132.132h-.132l-.395.264-.264.395-.132.264-.132.396.132.527.264.527.395.264.396.264.395.132h.923l.396-.132.395-.264.396-.132.264-.527.131-.528v-.395l-.263-.396-.264-.263-.264-.264-.132-.132h.132l.791-.527 1.055-.264.923-.132h1.055l.923.132.923.396.79.527.792.66.264.131.395.132.264-.132.264-.132.263-.263v-.66z"/><path fill="#b3d82b" d="m32.914 21.538-.132-.923-.264-.923-.395-.923-.396-.791-.66-.66-.658-.658-.66-.528-.923-.527.264-.923v-1.846l-.264-.923-.263-.923-.396-.791-.527-.791-.791-.791-.264-.132-.264-.132-.395-.132-.264.132-.264.264v.923l.264.263.791 1.055.396.527.263.66.132.79.132.792-.132.791-.132.791-.263-.527-.264-.396-.527-.264h-.528l-.79.132-.528.528-.396.527-.132.791.132.66.396.659.527.263.66.132.527-.132-.132.132-.923.791-.923.528-1.055.395-1.186.132-1.055-.132-1.055-.263-1.055-.528-.923-.659-.264-.132-.395-.132-.264.132-.263.132-.264.264v.791l.264.263 1.054.923 1.319.528 1.318.395 1.45.132 1.32-.132 1.318-.395 1.318-.528 1.187-.923.527.528.528.527.395.66.264.79.263 1.056.132 1.186-.263 1.055-.264.923-.527.923-.791.923-.792.659-1.054.527-.264.132-.264.264v.527l.132.396.132.132.395.263h.264l.264-.131 1.318-.66 1.187-.79.923-1.188.66-1.186.527-1.319.131-1.45v-1.45l-.395-1.45-.396-.924-.527-.79-.66-.792-.659-.659.396-.66.527.396.528.396.527.527.396.528.395.527.264.66.132.659.132.79.132.396.263.132.264.132h.395l.264-.132.264-.264.132-.263z"/><path fill="#323c80" d="m7.599 8.221.132-.132z"/><path fill="#324084" d="m16.96 17.714-.264.132-.263.132-.791.527-.923.528-.923.263H11.95l-.923-.263-.923-.264-.791-.527h.79l.66-.132.396-.528.132-.263.131-.396v-.79l-.395-.66-.528-.528-.79-.395-.792-.132-.659.264-.527.395-.132.396V16l-.396-.923-.132-.79v-.924l.132-.923.264-.923.264-.79.527-.792.527-.659-.131.132-.264.263h-.66l-.264-.263-.132-.264-.132-.264.132-.263.132-.264.132-.132-.791.923-.66.923-.395 1.055-.396 1.186-.132 1.187.132 1.319L5.621 16l.395 1.055-.659.132-.659.132-.66.395-.527.396-.527.659-.527.66-.396.79-.396.792v.131l-.131.264.131.396.132.263.264.264h.659l.264-.264.264-.132.132-.263.395-1.187.66-.923.395-.264.264-.263.395-.132h.396l.659.132.527.395.396.528.395.66.396.922.132.923.132 1.055v1.318l.132 1.45.131 1.45.396 1.32.527 1.054.66.923.79.66.792.527.923.132h.395l.264-.264.264-.264v-.659l-.264-.264-.264-.263h-.264l-.659-.132-.527-.396-.396-.527-.395-.66-.264-.923-.264-.923-.131-1.054v-2.373l-.132-1.055-.264-1.055-.264-1.055.923.395 1.055.264h2.11l.923-.264 1.054-.395.923-.396.923-.659v-.132l.264-.263v-.791l-.264-.264-.264-.132z"/><path fill="#231f20" d="M52.653 16.856h6.593V4.198h2.637v6.197h1.582V4.198h2.637V23.58h-2.637V12.768h-1.582V23.58h-2.637v-4.351h-7.647l-.66-.132-.395-.132-.264-.264-.132-.263-.132-.66V4.198h7.78v2.373h-5.143zm33.754-3.692v2.373h-7.78v8.175h-2.636v-8.175h-7.12v-2.373h13.976V6.439H69.53V4.2h15.954v8.965zm16.085-.924V4.199h2.637v2.637h2.374v2.373h-2.374v5.406h-2.241l.66.792.527.922.395 1.055.132 1.186-.132 1.187-.395 1.187-.528 1.055-.79.923-.924.79-1.055.66-1.054.264-1.319.132-1.187-.132-1.186-.264-.923-.66-.923-.79-.791-.923-.528-1.055-.395-1.187-.132-1.187.132-1.186.264-1.055.527-.922.66-.792h-5.407v-2.373h2.505V8.813h2.637v3.428h3.033V6.439h-7.384V4.2h10.02v8.042h3.165m-6.46 3.692-.396.527-.395.66-.132.658v1.451l.132.66.395.658.396.528.527.527.528.396.659.132.659.131h.66l.659-.263.527-.396.66-.527.395-.528.263-.659.264-.66V17.78l-.264-.66-.263-.659-.396-.527-.66-.527-.526-.264-.66-.264h-1.319l-.658.264-.528.264zm21.755-11.077.66.791.527.923.263 1.055.132 1.055-.132 1.055-.263 1.054-.528.923-.659.792-.79.659-.792.396-.923.263-.923.132-1.055-.132-.791-.263-.923-.396-.791-.66-.659-.79-.528-.924-.263-1.054-.132-1.055.132-1.055.263-1.055.528-.923.659-.79.791-.66.923-.395.791-.264 1.055-.132.923.132.923.264.791.395.791.66m-5.142 1.845-.264.396-.264.527-.131.528v1.054l.131.528.264.527.264.396.396.395.395.264.396.132h.922l.528-.132.396-.264.263-.395.396-.396.263-.527.133-.528V8.154l-.133-.528-.263-.527-.396-.396-.263-.395-.396-.264-.528-.132h-.922l-.396.132-.395.264-.396.395m10.68-1.055v-1.45h2.637v9.362h-2.637v-1.715h-3.165V9.472h3.165v-1.45h-3.165V5.648h3.165m2.637 17.932h-2.637v-5.538h-12.526V15.67h15.163zm8.965-19.382v3.033l.132 2.505.396 2.24.527 1.715.528 1.187.79.923.792.66.527.131.528.132v2.768l-.923-.131-.791-.264-.792-.528-.79-.527-.66-.79-.66-.924-.526-1.055-.528-1.186-.395 1.186-.66 1.055-.659.923-.791.791-.66.527-.79.396-.792.396-.79.131v-2.636l.922-.396.923-.659.791-.923.528-1.187.527-1.714.396-2.241.132-2.505.132-3.033h2.636m6.725 0h2.637v19.646h-2.637zm22.942 15.954v2.373H147.32v-2.373h2.505v-8.175h2.637v8.175h2.638v-8.175h2.636v8.175h2.77V6.967h-12.13V4.594h14.766v15.558zm18.195-3.428v6.856h-2.637v-4.483h-13.449v-2.373h2.9v-2.637h-3.56v-2.374h4.484l-.528-.79-.527-.792-.264-1.054-.132-.923.132-1.187.396-1.055.527-.923.791-.79.791-.66.923-.396 1.055-.263 1.055-.132 1.055.132.923.263.923.396.79.66.792.79.527.923.396 1.055v2.241l-.396.923-.395.923-.66.66h4.615v2.373h-3.428v2.637h2.9M172.637 5.912l-.395.527-.264.528-.132.66v1.186l.132.659.264.527.395.528.528.395.395.264.66.132.527.132.527-.132.528-.132.395-.264.396-.395.395-.528.264-.527.264-.66V7.627l-.264-.66-.264-.527-.395-.527-.396-.395-.395-.264-.528-.132h-1.056l-.659.132-.395.264-.528.395m4.615 10.812v-2.637h-5.01v2.637zm14.372-4.748-.791-.66-.528-.79-.527.66-.528.526-.659.528-.791.527-1.318.396-1.319.132V10.79l.923-.131.791-.264.66-.396.527-.395.395-.527.264-.528.132-.66.131-.658h-3.823V4.989h3.823V3.011h2.638V4.99h3.691v2.242h-3.691l.131.79.132.528.264.528.396.527.527.395.66.396.79.264.923.131v1.978l.923.132.923.396.923.66.791.658.66.923.395.923.396 1.055v2.505l-.396 1.187-.527 1.054-.792.924-.923.659-.923.527-1.054.264-1.055.132-1.187-.132-1.054-.264-.923-.527-.791-.66-.792-.923-.527-1.054-.396-1.187-.132-1.319.132-1.054.264-.923.396-.923.527-.791.528-.791.659-.528.79-.395.924-.396-.791-.395-.791-.528m1.055 4.22-.528.527-.264.659-.132.66-.131.658.131.791.132.66.264.527.528.528.395.527.527.264.528.132.659.131.527-.131.528-.132.527-.264.527-.527.396-.528.264-.527.263-.66v-1.451l-.263-.659-.264-.66-.396-.526-.527-.396-.527-.264-.528-.264h-1.187l-.527.264-.527.264-.395.396m5.933-8.835V4.198h2.637v9.23h-2.637V9.735h-2.506V7.362zM53.236 30.852c.428.442.642.974.642 1.596 0 .623-.214 1.157-.642 1.603-.428.447-.997.67-1.708.67H49.59V30.2l1.937-.006c.71-.004 1.28.215 1.708.657m-.805 2.64c.249-.271.373-.619.373-1.044 0-.424-.124-.768-.373-1.03-.25-.261-.596-.392-1.041-.392h-.79v2.87h.79c.445 0 .792-.134 1.04-.404zm5.147 1.219-.435-.979h-2.096l-.428.98h-1.044l1.973-4.514h1.095l1.987 4.513h-1.052m-1.472-3.393-.689 1.578h1.364zm2.719 3.386v-4.506h3.649l.007.824h-2.648v.972l2.51.007v.81h-2.51v1.076h2.698l.008.824-3.714-.007zm7.439.007-.007-.374c-.126.12-.297.232-.515.335a1.729 1.729 0 0 1-.747.154c-.711 0-1.281-.223-1.712-.67-.43-.446-.645-1.018-.645-1.718s.21-1.268.63-1.706c.421-.438.997-.657 1.727-.657.691 0 1.218.18 1.581.538.362.358.588.712.675 1.059l-1.081-.006c-.063-.168-.186-.336-.37-.506-.184-.17-.442-.254-.776-.254-.426 0-.754.143-.986.428-.233.285-.349.654-.349 1.104 0 .455.116.83.349 1.123.232.295.56.441.986.441.363 0 .636-.108.82-.325a1.99 1.99 0 0 0 .377-.62h-1.19v-.767h2.234v2.427l-1-.006zm5.525-1.46c0 .467-.184.848-.551 1.142-.368.295-.861.441-1.48.441-.624 0-1.115-.146-1.472-.44a1.41 1.41 0 0 1-.537-1.144l.007-3.076h1.023v2.864c0 .224.051.44.156.65.104.21.378.316.823.316.45 0 .729-.105.838-.315.108-.21.163-.427.163-.65l-.007-2.865h1.037v3.076zm7.17 1.47.008-2.505-.9 2.498h-1.095l-.885-2.446v2.44l-.993.006v-4.532l1.138.006 1.284 3.322 1.262-3.322 1.19-.006v4.545l-1.009-.007zm1.56-.017v-4.506h3.648l.007.824h-2.647v.972l2.51.007v.81h-2.51v1.076h2.698l.007.824-3.713-.007zm6.557-3.688v3.701h-1.016l.008-3.714H84.5v-.805h4.134v.818zM92 34.716l-1.386-1.7h-.631v1.7l-1.008-.006v-4.506l2.125-.007c.488 0 .906.132 1.255.396.348.264.522.589.522.975 0 .31-.105.59-.316.844-.21.253-.465.422-.765.508l1.458 1.796h-1.255m-.446-2.697a.508.508 0 0 0 .25-.45.432.432 0 0 0-.25-.413 1.292 1.292 0 0 0-.598-.128h-.972v1.152h.972c.232 0 .431-.054.598-.16z"/><path fill="#231f20" d="M97.102 30.74c.432.437.649 1.006.649 1.705 0 .704-.217 1.278-.65 1.722-.432.444-1.009.666-1.73.666-.72 0-1.294-.222-1.722-.666-.428-.444-.642-1.018-.642-1.722 0-.7.214-1.268.642-1.706.428-.437 1.002-.656 1.723-.656.72 0 1.297.219 1.73.656m-.755 2.83c.24-.294.36-.669.36-1.124 0-.45-.12-.82-.36-1.107-.239-.288-.564-.431-.975-.431-.411 0-.732.143-.961.431-.23.287-.345.657-.345 1.107 0 .455.115.83.345 1.124.23.294.55.44.96.44.412 0 .737-.146.976-.44zm5.045-2.944c.348.286.522.626.522 1.02 0 .4-.174.746-.522 1.037a1.892 1.892 0 0 1-1.255.438h-1.125v1.603h-1.008v-4.52l2.133-.006c.488 0 .906.143 1.255.428m-.794 1.526c.186-.097.279-.265.279-.505 0-.228-.093-.388-.28-.48a1.295 1.295 0 0 0-.584-.138h-1v1.268h1c.204 0 .398-.048.585-.145z"/><path fill="#231f20" d="M105.935 30.74c.433.437.65 1.006.65 1.705 0 .704-.217 1.278-.65 1.722-.432.444-1.009.666-1.73.666-.72 0-1.294-.222-1.722-.666-.428-.444-.642-1.018-.642-1.722 0-.7.214-1.268.642-1.706.428-.437 1.002-.656 1.723-.656.72 0 1.297.219 1.73.656m-.755 2.83c.24-.294.36-.669.36-1.124 0-.45-.12-.82-.36-1.107-.24-.288-.564-.431-.975-.431-.411 0-.732.143-.961.431-.23.287-.345.657-.345 1.107 0 .455.115.83.345 1.124.23.294.55.44.96.44.412 0 .737-.146.976-.44zm1.658 1.136v-4.532h1.022v3.714l2.481.006.007.818-3.51-.006zm3.829 0v-4.532h1.008l.008 4.538-1.016-.006zm3.909-3.69v3.701h-1.015l.008-3.714h-1.567v-.805h4.134v.818h-1.56zm4.781 3.695-.435-.979h-2.097l-.427.98h-1.045l1.973-4.514h1.095l1.988 4.513h-1.052m-1.472-3.393-.69 1.578h1.364zm5.634 3.401-1.907-3.078v3.084h-1.008v-4.545l1.138-.006 1.937 3.083V30.18h1.001v4.532l-1.16.007zm8.258-3.978c.433.437.649 1.006.649 1.705 0 .704-.216 1.278-.65 1.722-.432.444-1.008.666-1.729.666-.72 0-1.295-.222-1.722-.666-.429-.444-.643-1.018-.643-1.722 0-.7.214-1.268.643-1.706.427-.437 1.001-.656 1.722-.656.72 0 1.297.219 1.73.656m-.755 2.83c.24-.294.36-.669.36-1.124 0-.45-.12-.82-.36-1.107-.239-.288-.564-.431-.975-.431-.411 0-.731.143-.961.431-.23.287-.345.657-.345 1.107 0 .455.115.83.345 1.124.23.294.55.44.961.44.41 0 .736-.146.975-.44zm2.666-2.548v1.024l2.3.006v.83h-2.3v1.835h-1.008v-4.519h3.641v.824h-2.633zm4.026 0v1.024l2.299.006v.83h-2.3v1.835h-1.008v-4.519h3.64v.824h-2.631zm3.017 3.684v-4.532h1.008l.007 4.538-1.015-.006zm5.928-1.584c-.092.39-.325.774-.7 1.15-.375.375-.9.562-1.578.562-.73 0-1.305-.222-1.725-.666-.421-.444-.632-1.018-.632-1.722 0-.7.21-1.268.632-1.706.42-.437.995-.656 1.725-.656.716 0 1.254.19 1.614.57.36.38.577.74.65 1.084l-1.074-.006a1.37 1.37 0 0 0-.356-.554c-.179-.18-.444-.27-.797-.27-.416 0-.744.14-.983.421-.24.281-.359.654-.359 1.117 0 .464.12.84.36 1.13.238.29.566.434.982.434.338 0 .603-.096.794-.29.191-.192.32-.39.388-.592l1.059-.006zm.338 1.582v-4.506h3.648l.008.824h-2.648v.972l2.51.007v.81h-2.51v1.076h2.698l.007.824-3.713-.007zm10.622-3.963c.433.437.649 1.006.649 1.705 0 .704-.216 1.278-.65 1.722-.432.444-1.008.666-1.729.666-.72 0-1.295-.222-1.723-.666-.428-.444-.642-1.018-.642-1.722 0-.7.214-1.268.642-1.706.428-.437 1.003-.656 1.723-.656.72 0 1.297.219 1.73.656m-.754 2.83c.239-.294.359-.669.359-1.124 0-.45-.12-.82-.36-1.107-.239-.288-.564-.431-.975-.431-.411 0-.732.143-.961.431-.23.287-.345.657-.345 1.107 0 .455.115.83.345 1.124.23.294.55.44.961.44.411 0 .736-.146.976-.44zm2.664-2.548v1.024l2.3.006v.83h-2.3v1.835h-1.007v-4.519h3.641v.824h-2.633zm5.774 3.682v-4.506h3.65l.006.824h-2.647v.972l2.509.007v.81h-2.51v1.076h2.699l.007.824-3.714-.007zm7.736-3.851c.428.442.641.974.641 1.596 0 .623-.213 1.157-.641 1.603-.428.447-.998.67-1.709.67h-1.936V30.2l1.936-.006c.711-.004 1.28.215 1.709.657m-.805 2.64c.249-.271.373-.619.373-1.044 0-.424-.124-.768-.373-1.03-.25-.261-.596-.392-1.041-.392h-.79v2.87h.79c.445 0 .792-.134 1.04-.404zm5.772-.241c0 .467-.184.848-.551 1.142-.367.295-.861.441-1.48.441-.624 0-1.115-.146-1.472-.44a1.41 1.41 0 0 1-.537-1.144l.007-3.076h1.023v2.864c0 .224.052.44.156.65.104.21.378.316.823.316.45 0 .729-.105.838-.315a1.4 1.4 0 0 0 .163-.65l-.007-2.865h1.037v3.076zm4.889-.129c-.092.39-.326.774-.7 1.15-.375.375-.902.562-1.578.562-.73 0-1.305-.222-1.726-.666-.421-.444-.631-1.018-.631-1.722 0-.7.21-1.268.63-1.706.422-.437.997-.656 1.727-.656.716 0 1.254.19 1.614.57.36.38.576.74.65 1.084l-1.074-.006a1.368 1.368 0 0 0-.356-.554c-.179-.18-.445-.27-.797-.27-.417 0-.744.14-.983.421-.24.281-.36.654-.36 1.117 0 .464.12.84.36 1.13.239.29.566.434.983.434.338 0 .603-.096.794-.29.19-.192.32-.39.388-.592l1.059-.006zm3.711 1.589-.435-.979h-2.096l-.428.98h-1.045l1.973-4.514h1.095l1.988 4.513h-1.052m-1.472-3.393-.69 1.578h1.365zm4.295-.302v3.701h-1.015l.006-3.714h-1.566v-.805h4.134v.818h-1.56zm1.9 3.69v-4.532h1.008l.007 4.538-1.015-.006zm5.363-3.965c.433.437.65 1.006.65 1.705 0 .704-.217 1.278-.65 1.722-.433.444-1.01.666-1.73.666s-1.294-.222-1.722-.666c-.428-.444-.642-1.018-.642-1.722 0-.7.214-1.268.642-1.706.428-.437 1.002-.656 1.723-.656.72 0 1.296.219 1.73.656m-.755 2.83c.239-.294.36-.669.36-1.124 0-.45-.121-.82-.36-1.107-.24-.288-.565-.431-.975-.431-.411 0-.732.143-.962.431-.23.287-.344.657-.344 1.107 0 .455.114.83.344 1.124.23.294.55.44.962.44.41 0 .736-.146.975-.44zm4.573 1.149-1.907-3.078v3.084h-1.01v-4.545l1.14-.006 1.936 3.083V30.18h1.002v4.532l-1.161.007z"/></svg>