<svg xmlns="http://www.w3.org/2000/svg" xmlns:xlink="http://www.w3.org/1999/xlink" width="705.267" height="223.293" viewBox="0 0 705.267 223.293"><defs><linearGradient id="a"><stop offset="0" stop-color="#fff" stop-opacity="0"/><stop offset="1" stop-color="#fff" stop-opacity=".28"/></linearGradient><linearGradient xlink:href="#a" id="c" x1="87.563" x2="87.544" y1="-115.842" y2="-131.893" gradientUnits="userSpaceOnUse"/><radialGradient id="b" cx="0" cy="0" r="1" fx="0" fy="0" gradientTransform="matrix(109.534 0 0 -109.534 104.72 117.868)" gradientUnits="userSpaceOnUse"><stop offset="0" stop-color="#b2e6fa"/><stop offset=".2" stop-color="#33bdf2"/><stop offset=".8" stop-color="#1959a6"/><stop offset="1" stop-color="#33bdf2"/></radialGradient></defs><g transform="matrix(1.33333 0 0 -1.33333 0 223.293)"><path fill="#33bdf2" d="M30.843 41.723C19.08 55.34 13.743 72.728 15.966 90.395c2.565 17.712 11.448 30.753 23.03 39.852 11.728 9.027 25.021 13.581 40.132 13.653 19.431-.225 36.288-7.578 49.032-22.239 1.224-1.485 2.457-2.916 3.546-4.554 4.797-6.894 8.343-14.688 10.089-23.93.171-.955.324-1.828.441-2.809.756-5.625.756-11.025-.045-16.605-4.617-29.403-30.339-53.379-63.036-53.766-19.557.189-36.414 8.388-48.312 21.726m20.583 25.245c-4.086-2.052-7.02-3.618-8.523-5.274-.585-.81-1.287-2.322-.288-4.212.09-.171 8.64-11.754 9.162-11.853 1.053-.333 1.854.378 2.394 2.106 1.602 3.88 4.95 6.831 7.884 9.765 6.12 6.12 11.178 11.853 15.3 18.108 6.94-7.947 19.521-22.518 19.521-22.518 2.934-3.51 5.409-5.75 7.416-6.732.936-.342 2.592-.594 4.122.89.144.136 8.919 11.548 8.865 12.088.027 1.098-.864 1.674-2.682 1.72-6.397.397-14.05 6.426-23.893 16.199 11.424 3.357 20.391 11.542 23.959 21.83 5.291 4.948 8.092 9.608 7.404 13.189-.529 2.735-3.028 4.525-6.991 5.393-4.285 14.351-18.983 24.801-36.299 24.55-20.484-.279-36.873-15.435-36.621-33.822a30.294 30.294 0 0 1 2.892-12.494c-10.947-7.439-17.51-15.06-16.5-20.347 1.182-6.085 14.218-7.493 29.449-4.476a41.094 41.094 0 0 0-6.57-4.11m-5.599 10.935c-.563 2.487 1.365 5.83 5.077 9.445 3.816-4.044 8.686-7.252 14.229-9.286-1.07-1.33-2.22-2.6-3.452-3.799a42.419 42.419 0 0 0-4.014-.191c-5.866 0-11.258 1.245-11.84 3.831"/><path fill="url(#b)" d="M30.843 41.723C19.08 55.34 13.743 72.728 15.966 90.395c2.565 17.712 11.448 30.753 23.03 39.852 11.728 9.027 25.021 13.581 40.132 13.653 19.431-.225 36.288-7.578 49.032-22.239 1.224-1.485 2.457-2.916 3.546-4.554 4.797-6.894 8.343-14.688 10.089-23.93.171-.955.324-1.828.441-2.809.756-5.625.756-11.025-.045-16.605-4.617-29.403-30.339-53.379-63.036-53.766-19.557.189-36.414 8.388-48.312 21.726"/><path fill="#145194" d="M187.132 114.163c.264-.973.799-2.129.799-3.453V77.688h4.09v36.475zm179.146 0c.258-.928.75-2.036.75-3.3V77.688h4.19v36.475zm34.585 0c.256-.928.752-2.036.752-3.3v-.685h-.018v-32.49h4.184v36.475zm106.823 0c.268-.973.796-2.129.796-3.453v-6.946h-7.52v-3.195h7.52v-8.203h4.177v21.797zm-212.86-.053c.265-.97.79-2.123.79-3.447v-1.356h-7.427v3.795h-4.98c.27-.978.793-2.127.793-3.457v-1.956h-9.764v5.414h-4.98c.267-.978.798-2.127.798-3.457V99.44c0-.648.09-1.195.28-1.636.185-.453.424-.806.725-1.074a2.76 2.76 0 0 1 .999-.592 3.619 3.619 0 0 1 1.129-.178h15v3.597h7.427V94.71h4.186v19.401zm34.937 0c.27-.97.797-2.123.797-3.447V77.688h4.176v19.81h5.91v3.199h-5.91v13.413zm133.504-.592c-1.605 0-3.128-.148-4.558-.461-1.441-.306-2.696-.767-3.786-1.378-1.09-.606-1.935-1.358-2.572-2.258-.619-.91-.939-1.971-.939-3.184 0-1.211.32-2.274.94-3.175.636-.904 1.481-1.657 2.571-2.264 1.09-.604 2.345-1.064 3.786-1.373 1.43-.308 2.953-.457 4.558-.457 1.613 0 3.13.149 4.587.457 1.447.309 2.704.769 3.772 1.373 1.075.607 1.922 1.36 2.563 2.264.621.901.94 1.964.94 3.175 0 1.213-.319 2.274-.94 3.184-.641.9-1.488 1.652-2.563 2.258-1.068.61-2.325 1.072-3.772 1.378-1.457.313-2.974.461-4.587.461zm26.326-.063c.27-.96.799-2.116.799-3.442v-.344h-7.716v-3.194h7.678c-.055-1.265-.318-2.433-.783-3.498a11.697 11.697 0 0 0-1.872-2.93c-.78-.888-1.715-1.695-2.795-2.431a22.702 22.702 0 0 0-3.597-1.94l2.087-3.035c1.05.409 2.056.89 3.032 1.464a19.32 19.32 0 0 1 2.745 1.894 17.104 17.104 0 0 1 2.26 2.301 11.827 11.827 0 0 1 1.613 2.673c.38-.806.887-1.583 1.524-2.321a18.418 18.418 0 0 1 2.152-2.085 19.66 19.66 0 0 1 2.532-1.762c.897-.52 1.777-.96 2.634-1.31l1.806 2.707a14.46 14.46 0 0 0-3.206 1.719 16.222 16.222 0 0 0-2.742 2.406 13.114 13.114 0 0 0-1.987 2.894 8.464 8.464 0 0 0-.903 3.254h7.83v3.194h-7.904v3.786zm-310.062-.023c.264-.968.797-2.12.797-3.448v-8.079h-5.468v-3.193h5.468V78.456h4.097v34.975zm57.58-.33c.27-.978.794-2.127.794-3.457v-8.12c0-1.1.274-1.91.803-2.422.542-.51 1.232-.77 2.093-.77h21.466v3.033H243.26c-.379 0-.652.066-.832.2-.17.142-.258.402-.258.812v1.902h19.456v2.953H242.17v2.746h19.86v3.123zm111.765-.013c.27-.973.792-2.121.792-3.448v-1.068h-7.798v-3.187h7.756c0-3.508-.76-7.621-2.287-10.414-1.533-2.79-3.912-5.143-7.154-7.06.426-.507.848-1.026 1.264-1.528.412-.522.848-1.026 1.305-1.541 2.307 1.425 4.251 3.035 5.845 4.832 1.596 1.791 2.827 3.911 3.681 6.36a12.26 12.26 0 0 1 1.354-2.961 19.275 19.275 0 0 1 2.09-2.836 25.084 25.084 0 0 1 2.55-2.543 25.302 25.302 0 0 1 2.773-2.13c.375.46.724.914 1.062 1.36.338.444.692.89 1.06 1.356a20.903 20.903 0 0 0-3.69 3.023 19.97 19.97 0 0 0-2.9 3.809 18.778 18.778 0 0 0-1.867 4.409c-.447 1.554-.656 4.155-.656 5.864h8.195v3.187h-8.195v4.517zm-148.913-.38v-3.196h10.853c-.21-.968-.709-1.85-1.509-2.67a12.129 12.129 0 0 0-2.875-2.137 20.296 20.296 0 0 0-3.733-1.578 24.381 24.381 0 0 0-4.1-.934l1.163-3.159a26.18 26.18 0 0 1 4.464.938c1.418.432 2.727.957 3.939 1.578a17.505 17.505 0 0 1 3.175 2.06c.915.755 1.633 1.564 2.168 2.43.535-.866 1.275-1.675 2.212-2.43a18.931 18.931 0 0 1 3.18-2.044 26.914 26.914 0 0 1 3.734-1.576 23.23 23.23 0 0 1 3.897-.956l1.128 2.836c-1.233.19-2.513.51-3.841.972a21.976 21.976 0 0 0-3.72 1.678 12.96 12.96 0 0 0-2.952 2.263c-.82.848-1.336 1.761-1.547 2.73h10.932v3.196zm183.225-1.581c.27-.975.8-2.12.8-3.446v-1.457h.006v-.84c0-3.371-.776-6.445-2.338-9.222-1.557-2.777-3.922-5.168-7.11-7.162l2.416-3.028c2.274 1.374 4.243 3.01 5.907 4.893a18.31 18.31 0 0 1 3.698 6.473c.326-.976.787-1.969 1.406-2.976a21.832 21.832 0 0 1 2.11-2.915 27.117 27.117 0 0 1 2.547-2.605c.916-.812 1.828-1.473 2.733-1.985l2.017 2.709a20.512 20.512 0 0 0-3.705 2.967 19.617 19.617 0 0 0-2.834 3.693c-.793 1.33-1.397 2.776-1.835 4.342a19.366 19.366 0 0 0-.636 5.014v5.545zm-217.255-.13c.276-1.003.83-2.188.83-3.565v-1.103h-.015v-.668a26.22 26.22 0 0 0-.41-4.689 17.113 17.113 0 0 0-1.34-4.243 17.592 17.592 0 0 0-2.435-3.806c-.992-1.183-2.215-2.289-3.66-3.31l2.532-2.709c.907.62 1.778 1.303 2.611 2.079.83.77 1.579 1.578 2.236 2.425.656.85 1.221 1.71 1.703 2.586.488.887.848 1.75 1.087 2.609.24-.889.598-1.771 1.086-2.644a18.707 18.707 0 0 1 1.65-2.512 22.093 22.093 0 0 1 1.947-2.195 15.635 15.635 0 0 1 1.991-1.708l2.29 2.47c-2.463 1.695-4.25 3.9-5.368 6.612-1.113 2.711-1.667 5.74-1.667 9.084v5.288zm250.611-.037v-3.185h18.898c.433 0 .73-.084.903-.228.178-.151.266-.442.266-.873V91.629h4.18v16.26c0 .993-.222 1.755-.687 2.29-.457.514-1.208.782-2.249.782zm-110.433-.281v-3.197h7.64v-2.304c0-3.454-.76-6.528-2.272-9.22-1.504-2.699-3.876-5.027-7.1-6.996l2.339-3.03c2.309 1.369 4.292 2.96 5.949 4.769a17.293 17.293 0 0 1 3.694 6.27c.328-.938.808-1.907 1.457-2.9a24.901 24.901 0 0 1 2.183-2.847 24.08 24.08 0 0 1 2.64-2.521 19.677 19.677 0 0 1 2.771-1.928l1.93 2.672a21.81 21.81 0 0 0-3.718 2.966 19.703 19.703 0 0 0-2.876 3.686 17.61 17.61 0 0 0-1.852 4.331c-.422 1.547-.637 3.199-.637 4.955v2.097h7.59v3.197zm157.156-.474c.965 0 1.896-.073 2.794-.222.902-.156 1.698-.377 2.392-.687.697-.317 1.265-.712 1.689-1.212.426-.504.65-1.121.65-1.848 0-.726-.224-1.342-.65-1.84-.424-.494-.992-.899-1.69-1.212a9.455 9.455 0 0 0-2.391-.684 17.036 17.036 0 0 0-2.794-.225c-.934 0-1.862.076-2.768.225a9.56 9.56 0 0 0-2.416.684c-.699.313-1.265.718-1.687 1.212-.432.498-.645 1.114-.645 1.84 0 .727.213 1.344.645 1.848.422.5.988.895 1.687 1.212.7.31 1.5.53 2.416.687.906.149 1.834.222 2.768.222zm-175.078-3.972h7.427v-3.602h-7.427zm-13.951-1.743h9.764v-5.415h-8.717c-.38 0-.65.067-.808.216-.166.156-.24.415-.24.794zm-63.065-3.428v-5.299h-15.23V92.57h34.572v3.194h-15.154v5.299zm209.598-2.56V86.615h-9.406v-3.199h34.574v3.2h-12.625v11.847h-4.143V86.616h-4.26v11.886zm25.174-2.211v-3.2h9.806v-4.445h-5.39v-3.07h19.584c.508 0 .823-.098.958-.282.137-.191.204-.505.204-.934V76.2h4.18v9.337c0 1.077-.272 1.867-.805 2.365-.535.488-1.484.744-2.856.744h-.919v4.446h9.801v3.199zM232.72 94.81v-3.035h34.532v3.035zm227.168-1.718h6.684v-4.446h-6.684zM276.086 92.4v-3.195h18.685c.566 0 .845-.247.845-.73V86.01h-19.53v-6.551c0-1.023.263-1.797.802-2.32.53-.527 1.285-.793 2.248-.793h20.885v3.195h-18.715c-.371 0-.645.067-.802.204-.164.133-.241.393-.241.766v2.34h19.54v7.401c0 .625-.157 1.133-.462 1.547-.308.4-.844.602-1.592.602zm225.515-.814c-1.678 0-3.21-.194-4.58-.58-1.367-.395-2.54-.934-3.517-1.619-.976-.684-1.73-1.504-2.251-2.443a6.45 6.45 0 0 1-.782-3.11c0-1.141.27-2.18.782-3.14.522-.956 1.275-1.784 2.251-2.485.977-.701 2.15-1.252 3.517-1.64 1.37-.391 2.902-.58 4.58-.58 1.699 0 3.229.189 4.604.58 1.382.388 2.566.939 3.545 1.64.974.7 1.732 1.53 2.271 2.484.527.961.81 2 .81 3.14a6.297 6.297 0 0 1-.81 3.11c-.539.94-1.297 1.76-2.271 2.444-.98.685-2.163 1.224-3.545 1.619-1.375.386-2.905.58-4.604.58zm-288.336-1.05c-1.766 0-3.365-.183-4.805-.578-1.42-.392-2.652-.925-3.656-1.614-1.003-.686-1.781-1.49-2.323-2.39a5.452 5.452 0 0 1-.828-2.929c0-1.057.272-2.034.828-2.946.542-.925 1.32-1.722 2.323-2.408 1.004-.69 2.235-1.235 3.656-1.638 1.44-.404 3.04-.609 4.805-.609 1.797 0 3.41.205 4.84.61 1.439.402 2.657.948 3.67 1.637 1.001.686 1.773 1.483 2.326 2.408a5.64 5.64 0 0 1 .824 2.946c0 1.055-.28 2.03-.824 2.928-.553.9-1.325 1.705-2.327 2.391-1.012.69-2.23 1.222-3.669 1.614-1.43.395-3.043.579-4.84.579zm288.38-2.185c2.17 0 3.884-.416 5.126-1.252 1.242-.832 1.867-1.937 1.867-3.308 0-.648-.156-1.25-.478-1.801-.319-.555-.783-1.033-1.388-1.46-.605-.41-1.343-.739-2.212-.963-.871-.239-1.84-.349-2.915-.349-1.072 0-2.042.11-2.911.349-.877.224-1.607.554-2.216.962-.598.428-1.063.906-1.386 1.46a3.59 3.59 0 0 0-.482 1.802c0 1.371.62 2.476 1.868 3.308 1.246.836 2.953 1.252 5.127 1.252zm-264.348-.45v-3.078h19.462c.485 0 .801-.105.942-.298.152-.203.224-.512.224-.907V76.42h4.182v8.359c0 .972-.218 1.738-.646 2.29-.425.552-1.174.833-2.251.833zm-23.984-.546c2.324 0 4.144-.408 5.461-1.219 1.308-.808 1.97-1.845 1.97-3.11a3.16 3.16 0 0 0-.496-1.72c-.342-.519-.833-.988-1.474-1.39-.64-.407-1.426-.719-2.348-.953-.927-.224-1.963-.344-3.113-.344-1.156 0-2.19.12-3.1.344-.91.234-1.681.546-2.331.952-.648.403-1.137.872-1.486 1.392a2.995 2.995 0 0 0-.518 1.718c0 1.266.656 2.303 1.985 3.111 1.326.811 3.14 1.22 5.45 1.22zm246.544-22.61L458 64.283l-5.607-14.545h2.622l1.286 3.413h4.82l1.246-3.413h3.165l-1.223 2.732zm-292.507-.023c-2.728 0-4.43-1.962-4.43-4.339 0-4.323 6.198-4.455 6.198-6.967 0-.992-.852-1.832-2.053-1.832-2.292 0-4.078 1.832-4.078 1.832l-.22-2.47s1.615-1.497 4.45-1.497c2.793 0 4.562 1.939 4.562 4.446 0 4.525-6.263 4.496-6.263 7.06 0 1.01.96 1.677 1.77 1.677 2.138 0 3.576-1.212 3.576-1.212l.547 2.2c-.764.486-2.184 1.102-4.06 1.102zm62.995 0c-4.078 0-7.242-3.285-7.242-7.935 0-4.869 3.468-7.338 7.07-7.338 2.857 0 5.41.967 5.41.967l-.018 6.482h-3.146l.395-1.895v-3.107s-1.092-.289-2.25-.289c-2.268 0-4.517 1.964-4.517 5.4 0 2.957 1.855 5.534 4.32 5.534 1.291 0 2.6-.506 3.82-1.764l1.153 2.115c-1.394 1.259-3.03 1.83-4.995 1.83zm19.774 0c-4.082 0-7.246-3.285-7.246-7.935 0-4.869 3.468-7.338 7.07-7.338 1.853 0 3.973.77 5.344 2.048l-.521 2.27c-1.265-1.366-2.925-2.07-4.411-2.07-2.355 0-4.537 1.874-4.537 5.31 0 2.957 1.855 5.534 4.32 5.534 1.29 0 2.598-.506 3.82-1.764l1.158 2.115c-1.4 1.259-3.033 1.83-4.997 1.83zm93.678 0c-4.078 0-7.243-3.285-7.243-7.935 0-4.869 3.467-7.338 7.07-7.338 1.854 0 3.97.77 5.346 2.048l-.523 2.27c-1.266-1.366-2.927-2.07-4.41-2.07-2.357 0-4.539 1.874-4.539 5.31 0 2.957 1.855 5.534 4.32 5.534 1.289 0 2.598-.506 3.82-1.764l1.156 2.115c-1.396 1.259-3.032 1.83-4.997 1.83zm102.849 0c-4.082 0-7.25-3.285-7.25-7.935 0-4.869 3.473-7.338 7.074-7.338 1.856 0 3.97.77 5.343 2.048l-.522 2.27c-1.266-1.366-2.926-2.07-4.407-2.07-2.357 0-4.536 1.874-4.536 5.31 0 2.957 1.853 5.534 4.318 5.534 1.289 0 2.597-.506 3.82-1.764l1.155 2.115c-1.396 1.259-3.034 1.83-4.995 1.83zm-247.875-.044c-3.971 0-6.983-3.348-6.983-7.734 0-4.212 2.422-7.495 6.698-7.495 3.972 0 7.027 3.351 7.027 7.755 0 4.364-2.245 7.474-6.742 7.474zm101.296 0c-3.975 0-6.984-3.348-6.984-7.734 0-4.212 2.424-7.495 6.7-7.495 3.972 0 7.027 3.351 7.027 7.755 0 4.364-2.25 7.474-6.743 7.474zm73.497 0c-3.975 0-6.984-3.348-6.984-7.734 0-4.212 2.42-7.495 6.699-7.495 3.97 0 7.027 3.351 7.027 7.755 0 4.364-2.25 7.474-6.742 7.474zm117.947 0c-3.97 0-6.98-3.348-6.98-7.734 0-4.212 2.42-7.495 6.697-7.495 3.973 0 7.027 3.351 7.027 7.755 0 4.364-2.246 7.474-6.744 7.474zm-317.164-.218.306-2.275V49.738h7.79l.547 2.18h-5.5v4.277h4.058l.547 2.18h-4.604v3.902h5.215v2.184zm11.593 0 .305-2.275V50.792c0-1.738-.72-3.107-1.875-3.107-.873 0-1.465.328-1.465.328l-.151-2.465c.654-.135 1.2-.198 1.616-.198 3.293 0 4.713 2.623 4.713 5.442v13.669zm21.844 0 .304-2.275V49.738h2.748l-.237 1.894v7.842l.85-1.385 7.353-8.351h1.814l-.154 1.894V64.46h-2.816l.305-2.275v-7.601l-.827 1.366-7.16 8.51zm49.686 0 .304-2.275V49.738h3.08l-.24 1.894V64.46zm5.346 0v-2.233h4.584v-12.49h3.078l-.242 1.894v10.596h4.715v2.227l1.35-1.866 3.34-6.485v-6.366h3.08l-.24 1.894v4.694l4.47 8.135h-2.836l-2.554-5.03-.282-.855-.285.854-2.573 5.03h-3.47zm46.46 0 .306-2.275V49.738h3.074l-.237 1.894v4.563h4.058l.544 2.18h-4.602v3.902h5.215v2.184zm10.584 0 .304-2.275V49.738h3.079L323 51.632v4.563h4.06l.546 2.18H323v3.902h5.216v2.184zm10.606 0 .303-2.275V49.738h3.076l-.239 1.894V64.46zm20.661 0 .308-2.275V49.738h7.789l.547 2.18h-5.5v4.277h4.06l.544 2.18h-4.604v3.902h5.216v2.184zm31.644 0 .303-2.275V49.738h3.08l-.24 1.894v4.563h4.058l.55 2.18h-4.607v3.902h5.214v2.184zm15.965 0 .305-2.275V49.738h7.789l.546 2.18h-5.5v4.277h4.059l.547 2.18h-4.607v3.902h5.218v2.184zm11.203 0 .307-2.275V49.738h4.93c4.321 0 7.093 3.193 7.093 7.445 0 5.073-3.187 7.278-6.44 7.278zm14.84 0 .304-2.275V55.07c0-.377.13-5.62 5.719-5.62 3.844 0 6.281 2.488 6.281 6.191v8.819h-2.81l.307-2.275V55.4c0-2.204-1.49-3.793-3.386-3.793-1.877 0-3.274 1.432-3.274 3.639v9.214zm39.763 0v-2.233h4.582v-12.49h3.077l-.239 1.894v10.596h4.711v2.233zm13.965 0 .306-2.275V49.738h3.075l-.24 1.894V64.46zm21.47 0 .307-2.275V49.738h2.75l-.242 1.894v7.842l.854-1.385 7.352-8.351h1.812l-.151 1.894V64.46h-2.819l.307-2.275v-7.601l-.83 1.366-7.157 8.51zm-301.313-1.896c2.31 0 3.837-2.336 3.837-5.49 0-3.154-1.526-5.49-3.837-5.49-2.316 0-3.865 2.336-3.865 5.49 0 3.154 1.549 5.49 3.865 5.49zm101.294 0c2.315 0 3.84-2.336 3.84-5.49 0-3.154-1.525-5.49-3.84-5.49-2.316 0-3.865 2.336-3.865 5.49 0 3.154 1.549 5.49 3.865 5.49zm73.497 0c2.312 0 3.839-2.336 3.839-5.49 0-3.154-1.527-5.49-3.84-5.49-2.312 0-3.865 2.336-3.865 5.49 0 3.154 1.553 5.49 3.866 5.49zm117.949 0c2.312 0 3.842-2.336 3.842-5.49 0-3.154-1.53-5.49-3.842-5.49-2.315 0-3.863 2.336-3.863 5.49 0 3.154 1.548 5.49 3.863 5.49zm-78.322-.24h2.356c2.225 0 3.841-2.27 3.841-5.27 0-2.956-1.616-5.179-3.84-5.179h-2.357zm45.707-1.768.196-.858 1.505-4.28h-3.492l1.57 4.256z"/><path fill="#fff" d="M51.86 45.678c-.122.052-.62.572-1.107 1.154-1.507 1.802-8.03 10.552-8.285 11.115-.28.616-.327 1.918-.093 2.597.56 1.628 2.228 2.834 8.25 5.964 1.6.833 3.52 1.895 4.264 2.361 1.515.949 3.134 2.108 3.055 2.187-.029.029-.704-.065-1.5-.209-4.58-.826-8.376-1.183-12.589-1.184-3.345 0-5.036.125-7.251.54-4.1.768-6.931 2.44-7.76 4.584-.414 1.071-.416 2.662-.004 4.008 1.562 5.1 7.5 11.218 17.02 17.535 7.362 4.885 16.233 9.483 25.147 13.036 1.31.522 2.435 1.001 2.501 1.065.239.23-.721 3.73-1.906 6.944-1.258 3.416.693 7.338 4.25 8.544 1.703.576 3.887.3 5.441-.69.902-.575 2.003-1.823 2.456-2.786.534-1.131 1.407-3.766 1.964-5.923.252-.98.481-1.803.509-1.83.027-.028 1.35.278 2.939.68 11.854 2.992 21.449 3.646 27.308 1.86 7.564-2.307 7.495-8.58-.183-16.443-3.868-3.96-9.391-8.145-15.964-12.092-3.492-2.097-3.827-2.233-4.26-1.728-.68.791-.44 1.136 1.817 2.611 3.66 2.392 6.516 4.642 9.046 7.126 2.915 2.863 4.485 5.171 4.993 7.338 1.184 5.06-4.757 7.107-15.434 5.317-2.184-.366-6.527-1.378-8.504-1.981l-.893-.273-.001-2.078c-.003-4.558-.917-10.113-2.398-14.585-.43-1.3-1.381-3.768-1.916-4.973-.076-.173 6.006-6.452 9.691-10.005 5.49-5.294 9.24-8.444 12.784-10.743 3.596-2.332 6.09-3.345 9.01-3.661 1.72-.186 2.423-.435 2.752-.975.14-.228.253-.498.254-.599 0-.292-1.264-2.115-4.065-5.864-3.021-4.043-4.29-5.689-4.858-6.306-1.006-1.09-2.741-1.446-4.096-.84-1.755.786-4.302 3.152-8.007 7.437a7150.533 7150.533 0 0 1-15.36 17.724l-3.506 4.025-.23-.32a883.33 883.33 0 0 1-1.616-2.27c-3.533-4.97-7.407-9.377-14.866-16.91-4.232-4.273-5.495-5.913-6.562-8.518-.655-1.598-1.456-2.302-2.238-1.966zm10.633 29.359c2.22 2.181 4.804 5.594 6.599 8.715 2.894 5.033 4.369 9.523 4.958 15.094.206 1.95.255 3.375.116 3.375-.2 0-6.137-2.972-8.057-4.033-9.98-5.519-17.252-11.615-19.583-16.415-1.736-3.577-.861-5.503 3.06-6.73 2.407-.755 4.728-1.006 8.824-.957l3.154.038z" paint-order="stroke fill markers"/><ellipse cx="79.638" cy="-109.113" fill="url(#c)" paint-order="stroke fill markers" rx="37.2" ry="33.12" transform="scale(1 -1)"/></g></svg>