<svg xmlns="http://www.w3.org/2000/svg" width="205.548" height="52.606" viewBox="0 0 54.385 13.919"><path fill="#f47920" d="M6.73 1.38a1.38 1.38 0 1 1-2.762-.001 1.38 1.38 0 0 1 2.762.001"/><path fill="#009f5c" d="M4.673 8.882C4.116 7.959 2.545 7.19 0 7.412v-1.81c3.716-.171 4.673 1.197 4.673 2.615z"/><path fill="#009f5c" d="M4.673 6.304v-.817c0-1.855-1.986-2.623-4.673-2.511v1.8c2.548-.152 4.273.68 4.673 1.528"/><path fill="#084a94" d="M6.025 5.487c0-1.855 1.987-2.623 4.673-2.511v7.346c0 1.107-.532 2.03-1.539 2.667-.946.6-2.3.93-3.81.93-1.509 0-2.862-.33-3.81-.93C.534 12.351 0 11.43 0 10.322V8.24c2.42-.328 4.673.785 4.673 2.526v.435c0 .496.329.668.676.668.348 0 .673-.177.673-.673z"/><path fill="#231f20" d="M46.19 2.627c-.934.02-1.684.65-1.684 1.423 0 .788.773 1.426 1.728 1.426s1.729-.638 1.729-1.426c0-.786-.774-1.423-1.729-1.423h-.044zm4.145.15c-.053 0-.056.066-.017.09.085.054.149.124.149.408v.146h-1.113v.5h1.11c-.069 1.39-1.306 1.726-1.306 1.726v.5s1.114-.095 1.768-1.09c.653.995 1.767 1.09 1.767 1.09v-.5s-1.237-.335-1.305-1.726h1.109v-.5h-1.118v-.644zm-32.548.188c-.054 0-.057.067-.018.092.085.053.15.123.15.407v.956H16.91v.501h1.007v2.677h.913V2.965zm5.884 0c-.053 0-.057.066-.018.092.086.053.15.123.15.407v5.658h.912V5.346h.936v-.5h-.936v-1.88zm6.243 0c-.052 0-.057.066-.017.092.085.053.15.123.15.407v2.65h.912V4.786h.936v-.5h-.936V2.965zm23.249 0c-.053 0-.057.066-.018.092.085.053.15.123.15.407v.87h-1.008v.5h1.008V6.35h.913V2.965zm-26.935.156c-.053 0-.057.066-.017.092.081.05.142.117.148.37v1.875c0 .291.236.53.53.53h2.633v-.502h-2.205a.046.046 0 0 1-.046-.046V3.121zm19.986.006h.02c.45 0 .816.413.816.923 0 .511-.366.925-.816.925-.45 0-.815-.414-.815-.925 0-.502.354-.91.795-.923zm-32.305.061v.502h1.114C15 5.683 13.706 5.978 13.706 5.978v.534s1.171-.143 1.775-1.289c.603 1.146 1.775 1.289 1.775 1.289v-.534s-1.295-.295-1.317-2.288h1.113v-.502zm6.206 0v.502h1.937v1.253h-2.068c-.054 0-.057.067-.018.092.084.052.147.12.15.392V7.09c0 .292.235.529.528.529h2.634v-.5h-2.205a.047.047 0 0 1-.046-.047v-1.63h1.937v-2.06a.19.19 0 0 0-.186-.195zm12.56 0c-.053 0-.057.068-.017.092.085.054.15.124.15.408v2.094c0 .293.237.53.529.53h3.693v-.501h-3.265a.046.046 0 0 1-.046-.046V3.69h3.31v-.502zm5.853 0v.502h3.305v1.955c0 .924-.09 1.35-.09 1.35h.822s.18-.36.18-1.46V3.383a.19.19 0 0 0-.186-.195zm.304 2.405c-.053 0-.057.067-.017.09.085.056.149.125.149.409v1.623h-.99l.001.5 5.325.001v-.5h-1.997V5.593H40.26c-.054 0-.057.067-.017.09.085.056.148.125.148.409v1.623h-.515V5.593zm4.74.16v.5h1.234v.912h-.752v.5h3.45v1.457h.911V7.36a.19.19 0 0 0-.185-.194h-.566v-.912h1.234v-.5zm2.146.5h1.034v.912h-1.034zm6.677.063c-1.001 0-1.813.651-1.813 1.454 0 .802.812 1.452 1.813 1.452 1 0 1.813-.65 1.813-1.452 0-.803-.813-1.454-1.813-1.454zm-25.571.303c-.054 0-.057.066-.017.091.085.054.148.123.148.408v1.36c0 .293.238.53.531.53h2.943a.53.53 0 0 0 .53-.53V6.813a.19.19 0 0 0-.186-.193zm7.506.072c-.053 0-.057.066-.017.091.085.053.149.122.149.407v.526h-2.207v.5h5.327v-.5h-2.207V6.691zm18.042.124h.023c.494 0 .893.427.893.955 0 .527-.4.955-.893.955-.494 0-.895-.428-.895-.955 0-.52.389-.942.872-.955zm-37.785.164c-.053 0-.056.065-.017.09.086.054.149.124.149.408V8.48a.53.53 0 0 0 .53.529h3.618v-.5h-3.19a.046.046 0 0 1-.045-.047V6.979h-.912zm13.282.14h2.178v1.342c0 .025-.02.046-.046.046h-2.086a.046.046 0 0 1-.046-.046zm-10.381 3.397a.64.64 0 0 0-.527.262c-.136.173-.203.392-.203.66 0 .243.064.45.194.621a.642.642 0 0 0 .536.273.642.642 0 0 0 .516-.249c.14-.17.21-.39.21-.659 0-.268-.07-.488-.21-.658a.642.642 0 0 0-.516-.25zm4.003 0-.454 1.403a1.36 1.36 0 0 1-.084.216c-.03.052-.07.08-.118.084v.066h.416v-.066a.291.291 0 0 1-.1-.015c-.038-.017-.058-.043-.058-.08 0-.03.01-.078.028-.143.008-.032.029-.099.06-.202h.45l.051.156.027.088a.38.38 0 0 1 .016.092c0 .044-.01.072-.031.083a.361.361 0 0 1-.13.02v.067h.662v-.066c-.047.002-.083-.02-.108-.063a1.983 1.983 0 0 1-.115-.294l-.457-1.346zm2.88 0-.454 1.403a1.36 1.36 0 0 1-.083.216c-.03.052-.07.08-.119.084v.066h.417v-.066a.294.294 0 0 1-.1-.015c-.04-.017-.058-.043-.058-.08 0-.03.01-.078.027-.143l.061-.202h.45l.05.156c.012.034.02.064.027.088a.38.38 0 0 1 .016.092c0 .044-.01.072-.03.083a.363.363 0 0 1-.131.02v.067h.662v-.066c-.047.002-.083-.02-.108-.063a2.002 2.002 0 0 1-.114-.294l-.458-1.346zm5.021 0a.64.64 0 0 0-.528.262c-.135.173-.203.392-.203.66 0 .243.065.45.195.621a.643.643 0 0 0 .536.273.642.642 0 0 0 .516-.249c.14-.17.21-.39.21-.659 0-.268-.07-.488-.21-.658a.642.642 0 0 0-.516-.25zm2.13 0a.64.64 0 0 0-.528.262c-.135.173-.203.392-.203.66 0 .243.065.45.194.621a.643.643 0 0 0 .537.273.642.642 0 0 0 .516-.249c.14-.17.21-.39.21-.659 0-.268-.07-.488-.21-.658a.643.643 0 0 0-.516-.25zm4.88 0a.632.632 0 0 0-.482.243c-.146.173-.219.399-.219.677 0 .282.076.505.228.671.136.15.305.225.507.225a.553.553 0 0 0 .36-.132c.06-.05.13-.13.21-.242l-.061-.064a1.17 1.17 0 0 1-.183.204.455.455 0 0 1-.294.112c-.171 0-.288-.112-.351-.335a1.688 1.688 0 0 1-.052-.456c0-.25.029-.45.086-.599.058-.15.155-.223.293-.223.121 0 .23.07.326.21.051.075.101.178.152.31h.051v-.6h-.051a.207.207 0 0 1-.03.08c-.017.025-.038.037-.064.037a.895.895 0 0 1-.147-.059.641.641 0 0 0-.26-.059h-.018zm3.414 0a.64.64 0 0 0-.527.262c-.136.173-.204.392-.204.66 0 .243.065.45.195.621a.642.642 0 0 0 .536.273.642.642 0 0 0 .516-.249c.14-.17.21-.39.21-.659 0-.268-.07-.488-.21-.658a.643.643 0 0 0-.516-.25zm7.672 0a.634.634 0 0 0-.503.243c-.145.173-.218.399-.218.677 0 .282.076.505.228.671.136.15.305.225.506.225a.557.557 0 0 0 .36-.132c.061-.05.131-.13.212-.242l-.061-.064a1.17 1.17 0 0 1-.184.205.454.454 0 0 1-.293.11c-.172 0-.29-.11-.353-.334a1.7 1.7 0 0 1-.051-.456c0-.25.029-.45.087-.599.057-.15.155-.223.292-.223.121 0 .23.07.326.21.05.075.101.178.151.31h.052v-.6h-.052a.206.206 0 0 1-.03.08c-.016.025-.037.037-.062.037-.01 0-.06-.02-.148-.059a.642.642 0 0 0-.26-.059zm1.163 0-.453 1.403a1.417 1.417 0 0 1-.084.216c-.03.052-.07.08-.118.084l-.001.066h.417v-.066a.303.303 0 0 1-.101-.015c-.038-.017-.057-.043-.057-.08a.61.61 0 0 1 .027-.143l.06-.202h.45l.052.156.026.088a.4.4 0 0 1 .016.092c0 .044-.01.072-.031.083a.363.363 0 0 1-.13.02v.067h.662v-.066c-.046.002-.083-.02-.108-.063a2.018 2.018 0 0 1-.115-.294l-.456-1.346zm3.507 0a.64.64 0 0 0-.527.262c-.136.173-.203.392-.203.66 0 .243.065.45.194.621a.642.642 0 0 0 .536.273.643.643 0 0 0 .517-.249c.14-.17.21-.39.21-.659 0-.268-.07-.488-.21-.658a.643.643 0 0 0-.517-.25zm-36.943.037h-.724v.067a.362.362 0 0 1 .147.027c.04.025.061.075.061.152v1.422c0 .07-.005.12-.016.15-.02.05-.062.075-.123.075a.083.083 0 0 1-.057-.02.071.071 0 0 1-.024-.057c0-.007.008-.03.025-.067a.296.296 0 0 0 .025-.12.21.21 0 0 0-.04-.128.119.119 0 0 0-.1-.053.133.133 0 0 0-.104.054.227.227 0 0 0-.045.15c0 .077.031.15.093.22a.316.316 0 0 0 .245.101.402.402 0 0 0 .335-.152c.078-.1.118-.24.118-.422v-1.1c0-.097.012-.159.037-.184.026-.026.075-.041.147-.048zm3.1 0v.067a.25.25 0 0 1 .12.03c.04.025.058.075.058.15v1.24c0 .074-.02.125-.06.152a.247.247 0 0 1-.119.027v.066h1.187l.08-.582h-.058c-.061.198-.133.331-.217.4a.472.472 0 0 1-.31.101c-.07 0-.116-.008-.14-.026-.024-.019-.035-.057-.035-.114v-1.212c0-.1.013-.163.042-.189.028-.025.085-.039.17-.043v-.067zm1.296 0v.067a.25.25 0 0 1 .121.03c.04.025.058.075.058.15v1.24c0 .074-.02.125-.06.152a.247.247 0 0 1-.12.027v.066h1.188l.08-.582h-.06c-.06.198-.132.331-.216.4a.472.472 0 0 1-.31.101c-.07 0-.116-.008-.14-.026-.024-.019-.035-.057-.035-.114v-1.212c0-.1.014-.163.042-.189.029-.025.086-.039.17-.043v-.067zm2.711 0v.067a.105.105 0 0 1 .06.03c.014.015.052.066.115.153v1.212a.278.278 0 0 1-.033.15c-.022.033-.071.052-.147.054v.066h.464v-.066c-.083-.004-.138-.033-.164-.085a.373.373 0 0 1-.026-.166v-1.004h.014l.904 1.368h.057v-1.509c0-.077.011-.127.033-.15a.263.263 0 0 1 .128-.053v-.067h-.445v.067c.076.007.128.03.152.067.025.036.037.098.037.184v.747h-.01l-.702-1.065zm2.865 0v.067c.067.006.114.021.14.043.027.022.04.068.04.137v1.215a.27.27 0 0 1-.036.153c-.023.033-.075.05-.153.05v.068h.482v-.067c-.088-.004-.145-.025-.17-.065a.348.348 0 0 1-.038-.186V10.81l.009-.007.509 1.483h.058l.506-1.505h.015v1.249c0 .078-.015.128-.046.152a.25.25 0 0 1-.138.037v.067h.68v-.067c-.068-.003-.115-.02-.14-.049-.026-.028-.039-.09-.039-.183v-1.135c0-.097.013-.159.038-.184.026-.026.073-.041.142-.047v-.067h-.515l-.405 1.19-.018.002-.405-1.193zm7.151 0v.067a.27.27 0 0 1 .126.032c.036.025.054.075.054.149v1.238c0 .073-.019.123-.056.15-.025.018-.066.028-.124.03v.066h.738v-.066a.337.337 0 0 1-.171-.03c-.037-.021-.056-.071-.056-.151v-.6c.111 0 .188.033.231.096a.676.676 0 0 1 .086.301h.052v-.856h-.052a.745.745 0 0 1-.09.288c-.04.06-.115.088-.227.086v-.597c0-.046.009-.079.025-.096.017-.017.056-.026.116-.026.163 0 .274.033.335.097.06.065.103.177.13.338h.051v-.516zm2.532 0v.067c.06.004.102.013.126.028.039.027.058.077.058.152v1.24c0 .075-.02.127-.06.153a.26.26 0 0 1-.124.026v.067h.714v-.067c-.065 0-.113-.012-.145-.036-.033-.025-.049-.073-.049-.144V10.8c0-.075.02-.126.06-.152a.323.323 0 0 1 .134-.027v-.067zm5.783 0v.067c.06.005.102.015.125.032.037.025.055.075.055.149v1.238c0 .073-.019.123-.056.15a.235.235 0 0 1-.124.03v.066h.738v-.066a.337.337 0 0 1-.171-.03c-.038-.021-.056-.071-.056-.151v-.6c.111 0 .188.033.23.096a.672.672 0 0 1 .087.301h.052v-.856h-.052a.739.739 0 0 1-.09.288c-.04.06-.115.088-.227.086v-.597c0-.046.008-.079.025-.096s.055-.026.116-.026c.162 0 .274.033.334.097.061.065.104.177.13.338h.052v-.516zm9.953 0v.067c.06.004.102.013.126.028.04.027.059.077.059.152v1.24c0 .075-.02.127-.06.153a.265.265 0 0 1-.125.026v.067h.714v-.067c-.065 0-.113-.012-.145-.036-.032-.025-.048-.073-.048-.144V10.8c0-.075.02-.126.06-.152a.318.318 0 0 1 .133-.027v-.067zm2.374 0v.067a.103.103 0 0 1 .06.03c.014.015.053.066.115.153v1.212a.277.277 0 0 1-.033.15c-.022.033-.071.052-.147.054v.066h.464v-.066c-.083-.004-.138-.033-.164-.085a.38.38 0 0 1-.025-.166v-1.004h.013l.904 1.368h.058v-1.509c0-.077.01-.127.032-.15a.267.267 0 0 1 .128-.053v-.067h-.445v.067c.077.007.127.03.152.067.025.036.038.098.038.184v.747h-.01l-.704-1.065zm-37.639 0v.067c.06.004.1.014.122.03.039.025.058.075.058.15v1.24c0 .072-.018.123-.055.15a.244.244 0 0 1-.125.029v.066h1.197l.085-.535h-.052c-.065.176-.139.295-.222.36a.52.52 0 0 1-.324.094c-.07 0-.116-.009-.139-.029-.023-.02-.034-.056-.034-.11v-.622c.118 0 .2.03.245.09.045.06.076.162.091.307h.052v-.856h-.052c-.022.144-.054.242-.096.296-.042.054-.122.08-.24.078v-.6c0-.05.009-.083.026-.099.017-.017.057-.025.12-.025.167 0 .282.03.345.092.063.063.108.177.134.344h.052v-.516zm11.827 0v.067a.277.277 0 0 1 .117.03c.04.026.059.071.059.135v1.269c0 .067-.021.113-.062.138a.276.276 0 0 1-.114.027v.066h.65c.235 0 .421-.09.558-.271a.943.943 0 0 0 .183-.589c0-.26-.06-.465-.182-.618-.133-.168-.326-.253-.58-.253zm6.434 0v.067c.06.005.101.015.125.032.036.025.054.075.054.149v1.238c0 .073-.018.123-.055.15a.235.235 0 0 1-.124.03v.066h.738v-.066a.337.337 0 0 1-.172-.03c-.037-.021-.056-.071-.056-.151v-.6c.111 0 .189.032.232.096a.681.681 0 0 1 .085.302h.053v-.856h-.053a.747.747 0 0 1-.089.287c-.04.06-.116.089-.228.086v-.597c0-.047.009-.079.026-.096s.055-.026.116-.026c.162 0 .274.033.334.097s.104.178.13.339h.052v-.516zm3.543 0v.067c.059.004.1.014.121.03.04.025.058.075.058.15v1.24c0 .072-.018.123-.055.15a.242.242 0 0 1-.124.029v.066h1.197l.085-.535h-.052c-.065.176-.139.295-.222.36a.52.52 0 0 1-.324.094c-.07 0-.116-.009-.139-.029-.023-.02-.034-.056-.034-.11v-.622c.117 0 .2.03.245.09.045.06.075.162.09.307h.053v-.856h-.053c-.021.144-.053.242-.095.296-.042.054-.123.08-.24.078v-.6c0-.05.008-.083.025-.099.018-.017.058-.025.121-.025.167 0 .281.03.345.092.063.063.108.177.133.344h.053v-.516zm5.296 0v.067a.254.254 0 0 1 .121.03c.04.025.059.075.059.15v1.24c0 .072-.02.123-.057.15a.239.239 0 0 1-.123.029v.066h1.197l.084-.535h-.052c-.065.176-.139.295-.222.36a.52.52 0 0 1-.324.094c-.07 0-.116-.009-.139-.029-.022-.02-.034-.056-.034-.11v-.622c.118 0 .2.03.246.09.045.06.075.162.09.307h.052v-.856h-.052c-.022.144-.054.242-.096.296-.042.054-.122.08-.24.078v-.6c0-.05.01-.083.026-.099.018-.017.058-.025.12-.025.167 0 .282.03.345.092.063.063.108.177.134.344h.052v-.516zm1.373 0v.067a.28.28 0 0 1 .117.03c.039.026.058.071.058.135v1.269c0 .067-.02.113-.061.138a.272.272 0 0 1-.114.027v.066h.65c.234 0 .42-.09.558-.271a.946.946 0 0 0 .183-.589c0-.26-.061-.465-.182-.618-.133-.168-.326-.253-.58-.253zm1.471 0v.067c.074.01.122.028.143.052.021.025.032.084.032.18v.856c0 .147.023.268.069.361.087.176.25.264.486.264.18 0 .314-.06.398-.178.084-.118.126-.286.126-.504v-.818c0-.081.01-.133.031-.156.021-.022.065-.041.13-.057v-.066h-.455v.066c.08.008.132.028.159.063.026.034.04.097.04.188v.783a.99.99 0 0 1-.045.336.313.313 0 0 1-.32.22c-.125 0-.21-.066-.255-.198a.947.947 0 0 1-.038-.302v-.858c0-.098.014-.159.04-.187.027-.026.08-.041.16-.045v-.066zm3.96 0-.003.517h.059c.012-.184.067-.31.165-.377a.431.431 0 0 1 .23-.058v1.35c0 .094-.013.157-.04.188-.026.032-.08.047-.159.047v.065h.724v-.065c-.081 0-.135-.015-.161-.046-.025-.03-.038-.094-.038-.188v-1.351a.428.428 0 0 1 .23.058c.09.066.146.192.165.377h.059l-.002-.516zm-31.758.043c.111 0 .2.07.265.209.066.139.098.345.098.62 0 .198-.015.36-.046.484-.057.228-.163.343-.317.343-.156 0-.262-.115-.319-.343a2.042 2.042 0 0 1-.046-.485c0-.197.015-.356.045-.479.058-.233.164-.349.32-.349zm11.904 0c.112 0 .2.07.265.209.065.139.098.345.098.62 0 .198-.015.36-.046.484-.057.228-.162.343-.317.343s-.262-.115-.319-.343a2.042 2.042 0 0 1-.046-.485c0-.197.015-.356.045-.479.058-.233.165-.349.32-.349zm2.13 0c.111 0 .2.07.265.209.065.139.098.345.098.62 0 .198-.016.36-.047.484-.057.228-.162.343-.316.343-.156 0-.262-.115-.319-.343a2.023 2.023 0 0 1-.047-.485c0-.197.015-.356.046-.479.057-.233.164-.349.32-.349zm8.294 0c.111 0 .2.07.265.209.066.139.098.345.098.62 0 .198-.015.36-.046.484-.057.228-.163.343-.317.343-.156 0-.262-.115-.319-.343a2.044 2.044 0 0 1-.047-.485c0-.197.015-.356.046-.479.058-.233.164-.349.32-.349zm12.343 0c.111 0 .2.07.265.209.065.139.098.345.098.62 0 .198-.016.36-.047.484-.056.228-.162.343-.316.343-.156 0-.263-.115-.32-.343a2.042 2.042 0 0 1-.046-.485c0-.197.015-.356.046-.479.058-.233.164-.349.32-.349zm-24.363.038c.162 0 .278.106.346.317.042.131.064.288.064.47 0 .307-.04.514-.118.622a.356.356 0 0 1-.3.161c-.045 0-.074-.011-.088-.034a.26.26 0 0 1-.024-.115v-1.27c0-.054.005-.09.016-.108.016-.029.05-.043.104-.043zm16.646 0c.162 0 .278.106.346.317.042.131.063.288.063.47 0 .307-.039.514-.117.622a.356.356 0 0 1-.3.161c-.045 0-.075-.011-.088-.034a.26.26 0 0 1-.025-.115v-1.27c0-.054.006-.09.017-.108.016-.029.05-.043.104-.043zm-23.044.45h.008l.192.595h-.389zm2.88 0h.008l.192.595h-.389zm24.28 0h.008l.192.595h-.388z"/></svg>