<svg xmlns="http://www.w3.org/2000/svg" width="195.745" height="50.297" viewBox="0 0 51.791 13.308"><defs><clipPath id="a"><path d="M214 413h34v20h-34zm0 0"/></clipPath><clipPath id="b"><path d="M230.984 422.637c-6.73 0-14.37-2.457-16.293-8.434 0 1.57.07 4.383.192 5.973.707 9.215 9.191 12.648 16.097 12.652h.008c6.91-.004 16.297-3.98 16.297-12.652l-.004-7.145c-1.922 5.977-9.562 9.606-16.297 9.606"/></clipPath><linearGradient id="c" x1="0" x2="1" y1="0" y2="0" gradientTransform="translate(214.69 422.928) scale(32.5957)" gradientUnits="userSpaceOnUse"><stop offset="0" stop-color="#00b9f2"/><stop offset="1" stop-color="#005bab"/></linearGradient></defs><g clip-path="url(#a)" transform="translate(-75.738 -139.384) scale(.35278)"><g clip-path="url(#b)"><path fill="url(#c)" d="M214.691 413.031v19.797h32.594v-19.797zm0 0"/></g></g><path fill="#97ca4c" d="M8.282.422A7.4 7.4 0 0 0 5.894 0h-.015C2.619.007.3 2.205.3 5.176c0 .293.024.575.068.846.945-1.977 3.18-2.77 5.518-2.773a8.246 8.246 0 0 1 2.392.342zm0 0"/><path fill="#faa633" d="M6.646 6.103c-.227.587-.288 1.757-.288 1.757s1.048-.744 2.864-.605c1.738.134 3.504 1.513 3.504 1.513V6.044s-1.331-1.327-3.55-1.383c-1.288-.034-2.206.606-2.53 1.442"/><path fill="#6b6e70" d="M44.571 2.52c-.545 0-1.091.355-1.091 1.073 0 1.45 2.183 1.438 2.183 0 0-.713-.546-1.072-1.092-1.073zm3.87.009v.38h-.979v.546h.958c-.038.249-.373.714-.975.795v.546c.578-.036 1.058-.405 1.299-.743.229.311.668.693 1.301.743V4.25c-.57-.068-.935-.534-.975-.795h.936v-.546h-.956v-.38zm-21.364.242v1.34c0 .178.14.32.317.329h3.168a.33.33 0 0 0 .316-.324V2.771h-.602v.31H27.67v-.31zm-4.639.006v.404c0 .581-.635 1.004-1.176 1.094v.54s1.05-.087 1.474-.831c.425.744 1.475.83 1.475.83v-.54c-.54-.089-1.177-.512-1.177-1.093v-.404zm-3.992.003h-2.21v.542h1.605c-.144.908-1.204 1.164-1.787 1.275v.54s1.552-.136 2.121-1.069c.154-.255.271-.561.271-.969zm1.406 0v.265h-.928v.548h.928v.274h-.928v.552h.928v.364h.589V2.781zm5.111 0v2.003h.587v-.916h.616v-.545h-.616v-.541zm26.24 0v.63h-.863v.552h.864v.821h.587V2.781zm-18.728.024.001 2.001c0 .182.149.33.33.33l3.378.001v-.535h-3.12V3.345h3.12v-.54zm5.2 0v.54h3.12V5.05h.586V2.804zm6.893.282c.26 0 .519.169.519.507 0 .686-1.036.686-1.036 0 0-.338.258-.507.517-.507zm-16.898.498h2.606v.314H27.67zm14.676 1.2v.535h.992v.485h-.823v.54h3.514v.863h.604V5.804h-.823V5.32h.992v-.536zm-15.597.027v.541h1.909v.4h-1.74v.551h3.516v.904h.602V5.752h-1.74v-.4h1.908v-.541zm-2.566.143c-.578 0-1.154.382-1.154 1.144 0 1.498 2.307 1.503 2.307 0 0-.764-.576-1.144-1.153-1.144zm-5.194.016c-.57 0-1.138.375-1.138 1.124 0 1.502 2.275 1.502 2.275 0 0-.75-.569-1.124-1.137-1.124zM50.335 5c-.577.001-1.154.377-1.154 1.125 0 1.457 2.308 1.466 2.308 0 0-.75-.577-1.125-1.154-1.124zm-11.989.23v1.185h-.998v.541h4.361v-.541h-1.174V5.23h-.64v1.185h-.909V5.23zm5.631.09h1.194v.484h-1.194zm-9.962.154v.94h-1.867v.542h4.363v-.541h-1.856v-.941zm-15.034.058c.285-.001.57.185.57.562 0 .748-1.14.742-1.14 0 0-.372.286-.56.57-.562zm5.199.005c.285-.002.57.184.57.56 0 .756-1.14.746-1.14 0 0-.37.285-.559.57-.56zm26.152.027c.285-.001.57.184.57.561 0 .754-1.14.744-1.14 0 0-.371.285-.56.57-.561zM16.67 8.465c-.186 0-.33.057-.433.17a.693.693 0 0 0-.16.37 2.191 2.191 0 0 0-.022.364c0 .243.036.433.108.574.096.187.256.28.476.28.11 0 .2-.024.277-.07a.42.42 0 0 0 .17-.212v.262h.16v-.904h-.626v.196h.411c0 .155-.02.275-.057.36-.056.125-.162.19-.317.19-.162 0-.274-.086-.335-.26a1.442 1.442 0 0 1-.053-.452c0-.194.022-.348.066-.456.065-.162.18-.243.345-.243a.31.31 0 0 1 .254.107.36.36 0 0 1 .076.238h.205a.496.496 0 0 0-.142-.373c-.095-.094-.23-.14-.403-.14zm19.948.013a.437.437 0 0 0-.219.048c-.073.043-.11.111-.11.208v.196h-.193v.158h.193v1.115h.215V9.088h.215V8.93h-.236v-.162c.007-.05.024-.085.051-.104a.156.156 0 0 1 .091-.022l.094.002v-.16zm.634 0a.437.437 0 0 0-.22.048c-.072.043-.11.111-.11.208v.196h-.194v.158h.195v1.115h.215V9.088h.215V8.93h-.236v-.162c.006-.05.024-.085.051-.104.02-.016.051-.022.091-.022l.094.002v-.16zm4.89 0a.437.437 0 0 0-.22.048c-.073.043-.109.111-.109.208v.196h-.195v.158h.195v1.115h.214V9.088h.215V8.93h-.236v-.162c.006-.05.024-.085.051-.104.021-.016.051-.022.091-.022l.094.002v-.16zm-9.568.007v.565a.352.352 0 0 0-.292-.156c-.195 0-.323.087-.384.26-.03.087-.045.236-.045.445 0 .184.018.32.051.408.06.153.18.23.358.23a.378.378 0 0 0 .21-.056.397.397 0 0 0 .12-.138v.16h.197V8.485zm12.16 0v.565a.353.353 0 0 0-.294-.156c-.193 0-.321.087-.382.26-.03.087-.045.236-.045.445 0 .184.016.32.05.408.062.153.181.23.36.23.08 0 .15-.019.207-.056a.371.371 0 0 0 .121-.138v.16h.198V8.485zm-16.967 0v1.718h.195v-.142c.04.06.086.103.143.132a.413.413 0 0 0 .188.042c.286 0 .43-.248.43-.743 0-.196-.037-.344-.107-.445-.07-.103-.178-.153-.323-.153a.41.41 0 0 0-.174.038.393.393 0 0 0-.137.118v-.564zm7.578 0c-.234 0-.401.092-.498.275-.071.137-.107.327-.107.573 0 .171.011.312.033.42.034.15.091.264.174.344.098.092.235.138.415.138.198 0 .348-.054.45-.163a.64.64 0 0 0 .157-.357c.011-.07.015-.19.015-.362a1.64 1.64 0 0 0-.04-.397.656.656 0 0 0-.183-.334.603.603 0 0 0-.416-.136zm-5.179.016v1.702h.194v-.444l.157-.176.331.618.236.002-.429-.763.429-.496h-.236l-.488.585V8.501zm7.35 0v.23h.194v-.23zm11.68 0v.23h.193v-.23zm-6.324.021v1.681h.933v-.178h-.718v-.62h.68v-.178h-.68v-.529h.738v-.176zm5.732.104v.318h-.195v.16h.195v.903c0 .084.014.14.047.166.026.019.08.03.166.03h.195v-.16h-.118c-.036 0-.058-.006-.065-.015-.008-.01-.01-.029-.01-.057v-.868h.214v-.16h-.215v-.317zm-13.26.027c.168 0 .285.069.348.202.047.1.07.256.07.47 0 .233-.012.391-.04.475-.053.178-.173.268-.358.268a.334.334 0 0 1-.278-.121.592.592 0 0 1-.106-.286 2.468 2.468 0 0 1-.017-.336c0-.252.036-.432.11-.538a.314.314 0 0 1 .27-.134zm3.077.241c-.149 0-.264.045-.342.135-.094.109-.142.299-.142.57 0 .204.033.357.098.46.076.118.205.176.387.176.161 0 .276-.06.345-.185a.59.59 0 0 0 .064-.29h-.195c0 .101-.017.18-.05.235-.033.053-.088.081-.164.081-.119 0-.197-.056-.237-.17a1.004 1.004 0 0 1-.033-.307v-.057c0-.129.012-.229.04-.3.041-.115.118-.172.23-.172a.19.19 0 0 1 .168.084c.03.047.046.108.046.18h.195v-.03a.394.394 0 0 0-.12-.289.4.4 0 0 0-.29-.121zm8.455 0c-.149 0-.263.045-.341.135-.094.109-.141.299-.141.57 0 .204.032.357.097.46.077.118.205.176.387.176.161 0 .275-.06.345-.185a.605.605 0 0 0 .066-.29h-.198c0 .101-.016.18-.05.235-.033.053-.086.081-.163.081a.231.231 0 0 1-.237-.17 1.004 1.004 0 0 1-.034-.307v-.057a.93.93 0 0 1 .04-.3c.042-.115.12-.172.23-.172a.19.19 0 0 1 .169.084.316.316 0 0 1 .045.18h.198v-.03a.396.396 0 0 0-.123-.289.4.4 0 0 0-.29-.121zM19 8.909c-.176 0-.303.084-.377.255a.996.996 0 0 0-.07.4c0 .242.037.417.111.526.073.11.186.165.336.165a.424.424 0 0 0 .248-.073c.11-.073.163-.19.163-.351v-.037h-.196v.05c0 .075-.01.131-.034.167-.032.057-.092.086-.18.086-.098 0-.165-.048-.2-.145a.835.835 0 0 1-.034-.276V9.6h.662v-.1a.909.909 0 0 0-.065-.38c-.067-.14-.189-.211-.364-.211zm1.125 0c-.194 0-.332.076-.416.226a.927.927 0 0 0-.091.448c0 .201.03.354.092.463.081.14.22.21.415.21.174 0 .302-.067.382-.2.069-.113.103-.278.103-.491 0-.207-.037-.365-.112-.476-.08-.12-.205-.18-.373-.18zm1.279 0c-.07 0-.138.02-.202.06a.37.37 0 0 0-.112.1v-.125l-.214.002v1.257h.214v-.87a.25.25 0 0 1 .077-.195.282.282 0 0 1 .198-.068c.073 0 .124.028.156.081a.426.426 0 0 1 .037.202v.85h.216v-.958c0-.12-.033-.206-.093-.257-.064-.053-.156-.079-.277-.079zm1.04 0c-.176 0-.297.084-.366.248a.98.98 0 0 0-.061.377c0 .16.023.287.07.388.069.15.189.226.357.226.075 0 .134-.01.184-.03a.315.315 0 0 0 .129-.108v.015c0 .09-.014.161-.04.216-.043.093-.121.138-.234.138-.073 0-.127-.013-.16-.04-.028-.02-.05-.06-.07-.118h-.196c.01.09.052.166.13.227.076.06.175.09.296.09a.48.48 0 0 0 .337-.11.484.484 0 0 0 .13-.262c.015-.07.022-.173.022-.305v-.918l-.215.003v.142a.207.207 0 0 0-.091-.117.386.386 0 0 0-.222-.062zm1.163 0a.494.494 0 0 0-.31.088.32.32 0 0 0-.119.23c0 .129.034.222.097.283.04.037.116.073.229.112.112.035.18.06.205.07.116.045.172.109.172.19a.19.19 0 0 1-.074.151.301.301 0 0 1-.2.064c-.088 0-.149-.028-.182-.08a.404.404 0 0 1-.033-.185H23.2a.47.47 0 0 0 .07.27c.07.102.19.153.359.153a.5.5 0 0 0 .328-.097c.08-.065.12-.162.12-.291a.304.304 0 0 0-.07-.214.645.645 0 0 0-.258-.142c-.124-.043-.2-.07-.226-.083-.087-.04-.13-.1-.13-.183 0-.056.018-.1.053-.13.034-.031.088-.046.162-.046.076 0 .13.018.162.055.026.03.043.09.054.175h.196a.36.36 0 0 0-.125-.29.43.43 0 0 0-.287-.1zm1.067 0a.462.462 0 0 0-.28.08.288.288 0 0 0-.117.245l.008.065h.174c0-.084.015-.145.044-.18.03-.034.087-.05.17-.05.071 0 .125.014.156.044a.123.123 0 0 1 .038.096v.124a.088.088 0 0 1-.021.061c-.014.017-.045.032-.095.046l-.313.107a.31.31 0 0 0-.158.117.429.429 0 0 0-.056.237c0 .104.023.182.068.234.055.07.15.103.284.103a.356.356 0 0 0 .176-.046.39.39 0 0 0 .137-.149c.005.062.024.105.059.128a.25.25 0 0 0 .149.038l.103-.008v-.14c-.044 0-.076-.007-.094-.02-.016-.015-.024-.043-.024-.086v-.656a.486.486 0 0 0-.051-.256c-.06-.088-.178-.134-.357-.134zm1.22 0c-.07 0-.137.02-.2.06a.35.35 0 0 0-.112.1v-.125l-.215.002v1.257h.215v-.87c0-.084.025-.15.074-.195a.289.289 0 0 1 .201-.068c.072 0 .125.028.156.081a.447.447 0 0 1 .036.202v.85h.215v-.958c0-.12-.032-.206-.092-.257-.064-.053-.154-.079-.278-.079zm1.041 0a.37.37 0 0 0-.367.248c-.04.098-.06.223-.06.377 0 .16.023.287.07.388.07.15.19.226.357.226.075 0 .135-.01.183-.03a.308.308 0 0 0 .13-.108v.015c0 .09-.014.161-.039.216-.044.093-.122.138-.235.138-.073 0-.127-.013-.162-.04a.258.258 0 0 1-.07-.118h-.194a.319.319 0 0 0 .13.227c.075.06.176.09.297.09a.48.48 0 0 0 .337-.11.485.485 0 0 0 .13-.262c.014-.07.02-.173.02-.305v-.918l-.214.003v.142a.202.202 0 0 0-.091-.117.386.386 0 0 0-.222-.062zm6.624 0c-.194 0-.333.076-.417.226-.061.107-.091.258-.091.448 0 .201.032.354.092.463.083.14.22.21.416.21.174 0 .302-.067.382-.2.068-.113.102-.278.102-.491 0-.207-.037-.365-.112-.476-.081-.12-.204-.18-.372-.18zm5.87 0c-.177 0-.302.084-.377.255a1 1 0 0 0-.07.4c0 .242.037.417.112.526.073.11.185.165.336.165a.418.418 0 0 0 .247-.073c.109-.073.163-.19.163-.351v-.037h-.195v.05a.353.353 0 0 1-.033.167c-.034.057-.094.086-.182.086-.098 0-.164-.048-.2-.145a.835.835 0 0 1-.033-.276V9.6h.66v-.1c0-.164-.02-.29-.065-.38-.066-.14-.187-.211-.362-.211zm1.591 0c-.194 0-.333.076-.417.226a.938.938 0 0 0-.09.448c0 .201.03.354.092.463.082.14.22.21.415.21.174 0 .302-.067.382-.2.069-.113.102-.278.102-.491 0-.207-.036-.365-.11-.476-.082-.12-.206-.18-.374-.18zm6.847 0a.46.46 0 0 0-.28.08.287.287 0 0 0-.115.245l.007.065h.175c0-.084.014-.145.043-.18.03-.034.088-.05.17-.05.072 0 .125.014.156.044.027.024.038.054.038.096v.124a.088.088 0 0 1-.021.061c-.014.017-.046.032-.095.046l-.313.107a.306.306 0 0 0-.157.117.417.417 0 0 0-.057.237c0 .104.023.182.068.234.055.07.151.103.284.103a.354.354 0 0 0 .176-.046.403.403 0 0 0 .138-.149c.004.062.025.105.058.128a.252.252 0 0 0 .15.038l.102-.008v-.14c-.046 0-.076-.007-.093-.02-.017-.015-.025-.043-.025-.086v-.656a.486.486 0 0 0-.052-.256c-.059-.088-.177-.134-.357-.134zm2.274 0c-.193 0-.332.076-.416.226-.06.107-.09.258-.09.448 0 .201.03.354.093.463.081.14.217.21.413.21.174 0 .302-.067.384-.2.067-.113.101-.278.101-.491 0-.207-.037-.365-.111-.476-.082-.12-.206-.18-.374-.18zm1.278 0a.366.366 0 0 0-.199.06.354.354 0 0 0-.113.1v-.125l-.214.002v1.257h.214v-.87a.25.25 0 0 1 .076-.195.284.284 0 0 1 .198-.068c.073 0 .126.028.157.081a.444.444 0 0 1 .038.202v.85h.215v-.958c0-.12-.032-.206-.095-.257-.061-.053-.153-.079-.277-.079zm-34.03.035.45 1.214c0 .08-.025.14-.072.173a.268.268 0 0 1-.158.039.301.301 0 0 1-.159-.043v.18c.06.016.118.024.172.024.1 0 .174-.02.217-.06.1-.078.181-.236.25-.475l.374-1.052h-.213l-.312.992-.333-.992zm11.595 0V9.9c0 .116.029.198.086.255.056.054.139.082.248.082a.373.373 0 0 0 .33-.195v.16h.196v-1.26h-.197v.87a.263.263 0 0 1-.1.204.32.32 0 0 1-.209.088.144.144 0 0 1-.112-.047c-.03-.03-.045-.078-.045-.139v-.975zm8.53 0V10.2h.195V8.944zm7.774 0V9.9c0 .116.029.198.084.255.058.054.14.082.25.082a.37.37 0 0 0 .329-.195v.16h.197v-1.26h-.197v.87a.263.263 0 0 1-.101.204.321.321 0 0 1-.208.088.145.145 0 0 1-.113-.047c-.03-.03-.045-.078-.045-.139v-.975zm3.906 0V10.2h.194V8.944zm-20.939.106c.084 0 .15.048.192.14a.79.79 0 0 1 .06.338v.055c0 .128-.013.23-.038.307-.041.124-.112.186-.214.186a.255.255 0 0 1-.224-.109c-.047-.074-.07-.197-.07-.37 0-.166.012-.284.035-.359.044-.125.131-.188.26-.188zm4.063 0c.103 0 .179.064.226.192a.97.97 0 0 1 .048.323c0 .178-.023.309-.069.39-.045.083-.11.124-.194.124H32.3a.259.259 0 0 1-.216-.18.903.903 0 0 1-.037-.3c0-.132.014-.243.043-.334.042-.144.118-.215.227-.215zm12.16 0c.103 0 .177.064.224.192a.97.97 0 0 1 .048.323c0 .178-.021.309-.067.39-.045.083-.11.124-.194.124h-.028c-.105-.015-.176-.076-.216-.18a.903.903 0 0 1-.037-.3c0-.132.013-.243.041-.334.044-.144.12-.215.228-.215zM19 9.069c.07 0 .123.026.16.076.036.052.055.149.055.295h-.448c0-.1.013-.18.038-.24.038-.087.102-.131.195-.131zm1.104 0c.121 0 .204.06.25.179.027.076.041.188.041.336a.977.977 0 0 1-.04.313c-.042.12-.119.18-.23.18a.247.247 0 0 1-.25-.173.982.982 0 0 1-.042-.34c0-.147.012-.254.034-.322.04-.115.119-.173.237-.173zm13.435 0c.12 0 .204.06.247.179a.99.99 0 0 1 .043.336.935.935 0 0 1-.04.313c-.042.12-.118.18-.23.18a.248.248 0 0 1-.25-.173.98.98 0 0 1-.043-.34c0-.147.012-.254.036-.322.04-.115.118-.173.237-.173zm5.89 0c.07 0 .124.026.16.076.037.052.056.149.056.295h-.448c0-.1.012-.18.037-.24a.198.198 0 0 1 .196-.131zm1.57 0c.12 0 .204.06.25.179.027.076.041.188.041.336a.98.98 0 0 1-.04.313c-.041.12-.118.18-.23.18a.248.248 0 0 1-.25-.173.987.987 0 0 1-.042-.34c0-.147.01-.254.034-.322.04-.115.12-.173.238-.173zm9.121 0c.122 0 .206.06.25.179.028.076.041.188.041.336a.984.984 0 0 1-.038.313c-.043.12-.12.18-.232.18a.248.248 0 0 1-.25-.173 1.023 1.023 0 0 1-.042-.34c0-.147.011-.254.035-.322.041-.115.12-.173.236-.173zm-27.656.02h.019c.118 0 .195.04.234.122.026.055.04.158.04.31a.945.945 0 0 1-.036.3c-.04.113-.118.17-.238.17-.091 0-.159-.032-.2-.095-.047-.07-.069-.192-.069-.36 0-.164.018-.278.055-.346.037-.063.102-.098.195-.102zm4.492 0h.02c.116 0 .193.04.233.122a.854.854 0 0 1 .039.31.994.994 0 0 1-.035.3c-.041.113-.12.17-.238.17-.092 0-.16-.032-.2-.095-.048-.07-.07-.192-.07-.36 0-.164.018-.278.057-.346.036-.063.1-.098.194-.102zm4.15.337v.194h.604v-.194zm-6.24.121v.302a.239.239 0 0 1-.089.161.245.245 0 0 1-.162.063.17.17 0 0 1-.125-.05c-.034-.031-.052-.078-.052-.14 0-.103.05-.18.15-.23.055-.026.15-.06.279-.106zm23.195 0v.302a.24.24 0 0 1-.09.161.241.241 0 0 1-.162.063.173.173 0 0 1-.125-.05c-.034-.031-.052-.078-.052-.14 0-.103.05-.18.15-.23.055-.026.15-.06.279-.106z"/></svg>