<svg xmlns="http://www.w3.org/2000/svg" viewBox="0 0 504.88 122.8"><path d="M94.2 13.47A13.47 13.47 0 1 1 80.73 0 13.47 13.47 0 0 1 94.2 13.47Z" style="fill:#008837;fill-rule:evenodd"/><path d="M5.8 34.57S165.4-9.55 0 122.8c89-90.15 5.8-88.23 5.8-88.23Z" style="fill:red;fill-rule:evenodd"/><path d="M102 89.92S9.18 53.17 142.67 7.71C55.61 52.2 102 89.92 102 89.92Z" style="fill:#0a50a1;fill-rule:evenodd"/><path d="M188.59 58.84A20.11 20.11 0 0 0 176.31 55a19.87 19.87 0 0 0-12.21 3.8 12.64 12.64 0 0 0-3.19 17.59 12.4 12.4 0 0 0 3.19 3.19 19.7 19.7 0 0 0 12.21 3.86 20 20 0 0 0 12.28-3.86q5.64-4.14 5.63-10.42t-5.63-10.32Zm-5.12 16.29a10.87 10.87 0 0 1-7 2.41 11.12 11.12 0 0 1-7-2.41 7.3 7.3 0 0 1-3.13-5.93 7.18 7.18 0 0 1 3.13-5.87 11.22 11.22 0 0 1 7-2.35 11.1 11.1 0 0 1 7 2.35 7.18 7.18 0 0 1 3.13 5.87 7.3 7.3 0 0 1-3.13 5.93ZM176.32 36.63v-3.14h-29.5v5.73h21.52q0 5-5.13 8.09Q157.33 51 146 51.25v6.12q12.21-.37 19.9-4.27 10.43-5.28 10.42-16.47ZM188.78 37.31h-10.57v5.73h10.57v2.87h-10.57v5.73h10.57v3.76h7.5V33.43h-7.5v3.88zM435.11 43.26a11 11 0 0 0-4.95-9.26 17.66 17.66 0 0 0-10.78-3.4 18.79 18.79 0 0 0-11.26 3.4 11.09 11.09 0 0 0-3.18 15.36 11.22 11.22 0 0 0 2.34 2.57h-12.86v5.7h10.47v6.11h-8.68v5.69h39.35v10.75h6.88V63.74h-8.66v-6.11h10.41v-5.7H431a11 11 0 0 0 4.11-8.67ZM427 63.74h-15.33v-6.11H427Zm-1.71-14.82a8.93 8.93 0 0 1-5.94 2.18 9.82 9.82 0 0 1-6.35-2.18 6.67 6.67 0 0 1-2.77-5.29 6.76 6.76 0 0 1 2.77-5.41 10 10 0 0 1 6.36-2.13 9.08 9.08 0 0 1 5.94 2.13 6.64 6.64 0 0 1 1.42 9.28 6.83 6.83 0 0 1-1.42 1.42ZM251.71 30.81h7.23v51.73h-7.23zM210.49 39.16h24.66q0 11.58-6.18 18.1-6.54 6.9-19.4 7.24v6.41q13.43-.51 22-6.41 12.08-8.25 12.08-26.25v-4.93h-33.16ZM299.26 59.44h18v-7.13H283s-4.46.71-4.46-5.89v-7h38.15l.18-6.23h-45.1v16s-.18 10.16 9.45 10.16h10.87v13.28H270v7.13h49.91v-7.13h-20.65ZM378.23 51.77V33.05h-44.54v6.63l37.9-.06v11.62c0 9.46-3.91 18.13-5.54 21.33h-3.78V55.72h-7.14v16.85H349V55.72h-7.14v16.85h-10v7.13h49.91v-7.13h-9.13c3.85-5.9 5.59-20.8 5.59-20.8ZM498.23 29.64v10.07h-5.58v5.57h5.58v9.35h6.65V29.64h-6.65zM484.92 55l4-5c-6.85-2.39-10.82-8.29-12.24-10.78h11.88v-6h-12.27v-3.76h-7.73v3.77h-13.31v5.94h11.59A28.61 28.61 0 0 1 454 51.4l3.95 5s9.25-4 13.82-11.52C476.44 52.05 484.92 55 484.92 55ZM499.53 59.17a19.9 19.9 0 0 0-23.17 0 12.58 12.58 0 0 0-2.7 17.6 12.8 12.8 0 0 0 2.7 2.7 18.27 18.27 0 0 0 11.56 3.77 18.47 18.47 0 0 0 11.61-3.77 12.33 12.33 0 0 0 0-20.3Zm-4.84 15.92a10.14 10.14 0 0 1-6.69 2.34 10.27 10.27 0 0 1-6.65-2.34 7.25 7.25 0 0 1-3-5.8 7 7 0 0 1 3-5.73 10.42 10.42 0 0 1 6.65-2.3 10.25 10.25 0 0 1 6.65 2.3 7.09 7.09 0 0 1 3 5.73 7.27 7.27 0 0 1-2.96 5.8ZM153.56 109.21v-1.58h5.72v5a10 10 0 0 1-2.72 1.58 8.06 8.06 0 0 1-2.87.53 7.6 7.6 0 0 1-3.62-.85 5.57 5.57 0 0 1-2.45-2.47 7.77 7.77 0 0 1-.83-3.6 8.25 8.25 0 0 1 .83-3.68 5.53 5.53 0 0 1 2.37-2.53 7.34 7.34 0 0 1 3.56-.83 7.26 7.26 0 0 1 2.65.47 4.54 4.54 0 0 1 1.86 1.32 6 6 0 0 1 1 2.21l-1.61.45a5.12 5.12 0 0 0-.76-1.62 3.1 3.1 0 0 0-1.29-1 4.73 4.73 0 0 0-1.86-.35 5.51 5.51 0 0 0-2.12.37 3.9 3.9 0 0 0-1.44 1 4.83 4.83 0 0 0-.85 1.34 7 7 0 0 0-.52 2.71 6.48 6.48 0 0 0 .63 3 4 4 0 0 0 1.8 1.81 5.7 5.7 0 0 0 2.53.59 6.29 6.29 0 0 0 3.94-1.45v-2.52ZM165.72 114.51v-5.72l-5.21-7.79h2.18l2.66 4.07a22.94 22.94 0 0 1 1.37 2.28c.41-.7.9-1.5 1.47-2.38l2.62-4h2.08l-5.39 7.78v5.72ZM174.53 114.51V101h9.76v1.59h-8v4.14h7.47v1.58h-7.47v4.6h8.29v1.59ZM186.53 107.93a7.35 7.35 0 0 1 1.81-5.26 6.11 6.11 0 0 1 4.66-1.9 6.54 6.54 0 0 1 3.37.89 6 6 0 0 1 2.29 2.49 8.27 8.27 0 0 1 .78 3.63 7.8 7.8 0 0 1-.83 3.67 5.67 5.67 0 0 1-2.34 2.46 6.83 6.83 0 0 1-3.28.83 6.4 6.4 0 0 1-3.41-.92 5.83 5.83 0 0 1-2.27-2.52 7.57 7.57 0 0 1-.78-3.37Zm1.84 0a5.37 5.37 0 0 0 1.32 3.85 4.57 4.57 0 0 0 6.48.13l.13-.13a5.7 5.7 0 0 0 1.3-4 7.1 7.1 0 0 0-.55-2.88 4.35 4.35 0 0 0-1.64-1.91 4.42 4.42 0 0 0-2.4-.67 4.58 4.58 0 0 0-3.27 1.3c-.91.86-1.37 2.31-1.37 4.38ZM201.73 114.51V101h1.83l7.09 10.6V101h1.71v13.5h-1.83l-7.09-10.61v10.61ZM221.69 109.21v-1.58h5.71v5a9.82 9.82 0 0 1-2.71 1.58 8.12 8.12 0 0 1-2.88.53 7.58 7.58 0 0 1-3.61-.85 5.57 5.57 0 0 1-2.45-2.47 7.62 7.62 0 0 1-.83-3.6 8.38 8.38 0 0 1 .82-3.68 5.53 5.53 0 0 1 2.37-2.53 7.38 7.38 0 0 1 3.57-.83 7.21 7.21 0 0 1 2.64.47 4.54 4.54 0 0 1 1.86 1.32 6 6 0 0 1 1 2.21l-1.61.45a4.89 4.89 0 0 0-.75-1.62 3.1 3.1 0 0 0-1.29-1 4.73 4.73 0 0 0-1.86-.35 5.48 5.48 0 0 0-2.12.37 3.9 3.9 0 0 0-1.44 1 4.87 4.87 0 0 0-.86 1.34 7 7 0 0 0-.51 2.71 6.63 6.63 0 0 0 .62 3 4 4 0 0 0 1.81 1.81 5.65 5.65 0 0 0 2.52.59 5.89 5.89 0 0 0 2.27-.45 6.08 6.08 0 0 0 1.68-1v-2.52ZM236.36 109.21v-1.58h5.72v5a10 10 0 0 1-2.72 1.58 8.06 8.06 0 0 1-2.87.53 7.6 7.6 0 0 1-3.62-.85 5.57 5.57 0 0 1-2.45-2.47 7.62 7.62 0 0 1-.83-3.6 8.38 8.38 0 0 1 .82-3.68 5.53 5.53 0 0 1 2.37-2.53 7.38 7.38 0 0 1 3.57-.83 7.3 7.3 0 0 1 2.65.47 4.44 4.44 0 0 1 1.85 1.32 6 6 0 0 1 1 2.21l-1.61.45a4.89 4.89 0 0 0-.75-1.62 3.1 3.1 0 0 0-1.29-1 4.73 4.73 0 0 0-1.86-.35 5.48 5.48 0 0 0-2.12.37 3.9 3.9 0 0 0-1.44 1 4.87 4.87 0 0 0-.86 1.34 7 7 0 0 0-.51 2.71 6.63 6.63 0 0 0 .62 3 4 4 0 0 0 1.81 1.81 5.65 5.65 0 0 0 2.52.59 5.89 5.89 0 0 0 2.27-.45 5.46 5.46 0 0 0 1.67-1v-2.52ZM245 114.51V101h1.79v13.5ZM250 114.51V101h4.65a11.42 11.42 0 0 1 2.41.19 4.46 4.46 0 0 1 2 1 5.36 5.36 0 0 1 1.6 2.3 9 9 0 0 1 .53 3.22 10 10 0 0 1-.35 2.72 6.76 6.76 0 0 1-.93 2 4.76 4.76 0 0 1-1.23 1.22 5 5 0 0 1-1.61.68 9.31 9.31 0 0 1-2.17.23Zm1.79-1.59h2.88a7.07 7.07 0 0 0 2.1-.25A3.2 3.2 0 0 0 258 112a4.34 4.34 0 0 0 1-1.71 8.17 8.17 0 0 0 .36-2.6 6.36 6.36 0 0 0-.69-3.26 3.52 3.52 0 0 0-1.69-1.52 6.75 6.75 0 0 0-2.32-.28h-2.83ZM263 107.93a7.35 7.35 0 0 1 1.81-5.26 6.11 6.11 0 0 1 4.66-1.9 6.54 6.54 0 0 1 3.37.89 5.84 5.84 0 0 1 2.28 2.49 8.14 8.14 0 0 1 .79 3.63 7.8 7.8 0 0 1-.83 3.67 5.67 5.67 0 0 1-2.34 2.46 6.83 6.83 0 0 1-3.28.83 6.4 6.4 0 0 1-3.41-.92 6 6 0 0 1-2.28-2.52 7.7 7.7 0 0 1-.77-3.37Zm1.84 0a5.43 5.43 0 0 0 1.31 3.85 4.35 4.35 0 0 0 3.3 1.4 4.28 4.28 0 0 0 3.32-1.42 5.75 5.75 0 0 0 1.3-4 7 7 0 0 0-.56-2.88 4.27 4.27 0 0 0-1.63-1.91 4.45 4.45 0 0 0-2.41-.67 4.55 4.55 0 0 0-3.26 1.3c-.88.88-1.34 2.33-1.34 4.4ZM285.87 107.93a7.34 7.34 0 0 1 1.8-5.26 6.15 6.15 0 0 1 4.66-1.9 6.44 6.44 0 0 1 3.37.89 5.8 5.8 0 0 1 2.29 2.49 8.14 8.14 0 0 1 .79 3.63 8.05 8.05 0 0 1-.83 3.67 5.64 5.64 0 0 1-2.35 2.46 6.69 6.69 0 0 1-3.28.83 6.37 6.37 0 0 1-3.4-.92 6 6 0 0 1-2.28-2.52 7.7 7.7 0 0 1-.77-3.37Zm1.84 0a5.43 5.43 0 0 0 1.31 3.85 4.58 4.58 0 0 0 6.49.13l.13-.13a5.75 5.75 0 0 0 1.3-4 7 7 0 0 0-.56-2.88 4.27 4.27 0 0 0-1.63-1.91 4.45 4.45 0 0 0-2.41-.67 4.55 4.55 0 0 0-3.26 1.3c-.91.86-1.37 2.31-1.37 4.38ZM301.18 114.51V101h9.1v1.59H303v4.18h6.34v1.6H303v6.13ZM312.7 114.51V101h9.11v1.59h-7.33v4.18h6.34v1.6h-6.34v6.13ZM324.43 114.51V101h1.79v13.5ZM339 109.78l1.79.45a6 6 0 0 1-2 3.35 5.54 5.54 0 0 1-3.57 1.16 6.5 6.5 0 0 1-3.55-.89 5.47 5.47 0 0 1-2.08-2.57 9.21 9.21 0 0 1-.72-3.62 8 8 0 0 1 .81-3.68 5.51 5.51 0 0 1 2.29-2.39 6.77 6.77 0 0 1 3.27-.81 5.53 5.53 0 0 1 3.41 1 5.43 5.43 0 0 1 1.93 2.9l-1.76.41a4.27 4.27 0 0 0-1.36-2.14 3.64 3.64 0 0 0-2.25-.67 4.31 4.31 0 0 0-2.6.74 4 4 0 0 0-1.47 2 8.63 8.63 0 0 0 .08 5.61 3.78 3.78 0 0 0 1.56 1.92 4.39 4.39 0 0 0 2.29.63 3.85 3.85 0 0 0 2.54-.86 4.49 4.49 0 0 0 1.39-2.54ZM343 114.51V101h9.77v1.59h-8v4.14h7.47v1.58h-7.47v4.6h8.29v1.59ZM363.19 107.93a7.35 7.35 0 0 1 1.81-5.26 6.15 6.15 0 0 1 4.66-1.9 6.44 6.44 0 0 1 3.37.89 6 6 0 0 1 2.29 2.49 8.14 8.14 0 0 1 .79 3.63 8.05 8.05 0 0 1-.83 3.67 5.7 5.7 0 0 1-2.35 2.46 6.72 6.72 0 0 1-3.28.83 6.4 6.4 0 0 1-3.41-.92 5.81 5.81 0 0 1-2.24-2.52 7.47 7.47 0 0 1-.81-3.37Zm1.85 0a5.43 5.43 0 0 0 1.31 3.85 4.57 4.57 0 0 0 6.48.13 1.59 1.59 0 0 0 .13-.13 5.71 5.71 0 0 0 1.31-4 7 7 0 0 0-.56-2.88 4.32 4.32 0 0 0-1.63-1.91 4.45 4.45 0 0 0-2.41-.67 4.58 4.58 0 0 0-3.27 1.3c-.91.86-1.4 2.31-1.4 4.38ZM378.5 114.51V101h9.11v1.59h-7.32v4.18h6.33v1.6h-6.33v6.13ZM398.14 114.51V101h9.76v1.59h-8v4.14h7.47v1.58h-7.47v4.6h8.29v1.59ZM410.68 114.51V101h4.65a11.38 11.38 0 0 1 2.4.19 4.46 4.46 0 0 1 2 1 5.36 5.36 0 0 1 1.6 2.3 9 9 0 0 1 .53 3.22 9.59 9.59 0 0 1-.36 2.72 6.49 6.49 0 0 1-.92 2 4.76 4.76 0 0 1-1.23 1.22 5 5 0 0 1-1.61.68 9.31 9.31 0 0 1-2.17.23Zm1.79-1.59h2.88a7 7 0 0 0 2.09-.25 3.24 3.24 0 0 0 1.22-.7 4.41 4.41 0 0 0 1-1.71 8.46 8.46 0 0 0 .35-2.6 6.36 6.36 0 0 0-.69-3.26 3.5 3.5 0 0 0-1.7-1.52 6.69 6.69 0 0 0-2.31-.28h-2.83ZM433.16 101H435v7.8a9.3 9.3 0 0 1-.46 3.23 4 4 0 0 1-1.66 2 5.91 5.91 0 0 1-3.16.75 6.51 6.51 0 0 1-3.1-.65 3.71 3.71 0 0 1-1.72-1.9 8.83 8.83 0 0 1-.52-3.38V101h1.79v7.79a7.81 7.81 0 0 0 .32 2.59 2.46 2.46 0 0 0 1.13 1.29 3.89 3.89 0 0 0 1.95.45 3.71 3.71 0 0 0 2.8-.89c.56-.6.84-1.75.84-3.44ZM447.56 109.78l1.78.45a6 6 0 0 1-2 3.35 5.54 5.54 0 0 1-3.57 1.16 6.5 6.5 0 0 1-3.55-.89 5.58 5.58 0 0 1-2.08-2.57 9.2 9.2 0 0 1-.71-3.62 8 8 0 0 1 .8-3.68 5.64 5.64 0 0 1 2.3-2.39 6.77 6.77 0 0 1 3.27-.81 5.53 5.53 0 0 1 3.41 1 5.36 5.36 0 0 1 1.92 2.9l-1.76.41A4.15 4.15 0 0 0 446 103a3.62 3.62 0 0 0-2.25-.67 4.31 4.31 0 0 0-2.6.74 4.08 4.08 0 0 0-1.47 2 8.76 8.76 0 0 0 .08 5.6 3.82 3.82 0 0 0 1.56 1.92 4.39 4.39 0 0 0 2.29.63 3.86 3.86 0 0 0 2.55-.86 4.55 4.55 0 0 0 1.4-2.58ZM450.06 114.51l5.19-13.5h1.92l5.53 13.5h-2l-1.57-4.09h-5.65l-1.48 4.09ZM454 109h4.57l-1.4-3.74c-.44-1.14-.75-2.07-1-2.81a17.65 17.65 0 0 1-.73 2.58ZM466.16 114.51V102.6h-4.45V101h10.7v1.59H468v11.91ZM474.55 114.51V101h1.79v13.5ZM478.94 107.93a7.35 7.35 0 0 1 1.81-5.26 6.15 6.15 0 0 1 4.66-1.9 6.44 6.44 0 0 1 3.37.89 6 6 0 0 1 2.29 2.49 8.14 8.14 0 0 1 .79 3.63 8.05 8.05 0 0 1-.83 3.67 5.7 5.7 0 0 1-2.35 2.46 6.72 6.72 0 0 1-3.28.83 6.4 6.4 0 0 1-3.41-.92 5.83 5.83 0 0 1-2.27-2.52 7.57 7.57 0 0 1-.78-3.37Zm1.85 0a5.4 5.4 0 0 0 1.31 3.85 4.57 4.57 0 0 0 6.48.13 1.59 1.59 0 0 0 .13-.13 5.7 5.7 0 0 0 1.3-4 7.1 7.1 0 0 0-.55-2.88 4.32 4.32 0 0 0-1.63-1.91 4.45 4.45 0 0 0-2.41-.67 4.58 4.58 0 0 0-3.27 1.3c-.91.86-1.36 2.31-1.36 4.38ZM494.14 114.51V101H496l7.09 10.6V101h1.72v13.5H503l-7.09-10.61v10.61Z"/></svg>