<svg xmlns="http://www.w3.org/2000/svg" width="941" height="173.581" viewBox="0 0 248.973 45.927"><path fill="#00519b" d="M25.31 45.884c-.052-.052-3.874-.094-8.493-.094l-8.399.001-.539-.289-.539-.288.183-2.25.182-2.25 1.534-3.345 1.535-3.345.583-2.373c.32-1.305.65-3.331.733-4.503l.15-2.129-.406-.338c-.224-.185-1.52-.636-2.88-1.001-1.36-.366-3.407-.97-4.55-1.343l-2.078-.678-1.163-1.114L0 19.43v-2.763l.397-.767c1.11-2.149 5.852-3.964 10.364-3.968l1.105-.001.782-.659c.43-.362.845-.984.921-1.383l.139-.724-.504-.988-.504-.988V5.8c0-.766.192-1.894.427-2.509l.426-1.117.87-.413c.479-.227 1.359-.413 1.955-.413h1.084l.53.53.529.529v.947c0 .522-.314 1.861-.697 2.977l-.697 2.029-.773.885c-.966 1.108-.874 1.632.39 2.227l.993.468.804-.416c1.068-.552 4.6-1.445 5.717-1.445h.89l.251-.66.251-.66-.654-.964c-.655-.966-.739-1.464-.659-3.933l.043-1.323.453-.794c.249-.436.865-1.008 1.37-1.27L27.12 0l.926.137.926.137.448.548c.247.302.526 1.065.621 1.697l.172 1.147-.303 1.462-.304 1.462-.796 1.203-.797 1.202.27.502.268.503 1.96.165c1.077.092 2.481.39 3.12.664l1.163.498.396-.196c.218-.108.754-.302 1.19-.43l.794-.235.088-.616.088-.616-.52-.57c-.286-.313-.713-.95-.948-1.416l-.428-.846V4.69c0-3.08 2.195-4.651 4.15-2.97l.738.635V4.43l-.002 2.077-.484 1.267-.485 1.268.155.618.155.618 1.866.277 1.865.277 1.667.78c.917.429 2.085 1.198 2.596 1.71l.93.93.287 1.154c1.001 4.028-1.223 6.305-8.375 8.573l-3.228 1.024-.156.623c-.086.343.096 1.956.405 3.584.984 5.18 1.448 8.592 1.777 13.046l.178 2.412-.564.565-.564.564-4.432.005c-2.438.003-5.354.044-6.48.09-1.127.048-2.091.044-2.143-.008z"/><path fill="#fff" d="M10.577 21.258c-.004-.109-.42-.848-.926-1.641l-.92-1.443v-3.332l-.992.003c-2.154.006-4.3 1.507-4.3 3.01v.665l.86.622c1.926 1.393 6.303 2.869 6.278 2.117zm31.624-.717c3.786-1.856 4.387-2.673 3.24-4.403l-.595-.9-1.273-.63-1.273-.632-.216.234c-.119.13-.365.711-.547 1.293-.312.999-1.438 3.064-2.82 5.174-1.144 1.745-.283 1.711 3.484-.136z"/><path fill="#fac808" d="M26.577 40.64c-.334-2.23-.12-10.19.324-11.985l.15-.607 1.24-.628c.681-.346 1.907-.803 2.725-1.016l1.485-.388.174 2.284a67.7 67.7 0 0 0 .533 4.534c.66 4.129.7 8.046.086 8.587-.049.043-1.539.163-3.31.266l-3.222.187zm1.998-17.209c0-2.013 5.497-8.62 7.804-9.383l.948-.312.386.32c.213.177.387.613.387.97v.647l-1.252 1.767c-.689.972-1.618 2.252-2.065 2.844-.447.593-.963 1.44-1.146 1.882l-.333.804-1.77.162c-.972.09-2.036.239-2.364.333-.327.093-.595.078-.595-.034z"/><path fill="#eb6323" d="M24.009 22.098c-.36-.717-.804-1.78-.989-2.361-.184-.582-.421-1.178-.527-1.323-1.021-1.409-.84-3.643.336-4.139l.851-.36 3.119.033c3.207.033 3.662.137 3.222.739-1.685 2.303-3.363 4.91-4.259 6.617l-1.1 2.097z"/><path fill="#167b3d" d="M14.414 41.777c-.185-.481.757-4.817 1.367-6.298l.49-1.19-.044-4.448-.045-4.448.839.175c1.338.28 2.906 1.055 3.547 1.753l.593.645.278 1.442c.393 2.028.356 4.31-.12 7.46-.226 1.491-.441 3.248-.48 3.903l-.07 1.19-3.109.086-3.11.086zm.78-19.372-.815-.355-.603-2.504-.603-2.504.43-.831.43-.832.651-.163.651-.164.866.502.865.5.744 1.38c.593 1.097 1.77 4.562 1.77 5.21 0 .293-3.62.095-4.387-.24z"/><path fill="#231f20" d="M56.478 44.907c-3.789-1.881-3.976-5.56-.172-7.33 0 0 .857-.474 1.632-.642l.003-.728.003-.532h-11.05v-2.048h26.198v2.048H61.974v1.26l1.496.496c3.109 1.2 4.034 4.587 1.132 7.019-2.281 1.499-5.285 1.78-8.124.457zm5.882-4.89c-1.034-1.035-2.974-1.443-4.529-.442-1.555 1.002-.441 4.002 2.162 4.002 2.603 0 3.401-2.526 2.367-3.56zm22.847.605c.005-3.314 3.795-5.086 7.133-5.127 3.338-.04 7.161 1.95 7.133 5.16-.029 3.211-3.831 5.1-7.062 5.164-3.23.065-7.21-1.883-7.204-5.197zM95.77 40.6c.101-1.688-1.936-2.95-3.566-2.866-1.63.085-3.305 1.213-3.305 2.866s1.558 2.898 3.392 2.937c1.834.038 3.377-1.25 3.479-2.937zm137.87-1.358c1.047-2.697 4.964-3.833 7.26-3.782 2.297.05 6.806 1.694 6.738 5.195-.068 3.502-2.71 5.136-7.607 5.136s-7.437-3.853-6.39-6.549zm9.475 3.352c1.664-1.21.482-4.812-2.507-4.812-2.988 0-4.386 2.64-2.97 4.44 1.416 1.8 3.814 1.582 5.477.372zM125.27 40.506h-15.997v-2.175h7.937v-1.65h-11.038v-2.186h26.12v2.175l-11.245.143v1.518h8.043v6.816h-3.82zm89.042 2.117v-2.246h-16.009v-1.964l2.053-.078 1.918-.077v-1.852l-3.506-.074-3.708-.074v-2.101h26.132v2.116h-7.144v2.117h3.969v6.615h-3.705zm-3.704-5.292v-1.058h-4.762v2.117h4.762zm-74.612 4.498v-1.058h11.112V36.37h3.704v4.402h11.113v2.117h-25.929zm29.633 0v-1.118h6.615v-8.407h3.44v8.407h2.91v-8.407h3.161l.073 4.168.073 4.239h9.657v2.177H165.63zm18.615-4.552.567-1.136.089-4.432.088-4.432H168.54v-2.116h20.109l-.005 3.902c-.006 4.492.029 7.355-.817 8.387l-.66.885h-3.49l.568-1.058zM97.367 33.76v-1.985H91.81V29.66h5.557v-5.821h3.558v11.906h-3.559zm148.166 0v-1.985h-5.556V29.66h5.556v-5.821h3.44v11.906h-3.44zm-167.682.463c-.577-.487-1.297-1.04-1.297-1.04 2.58-.198 5.426-1.163 6.503-3.855l.274-.728h-5.279v-2.116h5.292v-2.911h3.704v2.911h5.556V28.6h-2.646c-1.455 0-2.646.066-2.646.146 0 1.533 3.8 4.352 5.868 4.352.28 0 .98.057.98.057s-.812.673-1.504 1.131l-1.007.666-1.44-.427c-1.948-.577-3.144-1.22-4.06-2.185l-.766-.806c-1.819 1.98-4.074 2.867-6.67 3.416zm148.167 0c-.419-.354-1.206-1.037-1.206-1.037s.443-.088.868-.088c2.68-.337 4.82-1.85 5.817-4.498h-5.279v-2.116h5.388V23.43h3.705v3.054h5.461V28.6h-2.646c-1.455 0-2.646.066-2.646.146 0 1.533 3.8 4.352 5.868 4.352 1.68-.063.055.8-.525 1.188l-1.006.666-1.441-.427c-1.947-.577-3.143-1.22-4.059-2.185l-.766-.806c-1.82 1.98-4.074 2.867-6.67 3.416zm-86.8-1.147v-8.18h19.749v2.117h-16.092v5.72h16.092v2.087h-17.274c-1.261 0-2.474-.52-2.474-1.744zm-29.57-1.538-.05-7.219h3.644v2.429h12.242V24.32h3.633l-.004 3.686c-.005 3.83-.05 4.04-.971 4.524l-.578.305-16.307-.008c-.49 0-1.609-.317-1.609-1.288zm15.836-1.813v-.92h-12.242v1.912h12.242zm81.903-6.694c5.324 0 8.586 2.634 7.45 6.48-1.135 3.846-9.293 4.674-12.392 1.509-2.669-2.726-.382-7.99 4.942-7.99zm4.015 4.883c.051-1.535-1.299-2.63-2.904-2.63-1.606 0-3.543.65-3.552 2.654-.008 2.003 1.692 2.774 3.392 2.718 1.7-.057 3.013-1.207 3.064-2.742zM49.327 31.447l-1.166-1.15 2.485.047c3.499.068 7.033-1.72 7.033-2.705h-7.808v-2.143h8.185v-2.452h3.856v2.452h8.27v2.143h-8.005s2.316 2.65 7.373 2.65l2.118.006-1.076 1.146-.874.91-1.852-.172c-2.62-.243-4.948-.817-6.494-1.6l-1.33-.674-1.644.768c-1.968.92-3.348 1.264-6.05 1.506l-2.023.182z"/></svg>