<svg xmlns="http://www.w3.org/2000/svg" width="414.04211pt" height="65.965317pt" viewBox="0 0 414.04211 65.965316"><path fill="#052e86" d="M83.114 14.35c6.895 15.034-5.701 35.56-28.126 45.844C32.556 70.49 8.783 66.637 1.885 51.612-5.006 36.578 7.593 16.053 30.014 5.77c22.43-10.29 46.21-6.446 53.1 8.58"/><path fill="#fff" d="M31.181 6.88c-11.47 5.34-20.205 13.576-24.734 22.284H82.11c1.157-4.91.878-9.746-1.084-14.103C74.552.74 52.239-2.92 31.181 6.88"/><path fill="#d20038" d="M48.22 4.36a11.572 11.572 0 0 0-7.787 3.002 10.533 10.533 0 0 1 5.308-1.415c5.7 0 10.317 4.444 10.317 9.918 0 5.48-4.617 9.93-10.317 9.93a10.58 10.58 0 0 1-5.871-1.77 11.536 11.536 0 0 0 8.35 3.55c6.412 0 11.605-5.198 11.605-11.61 0-6.41-5.193-11.605-11.605-11.605"/><path fill="#231916" d="M35.424 11.105H47.92s1.983 0 1.588 2.382c-.397 2.379-1.387 5.358-1.387 5.358h2.976l-.395 1.98H30.257l.405-1.781h5.554l.79-4.165h1.792l-.795 4.165h2.378l.99-4.165h1.99l-.994 4.36h3.762l1.595-6.345h-12.7z"/><path fill="#fff" d="M56.936 53.61v-9.764a4.487 4.487 0 0 0-4.482-4.475h-3.587a4.497 4.497 0 0 0-3.29 1.445v-1.735c0-2.455-2.016-4.469-4.484-4.469h-3.588c-2.465 0-4.487 2.014-4.487 4.47v1.202a4.463 4.463 0 0 0-2.687-.913h-3.584c-2.473 0-4.486 2.012-4.486 4.475l.012 9.97c-.057.514-.097 1.99 1.133 2.056.956.051 1.235-.719 1.304-1.363h.01v-.124a3.085 3.085 0 0 0 0-.547v-9.414a2.984 2.984 0 0 1 2.983-2.977h2.072a2.978 2.978 0 0 1 2.969 2.977v9.534c-.04.603.02 1.85 1.218 1.914 1.36.063 1.44-1.34 1.404-1.952V39.79c0-1.634 1.347-2.972 2.979-2.972h2.072a2.986 2.986 0 0 1 2.977 2.971v14.17h.006c-.04.602.012 1.85 1.284 1.913 1.41.063 1.51-1.287 1.476-1.914h.01v-9.534a2.978 2.978 0 0 1 2.976-2.977h2.07a2.983 2.983 0 0 1 2.977 2.977v9.492c-.051.58-.02 1.892 1.259 1.956 1.393.063 1.486-1.287 1.466-1.914.005-.119.018-.23.018-.349"/><path fill="#231916" d="M124.74 19.259v6.561c0 .306-.17.442-.476.442h-2.99a.486.486 0 0 1-.477-.476V8.176c0-.238.237-.442.476-.442h2.991c.306 0 .476.136.476.442v7.819h4.59c.238 0 .51.204.51.442v2.38c0 .238-.272.442-.51.442zM114.881 29.9c-3.638 0-6.017 1.326-6.017 3.603 0 2.142 2.481 3.4 6.017 3.4 3.332 0 6.153-1.258 6.153-3.4 0-2.244-2.82-3.603-6.153-3.603m0 10.097c-6.22 0-10.063-2.72-10.063-6.63 0-3.773 3.842-6.527 10.063-6.527 5.848 0 10.165 2.686 10.165 6.527 0 3.876-4.317 6.63-10.165 6.63M100.943 26.67l-.884-1.802c-.17-.408-.17-.782.34-1.02 5.575-2.345 9.52-6.187 10.777-10.301.237-.714.204-.986-.477-.986h-9.247c-.272 0-.44-.238-.44-.51V9.808c0-.306.168-.476.475-.476h11.524c2.006 0 2.686.578 2.686 2.039 0 .374-.238 1.496-.306 1.734-1.734 6.222-6.187 10.879-13.36 13.837-.544.238-.918.136-1.088-.272M154.626 33.13c-.306 0-.442-.17-.442-.477V29.56h-5.813c-.238 0-.476-.204-.476-.442v-2.142c0-.238.238-.408.476-.408h5.813V8.176c0-.306.136-.442.442-.442h3.026c.306 0 .442.136.442.442v24.477c0 .306-.136.476-.442.476zM137.628 14.43c0 1.87 1.835 3.264 4.045 3.264 2.244 0 4.08-1.394 4.08-3.264 0-1.802-1.836-3.23-4.08-3.23-2.21 0-4.045 1.428-4.045 3.23m1.462 24.988c-2.074 0-2.618-.646-2.618-2.414v-4.862c0-.238.238-.475.476-.475h2.924c.272 0 .509.237.509.475v3.468c0 .442.137.544.646.544h17.339c.238 0 .476.204.476.442v2.414c0 .272-.238.408-.476.408zm10.437-25.056c0 3.536-3.23 6.29-7.854 6.29-4.623 0-7.785-2.754-7.785-6.29 0-3.365 3.162-6.153 7.785-6.153 4.624 0 7.854 2.788 7.854 6.153m-6.12 10.913v4.895a.524.524 0 0 1-.51.511h-2.821a.525.525 0 0 1-.511-.51v-4.624c-2.685.102-5.881.204-7.717.102-.271 0-.475-.272-.475-.544v-2.108c0-.272.204-.51.475-.51 6.256 0 15.333-.272 20.364-.985.238-.035.544.102.579.374l.237 1.937c.034.374-.204.544-.442.646-2.515.442-6.391.714-9.18.816M167.513 10.624c0-1.666.68-2.278 2.414-2.278h17.95c.306 0 .476.136.476.442v2.074c0 .306-.17.442-.476.442h-16.012c-.409 0-.442 0-.442.442v1.7h15.944c.238 0 .51.203.51.442v2.006c0 .272-.272.44-.51.44h-15.944v1.633c0 .51 0 .51.51.51h16.08c.374 0 .578.136.578.442v1.972c0 .374-.204.544-.578.544h-18.086c-1.802 0-2.414-.612-2.414-2.278zm17.508 29.747c-.272 0-.51-.238-.51-.476V33.3c0-.442-.136-.544-.646-.544H167.31c-.238 0-.476-.171-.476-.408v-2.38c0-.272.238-.408.476-.408h18.868c1.734 0 2.244.612 2.244 2.346v7.989c0 .238-.238.476-.476.476zm-21.86-13.123c-.306 0-.476-.17-.476-.544v-2.176c0-.305.17-.475.476-.475h29.577c.238 0 .51.238.51.475v2.176c0 .272-.272.544-.51.544zM212.357 17.728h5.78v-3.162h-5.78zm-8.226 22.201c-1.769 0-2.313-.646-2.313-2.108v-4.114c0-1.462.477-2.04 2.278-2.04h13.633c.408 0 .442-.102.442-.51v-1.19c0-.51-.034-.544-.476-.544h-15.469c-.238 0-.475-.17-.475-.407v-2.244c0-.238.237-.476.475-.476h17.407c1.904 0 2.345.51 2.345 2.108v4.08c0 1.597-.44 2.073-2.345 2.073h-13.53c-.409 0-.443.068-.443.442v1.393c0 .41.034.41.477.41h16.215c.24 0 .477.203.477.475v2.176c0 .237-.273.476-.442.476zm4.384-23.526h-7.274v3.4c0 .373.203.577.611.577h6.052c.408 0 .611-.204.611-.577zm-8.532 7.173c-2.006 0-2.584-.544-2.584-2.414V8.787c0-.237.204-.407.442-.407h2.923c.24 0 .477.17.477.407v4.454h7.274V8.753c0-.237.205-.442.443-.442h2.958a.45.45 0 0 1 .441.442v2.686h5.78V8.176c0-.306.136-.442.442-.442h3.025c.307 0 .443.136.443.442V24.29c0 .306-.136.476-.443.476h-3.025c-.306 0-.442-.17-.442-.476v-3.434h-5.78v.442c0 1.496-.61 2.278-2.55 2.278zM252.578 23.474v16.081c0 .305-.136.441-.44.441h-3.028c-.305 0-.44-.136-.44-.44V8.175c0-.306.135-.442.44-.442h3.027c.305 0 .441.136.441.442V20.21h4.624c.237 0 .476.17.476.408v2.414c0 .238-.239.442-.476.442zm-24.613 8.16-1.326-1.735c-.306-.407 0-.816.272-.986 5.745-3.535 10.54-9.553 11.797-14.448.17-.782.136-.918-.647-.918h-8.77c-.307 0-.477-.238-.477-.51V10.76c0-.272.24-.476.51-.476h11.083c1.77 0 2.822.748 2.822 1.836 0 .578-.102 1.224-.238 1.734a26.668 26.668 0 0 1-3.195 7.377c1.733 2.38 4.691 5.304 6.595 6.663.306.24.476.613.204.986l-1.462 1.666c-.306.34-.68.374-1.122.068-1.632-1.088-4.555-4.045-6.39-6.425-2.314 2.89-5.203 5.406-8.637 7.615-.374.238-.78.204-1.019-.17M285.965 39.555c0 .306-.17.442-.476.442h-2.992c-.237 0-.475-.17-.475-.442V8.175c0-.237.238-.441.475-.441h2.992c.306 0 .476.136.476.442zm-21.689-27.197c-.17 0-.51-.204-.51-.511V9.774c0-.306.34-.51.51-.51h8.838c.273 0 .58.272.58.544v2.006c0 .272-.273.544-.58.544zm-3.604 20.126-1.054-1.632c-.306-.51-.068-.986.238-1.122 4.998-2.72 9.383-6.63 11.117-10.88.272-.645.544-.917-.544-.917h-8.737c-.272 0-.476-.272-.476-.544v-2.244c0-.272.238-.476.51-.476h11.457c1.937 0 2.617.884 2.617 1.7 0 .544-.102 1.122-.306 1.734-.782 1.904-1.666 3.672-2.855 5.337 1.733 1.904 4.216 3.944 6.153 5.236.374.238.272.578.034.952l-1.292 1.802c-.17.27-.578.34-1.02.034-1.632-1.02-4.419-3.434-6.05-5.338-2.347 2.516-5.27 4.692-8.772 6.493-.374.17-.783.17-1.02-.135M307.794 24.664v6.562h12.816c.24 0 .511.271.511.51v2.243c0 .238-.272.51-.51.51H291c-.273 0-.478-.272-.478-.51v-2.244c0-.272.205-.509.477-.509h12.885v-6.562h-6.323c-1.802 0-2.584-.952-2.584-2.55v-9.927c0-1.733.713-2.21 2.447-2.21h18.664c.307 0 .476.136.476.442v2.38c0 .306-.169.442-.476.442H299.5c-.408 0-.612.204-.612.578v7.003c0 .408.102.613.612.613h16.76c.374 0 .545.033.545.407v2.312c0 .374-.17.51-.408.51zM348.083 27.146c-.102.374-.27.714-.646.68l-2.788-.204c-.374-.034-.408-.272-.305-.646.645-3.4.85-9.213.85-12.918 0-.646-.272-.714-.919-.714h-17.168c-.238 0-.509-.17-.509-.408v-2.448c0-.272.271-.408.51-.408h19.717c1.462 0 2.28.748 2.28 2.414 0 6.119-.376 11.287-1.022 14.652m-14.414-6.12c.306 0 .476.17.476.51v9.452h3.807v-9.451c0-.34.17-.51.477-.51h2.821c.306 0 .476.17.476.51v9.45h10.641c.237 0 .544.273.544.51v2.245c0 .237-.307.509-.544.509h-29.203a.522.522 0 0 1-.51-.51v-2.243a.5.5 0 0 1 .51-.51h7.207v-9.451c0-.34.17-.51.476-.51zM366.376 28.913h6.697v-3.638h-6.697zm-3.57-14.924c0 1.734 2.992 2.958 6.935 2.958 3.943 0 6.901-1.224 6.901-2.958 0-1.666-2.958-3.026-6.9-3.026-3.944 0-6.937 1.36-6.937 3.026m6.936 5.881c-6.867 0-10.81-2.414-10.81-5.983 0-3.434 3.943-5.848 10.81-5.848 6.901 0 10.777 2.414 10.777 5.848 0 3.57-3.876 5.983-10.777 5.983m7.105 20.16c-.272 0-.509-.238-.509-.475v-6.834c0-.442-.137-.544-.647-.544h-16.692c-.237 0-.476-.204-.476-.442v-2.414c0-.27.24-.408.476-.408h3.536v-3.637h-7.615c-.307 0-.477-.17-.477-.51V22.59c0-.272.204-.51.477-.51h29.611c.237 0 .51.272.51.51v2.176c0 .272-.273.51-.51.51h-7.615v3.637h1.088c1.733 0 2.243.612 2.243 2.346v8.296c0 .237-.238.475-.476.475zM404.761 18.375c0-.238.238-.408.477-.408h4.657V8.176c0-.306.136-.442.441-.442h3.027c.305 0 .441.136.441.442v18.766c0 .306-.136.476-.44.476h-3.028c-.305 0-.44-.136-.44-.442v-5.847h-4.658c-.239 0-.477-.204-.477-.442zm-7.07 15.876c0 1.53 2.277 2.72 6.118 2.72 3.842 0 6.12-1.19 6.12-2.72 0-1.53-2.244-2.72-6.086-2.72s-6.153 1.19-6.153 2.72m-4.148 0c0-3.23 3.944-5.711 10.301-5.711s10.2 2.482 10.2 5.71c0 3.299-3.843 5.713-10.234 5.713-6.357 0-10.267-2.414-10.267-5.712M392.93 11.1c-.17 0-.51-.17-.51-.544V8.618c0-.306.34-.51.51-.51h7.956c.271 0 .544.272.544.544v1.87c0 .272-.238.578-.544.578zm-4.759 14.346c-.238-.374.033-.714.34-.884 4.963-2.073 9.417-5.541 10.675-7.99.17-.305.34-.51-.374-.51h-8.738c-.27 0-.475-.27-.475-.542v-2.21c0-.272.238-.408.51-.408h11.388c1.802 0 2.823.475 2.823 1.7 0 .44-.273 1.19-.51 1.733-.647 1.258-1.599 2.584-2.857 3.91 1.565 1.394 3.944 2.822 5.61 3.467.51.17.612.51.306.953l-.952 1.63c-.204.409-.544.51-1.053.307-1.666-.612-4.693-2.618-6.29-4.113a34.69 34.69 0 0 1-8.5 5.03c-.237.103-.748.103-.985-.305zM109.252 56.396c.38 0 .38 0 .38.38v4.31a.468.468 0 0 1-.285.422 8.079 8.079 0 0 1-2.855.503c-3.018 0-5.207-1.876-5.207-5.207 0-3.032 1.985-5.207 5.207-5.207 1.02 0 1.673.068 2.529.34.136.04.19.122.163.272l-.068.502c-.013.123-.081.164-.204.123-.815-.313-1.495-.381-2.42-.381-2.583 0-4.215 1.78-4.215 4.35 0 2.8 1.768 4.35 4.215 4.35 1.006 0 1.727-.121 2.148-.366v-3.535h-2.732c-.123 0-.191-.067-.191-.19v-.476c0-.122.068-.19.19-.19zM119.214 58h-.258c-1.02-.041-1.808.095-2.339.299-.76.272-1.142.816-1.142 1.564 0 .449.136.87.45 1.087.271.218.638.327 1.087.327 1.264 0 2.202-1.02 2.202-2.815zm-4.065-2.447v-.517c0-.122.068-.217.19-.285.64-.34 1.333-.462 2.19-.462 1.808 0 2.61.856 2.61 2.596v3.413c0 .544.013.952.054 1.346 0 .122-.068.19-.19.19h-.49c-.122 0-.19-.068-.19-.19v-1.047c-.38.924-1.373 1.455-2.42 1.455-.91 0-1.59-.272-2.012-.802-.286-.368-.435-.871-.435-1.347 0-1.101.503-1.93 1.577-2.324.652-.231 1.66-.354 3.004-.354h.177v-.408c0-1.142-.476-1.754-1.686-1.754-.815 0-1.536.164-2.189.558-.095.054-.19.027-.19-.068M130.958 61.643c0 .123-.068.19-.19.19h-.544c-.123 0-.19-.067-.19-.19v-4.282c0-1.673-.626-2.298-1.714-2.298-1.468 0-2.257.856-2.257 2.325v4.255c0 .123-.067.19-.19.19h-.544c-.122 0-.19-.067-.19-.19v-5.438c0-.775 0-1.142-.04-1.536-.015-.123.081-.19.19-.19h.49c.121 0 .19.067.19.19v.747c.502-.774 1.141-1.128 2.392-1.128 1.727 0 2.597 1.047 2.597 2.855zM138.882 55.09c-1.468 0-2.216.938-2.216 3.06 0 1.563.91 2.65 2.148 2.65 1.278 0 2.284-1.115 2.284-2.678 0-1.945-.856-3.032-2.216-3.032m-2.597 8.32.04-.598c0-.122.056-.149.178-.08a4.58 4.58 0 0 0 2.026.434c1.645 0 2.447-1.075 2.556-2.815-.422.816-1.292 1.238-2.285 1.238-1.767 0-3.14-1.36-3.14-3.44 0-2.434.857-3.834 3.073-3.834.965 0 1.63.272 2.393 1.087l-.028-.733c0-.123.068-.19.19-.19h.517c.122 0 .19.067.19.19v5.438c0 2.365-1.223 3.834-3.48 3.834-.816 0-1.346-.096-2.093-.327-.11-.027-.15-.095-.137-.204M154.745 61.684c-.027.095-.095.15-.217.15h-.803c-.108 0-.176-.055-.217-.15l-1.931-6.254c-.666 2.108-1.346 4.16-2.012 6.24-.027.11-.11.163-.245.163h-.747c-.123 0-.204-.013-.245-.163l-2.271-7c-.041-.096.028-.192.136-.192h.626c.109 0 .19.068.244.191l1.93 6.2 1.972-6.132c.04-.177.15-.259.313-.259h.639c.177 0 .286.082.327.26l1.889 6.13 1.999-6.199c.04-.109.136-.19.244-.19h.544c.109 0 .177.095.136.19zM166.04 55.974c-.477-.585-1.089-.87-1.836-.87-.762 0-1.36.312-1.836.87-.42.584-.652 1.332-.652 2.188 0 .871.231 1.632.652 2.19.476.584 1.088.883 1.836.883.761 0 1.36-.326 1.835-.884.394-.557.64-1.318.64-2.189 0-.856-.246-1.604-.64-2.188m.802 4.881c-.639.761-1.509 1.196-2.637 1.196-1.129 0-2.013-.435-2.65-1.196-.505-.694-.83-1.618-.83-2.693 0-1.1.271-1.998.83-2.69.637-.79 1.521-1.184 2.65-1.184 1.142 0 1.998.381 2.637 1.183.557.72.843 1.618.843 2.691 0 1.075-.34 2-.843 2.693M178.069 61.643c0 .123-.068.19-.19.19h-.544c-.123 0-.191-.067-.191-.19v-4.282c0-1.673-.625-2.298-1.713-2.298-1.468 0-2.257.856-2.257 2.325v4.255c0 .123-.067.19-.19.19h-.544c-.122 0-.19-.067-.19-.19v-5.438c0-.775 0-1.142-.041-1.536-.014-.123.082-.19.19-.19h.49c.122 0 .19.067.19.19v.747c.503-.774 1.142-1.128 2.393-1.128 1.727 0 2.597 1.047 2.597 2.855zM189.444 61.453l.054-.625c.04-.15.123-.205.23-.137.64.34 1.238.49 2.068.49 1.318 0 2.257-.76 2.257-2.08 0-.53-.435-1.06-1.156-1.537-1.265-.788-3.494-1.658-3.494-3.33 0-1.727 1.59-2.665 3.236-2.665.707 0 1.182.068 1.822.272.135.041.19.122.163.244l-.11.531c-.026.15-.108.19-.23.122-.503-.23-.911-.299-1.66-.299-1.195 0-2.188.571-2.188 1.754 0 .951 1.428 1.658 2.298 2.161 1.183.68 2.352 1.428 2.352 2.828 0 1.795-1.604 2.87-3.345 2.87-.802 0-1.345-.096-2.12-.354-.15-.04-.204-.123-.177-.245M202.126 62.051c-.734 0-1.224-.245-1.455-.72-.149-.327-.232-.898-.232-1.727v-4.337h-1.277c-.123 0-.19-.068-.19-.19v-.408c0-.123.067-.19.19-.19h1.277v-1.836c0-.136.055-.204.177-.204h.572c.122 0 .176.068.176.204v1.835h1.51c.122 0 .19.068.19.191v.407c0 .123-.068.191-.19.191h-1.51v4.8c0 .801.326 1.21.98 1.21.258 0 .543-.056.855-.164.096-.04.191 0 .191.108l.027.354c.014.122-.04.218-.163.272a3.362 3.362 0 0 1-1.128.204M211.668 58h-.259c-1.019-.041-1.807.095-2.338.299-.76.272-1.142.816-1.142 1.564 0 .449.135.87.45 1.087.27.218.638.327 1.086.327 1.265 0 2.203-1.02 2.203-2.815zm-4.065-2.447v-.517c0-.122.068-.217.19-.285.64-.34 1.332-.462 2.188-.462 1.81 0 2.611.856 2.611 2.596v3.413c0 .544.013.952.055 1.346 0 .122-.069.19-.19.19h-.49c-.122 0-.19-.068-.19-.19v-1.047c-.38.924-1.374 1.455-2.42 1.455-.912 0-1.59-.272-2.012-.802-.286-.368-.436-.871-.436-1.347 0-1.101.503-1.93 1.577-2.324.653-.231 1.66-.354 3.005-.354h.177v-.408c0-1.142-.477-1.754-1.687-1.754-.815 0-1.536.164-2.188.558-.096.054-.19.027-.19-.068M219.89 62.051c-.733 0-1.223-.245-1.454-.72-.15-.327-.232-.898-.232-1.727v-4.337h-1.277c-.123 0-.19-.068-.19-.19v-.408c0-.123.067-.19.19-.19h1.277v-1.836c0-.136.055-.204.177-.204h.572c.122 0 .176.068.176.204v1.835h1.509c.123 0 .19.068.19.191v.407c0 .123-.067.191-.19.191h-1.51v4.8c0 .801.327 1.21.98 1.21.259 0 .544-.056.856-.164.096-.04.19 0 .19.108l.028.354c.014.122-.041.218-.163.272a3.362 3.362 0 0 1-1.128.204M229.786 57.646c0-.748-.137-1.305-.449-1.78-.34-.53-.816-.803-1.454-.803-.654 0-1.184.272-1.59.816-.327.49-.572 1.17-.586 1.767zm-4.079.775c-.04 1.795.966 2.814 2.447 2.814.721 0 1.36-.122 1.903-.435.123-.054.177-.027.177.096v.611c0 .082-.054.15-.149.191a5.407 5.407 0 0 1-1.999.353c-2.23 0-3.385-1.29-3.385-3.902 0-1.155.285-2.08.856-2.787.598-.72 1.36-1.074 2.271-1.074 1.02 0 1.74.367 2.27 1.088.462.64.694 1.51.694 2.583 0 .476.014.462-.489.462zM248.613 53.812c-.64-.883-1.522-1.387-2.624-1.387-1.128 0-1.998.504-2.638 1.387-.53.816-.83 1.85-.83 2.991 0 1.142.3 2.19.83 3.005.653.87 1.55 1.387 2.638 1.387 1.102 0 1.985-.504 2.624-1.387.53-.816.829-1.863.829-3.005s-.3-2.175-.83-2.99m.708 6.77c-.79.98-1.903 1.468-3.331 1.468s-2.542-.489-3.345-1.468c-.747-.938-1.114-2.189-1.114-3.78 0-1.509.367-2.719 1.06-3.657.816-.992 1.985-1.577 3.399-1.577 1.428 0 2.569.557 3.386 1.591.707.98 1.073 2.175 1.06 3.643-.013 1.618-.394 2.87-1.115 3.78M258.738 51.189l-.027.394c-.014.109-.095.136-.191.095a1.55 1.55 0 0 0-.557-.095c-.531 0-.884.272-1.034.802-.067.218-.094.694-.094 1.44v.654h1.495c.123 0 .19.068.19.19v.408c0 .123-.067.19-.19.19h-1.495v6.377c0 .122-.07.19-.191.19h-.53c-.122 0-.19-.068-.19-.19v-6.376h-1.32c-.122 0-.19-.068-.19-.191v-.408c0-.122.068-.19.19-.19h1.32v-.558c0-.992.095-1.7.27-2.134.287-.653.845-.98 1.688-.98.257 0 .489.028.693.096.122.04.177.136.163.286M266.39 51.189l-.027.394c-.014.109-.095.136-.191.095a1.55 1.55 0 0 0-.557-.095c-.531 0-.884.272-1.034.802-.067.218-.094.694-.094 1.44v.654h1.495c.123 0 .19.068.19.19v.408c0 .123-.067.19-.19.19h-1.495v6.377c0 .122-.069.19-.191.19h-.53c-.122 0-.19-.068-.19-.19v-6.376h-1.319c-.123 0-.19-.068-.19-.191v-.408c0-.122.067-.19.19-.19h1.319v-.558c0-.992.095-1.7.271-2.134.286-.653.844-.98 1.687-.98.257 0 .489.028.693.096.122.04.177.136.163.286M270.766 61.834c-.123 0-.19-.068-.19-.19v-6.975c0-.122.067-.19.19-.19h.598c.123 0 .19.068.19.19v6.975c0 .122-.067.19-.19.19zm.285-10.591c.367 0 .666.299.666.666a.656.656 0 0 1-.666.653.644.644 0 0 1-.652-.653c0-.367.285-.666.652-.666M279.615 62.01c-2.23 0-3.562-1.686-3.562-3.86 0-2.203 1.442-3.835 3.67-3.835a6.94 6.94 0 0 1 1.606.163c.122.041.189.122.177.26l-.041.434c-.014.11-.082.15-.204.122a4.305 4.305 0 0 0-1.401-.204c-1.85 0-2.801 1.264-2.801 3.06 0 1.631 1.006 3.085 2.693 3.085.638 0 .965-.04 1.495-.19.136-.04.204 0 .218.095l.04.503c.013.136-.054.218-.19.245-.544.095-.993.122-1.7.122M290.421 57.646c0-.748-.137-1.305-.449-1.78-.34-.53-.816-.803-1.454-.803-.654 0-1.184.272-1.59.816-.327.49-.572 1.17-.586 1.767zm-4.079.775c-.04 1.795.966 2.814 2.447 2.814.721 0 1.36-.122 1.903-.435.123-.054.177-.027.177.096v.611c0 .082-.054.15-.149.191a5.407 5.407 0 0 1-1.999.353c-2.23 0-3.385-1.29-3.385-3.902 0-1.155.285-2.08.856-2.787.598-.72 1.36-1.074 2.271-1.074 1.02 0 1.74.367 2.27 1.088.462.64.694 1.51.694 2.583 0 .476.014.462-.489.462zM307.247 55.974c-.476-.585-1.087-.87-1.835-.87-.762 0-1.359.312-1.835.87-.422.584-.653 1.332-.653 2.188 0 .871.231 1.632.653 2.19.476.584 1.087.883 1.835.883.762 0 1.36-.326 1.835-.884.395-.557.64-1.318.64-2.189 0-.856-.245-1.604-.64-2.188m.803 4.881c-.639.761-1.509 1.196-2.638 1.196-1.128 0-2.012-.435-2.65-1.196-.504-.694-.83-1.618-.83-2.693 0-1.1.271-1.998.83-2.69.638-.79 1.522-1.184 2.65-1.184 1.142 0 2 .381 2.638 1.183.557.72.843 1.618.843 2.691 0 1.075-.34 2-.843 2.693M316.912 51.189l-.027.394c-.014.109-.095.136-.19.095a1.55 1.55 0 0 0-.558-.095c-.53 0-.884.272-1.034.802-.067.218-.094.694-.094 1.44v.654h1.495c.123 0 .19.068.19.19v.408c0 .123-.067.19-.19.19h-1.495v6.377c0 .122-.069.19-.19.19h-.53c-.123 0-.19-.068-.19-.19v-6.376h-1.32c-.123 0-.19-.068-.19-.191v-.408c0-.122.067-.19.19-.19h1.32v-.558c0-.992.094-1.7.271-2.134.285-.653.843-.98 1.686-.98.257 0 .49.028.693.096.122.04.177.136.163.286M328.11 61.847c-.38 0-.38 0-.38-.38V52.1c0-.34.014-.354.354-.354h4.717c.122 0 .19.068.19.191v.476c0 .122-.068.19-.19.19h-4.08v3.59h3.876c.122 0 .19.067.19.19v.49c0 .121-.068.19-.19.19h-3.875v3.915h4.243c.122 0 .19.068.19.19v.49c0 .122-.068.19-.19.19zM339.189 60.23c.395.652.95 1.006 1.754 1.006 1.468 0 2.202-1.673 2.202-3.086 0-1.74-.761-3.045-2.202-3.045-.775 0-1.36.326-1.754.992-.285.53-.422 1.237-.422 2.053 0 .856.137 1.55.422 2.08m4.867 1.414c0 .122-.068.19-.19.19h-.531c-.122 0-.19-.068-.19-.19v-1.02c-.49.925-1.278 1.387-2.365 1.387-.966 0-1.727-.367-2.271-1.115-.503-.693-.748-1.604-.748-2.746 0-2.543 1.006-3.82 3.019-3.82 1.087 0 1.984.475 2.365 1.169v-4.283c0-.122.068-.19.19-.19h.53c.123 0 .19.068.19.19zM354.78 61.834h-.49c-.121 0-.19-.068-.19-.19v-1.13c-.475 1.089-1.237 1.538-2.433 1.538-1.7 0-2.542-.952-2.542-2.842v-4.541c0-.122.067-.19.19-.19h.544c.122 0 .19.068.19.19v4.296c0 1.537.585 2.312 1.767 2.312 1.373 0 2.243-1.292 2.203-2.828v-3.78c0-.122.068-.19.19-.19h.544c.123 0 .19.068.19.19v5.466c0 .598.014 1.033.027 1.509 0 .122-.067.19-.19.19M363.097 62.01c-2.229 0-3.562-1.686-3.562-3.86 0-2.203 1.442-3.835 3.671-3.835a6.94 6.94 0 0 1 1.605.163c.122.041.189.122.177.26l-.041.434c-.014.11-.082.15-.204.122a4.305 4.305 0 0 0-1.401-.204c-1.849 0-2.801 1.264-2.801 3.06 0 1.631 1.006 3.085 2.693 3.085.638 0 .965-.04 1.495-.19.136-.04.204 0 .218.095l.041.503c.012.136-.055.218-.191.245-.544.095-.993.122-1.7.122M373.551 58h-.259c-1.019-.041-1.807.095-2.338.299-.76.272-1.142.816-1.142 1.564 0 .449.135.87.45 1.087.27.218.638.327 1.086.327 1.265 0 2.203-1.02 2.203-2.815zm-4.065-2.447v-.517c0-.122.068-.217.19-.285.64-.34 1.332-.462 2.188-.462 1.81 0 2.611.856 2.611 2.596v3.413c0 .544.013.952.055 1.346 0 .122-.069.19-.19.19h-.49c-.122 0-.19-.068-.19-.19v-1.047c-.38.924-1.374 1.455-2.42 1.455-.912 0-1.59-.272-2.012-.802-.286-.368-.436-.871-.436-1.347 0-1.101.503-1.93 1.577-2.324.653-.231 1.66-.354 3.005-.354h.177v-.408c0-1.142-.477-1.754-1.687-1.754-.815 0-1.536.164-2.188.558-.096.054-.19.027-.19-.068M381.774 62.051c-.734 0-1.224-.245-1.455-.72-.15-.327-.232-.898-.232-1.727v-4.337h-1.277c-.123 0-.19-.068-.19-.19v-.408c0-.123.067-.19.19-.19h1.277v-1.836c0-.136.055-.204.177-.204h.572c.122 0 .176.068.176.204v1.835h1.509c.123 0 .19.068.19.191v.407c0 .123-.067.191-.19.191h-1.51v4.8c0 .801.327 1.21.98 1.21.259 0 .544-.056.856-.164.096-.04.19 0 .19.108l.028.354c.014.122-.041.218-.163.272a3.362 3.362 0 0 1-1.128.204M387.305 61.834c-.123 0-.19-.068-.19-.19v-6.975c0-.122.067-.19.19-.19h.598c.123 0 .19.068.19.19v6.975c0 .122-.067.19-.19.19zm.285-10.591c.367 0 .666.299.666.666a.656.656 0 0 1-.666.653.644.644 0 0 1-.652-.653c0-.367.285-.666.652-.666M397.88 55.974c-.476-.585-1.087-.87-1.835-.87-.762 0-1.359.312-1.835.87-.422.584-.653 1.332-.653 2.188 0 .871.231 1.632.653 2.19.476.584 1.087.883 1.835.883.762 0 1.36-.326 1.835-.884.395-.557.64-1.318.64-2.189 0-.856-.245-1.604-.64-2.188m.803 4.881c-.639.761-1.509 1.196-2.638 1.196-1.128 0-2.012-.435-2.65-1.196-.504-.694-.83-1.618-.83-2.693 0-1.1.271-1.998.83-2.69.638-.79 1.522-1.184 2.65-1.184 1.142 0 2 .381 2.638 1.183.557.72.843 1.618.843 2.691 0 1.075-.34 2-.843 2.693M409.91 61.643c0 .123-.068.19-.19.19h-.544c-.123 0-.19-.067-.19-.19v-4.282c0-1.673-.627-2.298-1.715-2.298-1.467 0-2.257.856-2.257 2.325v4.255c0 .123-.067.19-.189.19h-.544c-.123 0-.19-.067-.19-.19v-5.438c0-.775 0-1.142-.04-1.536-.015-.123.081-.19.19-.19h.488c.122 0 .191.067.191.19v.747c.503-.774 1.141-1.128 2.392-1.128 1.727 0 2.597 1.047 2.597 2.855z"/></svg>