<svg xmlns="http://www.w3.org/2000/svg" xml:space="preserve" id="레이어_1" x="0px" y="0px" style="enable-background:new 0 0 548.2 110.7" version="1.1" viewBox="0 0 548.2 110.7"><style>.st0{fill-rule:evenodd;clip-rule:evenodd;fill:#0073bc}.st5{fill:#0872ba}</style><path d="M.6 7.7c0 1.4.1 1.8.2 3.2l-.1 2.6c-.2 1.7-.5 3.4-.6 5.1-.1 1.1.2 2.2.4 3.2v11.5s-.1 3-.1 3.6c0 .6.1.7.7.8 1.5.2 1.9.4 3.5.9 2 .6 4.2 1.8 5.4 2.1 1.4.4 1.7.9 3.1 1.2 1.4.4 2.8.9 4.1 1.2 1.5.3 3 .5 4.5.6 2.1.2 4.3 1.2 6.6 1.5 1.4.2 1.4.2 2.9.3 1.2.2 2.2.4 3.4.5 1.1.1 6.1.1 8.3.2 1.6.1 3.2.2 4.8.2 1.1 0 2.2-.1 3.4-.2 1.3-.1 4.9.1 5.8 0 1.5-.1 3-.3 3-.3 2.6-.2 5.1-.5 7.7-.9 1.3-.2 2.8-.7 4.4-1 1.2-.2 2.6-.3 3.9-.7 1.4-.4 2.9-.8 4.4-1.3 1.4-.5 3-.9 4.5-1.5 1.5-.5 2.8-1.3 4.3-1.9 1.5-.6 3-1.4 4.5-2 1.5-.6 2.5-1.3 3.8-1.9 1.6-.7 4.4-2.2 5.4-2.7 1.7-.8 4.8-2.1 5.6-2.4h.5c.3-.1.4-.1.4-.5l-.2-3.2-.4-5c-.1-1-.1-1.9-.2-2.9 0-.7.2-1.5.3-2.2.1-.8.3-1.7.2-2.5-.1-1.1-.2-1.1-.2-2.2v-.4c0-1.3.4-1.6.7-2.9.2-1 .2-1.5.2-2.5s-.1-2-.3-3c0-.1-.3-1.8-.4-1.8l-4.6.3c-1.7.1-1.8-.2-3.5 0-.9.2-1.8.4-2.7.4-1.2 0-2.4-.2-3.6-.2-8.3.3-16-.6-24.4-.7h-4l-4 .2-4-.2-4-.2c-1.8 0-3.5.4-5.3.3-2.2-.2-4.5-.2-6.7-.1l-4 .1-4 .5c-4.2 0-8.4.5-12.6.9-3.8.4-6-.1-9.8-.3C8.7 1.2 4 .2.8.8c-.2 0-.5.2-.5.5.1.7.3 2.1.3 2.2.1 1.5 0 2.5 0 4v.2" class="st0"/><path d="M109.2 87.6c0-.4 0-.7-.1-1-.1-1-.3-2-.4-3l-.1-4.1.3-4.1c-.6-7.8.4-15.7.4-23.5 0-.2-.4-6.9-.4-6.9s-.1-3.3-.1-3.8.1-.7-.1-.5c-.2.2-2.4 1.3-3.3 1.9-.3.2-.9.7-1.1 1-.2.3-.6.6-.8.9-.4.5-4.1 3.1-5.6 3.7-1.5.6-2.6 1-3.9 1.5-1.4.5-2.7 1.3-4 1.8-1.5.5-3.1 1.1-4.5 1.6s-2.9.9-4.3 1.4c-1.6.5-3.6.9-5.2 1.3-2.3.6-4.6 1-7 1.2-.1 0-1.2.1-1.6.2-.2 0-.2.2-.1.2.6 2.5 1.1 5.1 1.9 7.6.2.7.4 1.3.7 2 .9 2.8 1.4 5.5 4.2 6.9 3.4 1.8 8.6 2.1 12.4 2.4 1.8.1 3.2.4 4.2.7 1.3.5 1.5 1.3 2 2.4.3.7 1.1 1.5 1.3 2.4.2 1 .4 1.3.7 2.6.1.3.3.3.4.6.2 1 .2 2 .3 2.9 0 1.2-.1 3-1.8 2.7-.8-.2-5.1-.3-6.4-.3-1.4 0-2.8-.5-4.4-.6-1.4-.1-6.6-1.4-8-1.7-1.5-.3-3-.7-4.5-1.2-1.6-.5-5.8-3.1-6.6-4.2-.8-1.1-2.9-5.4-3.5-6.8-.7-1.5-1-3-1.5-4.6-.7-2-1-4-1.5-6.1-.2-.9-.2-1.9-.2-2.8-.1-1-.1-2.1 0-3.1 0-.1 0-.3-.1-.3-2.1.2-4.1.5-6.1.4-.1 0-1.6-.1-2.1-.1-.1 0-.2.1-.2.2 0 .7-.3 1.4-.4 2-.5 1.8-1 3.6-1.6 5.4-.3.8-.4.8-.7 1.6-.4 1.2-.8 2.8-1.5 4.7-.5 1.4-1.1 3-1.8 4.7-1 2.5-.8 2.6-1.8 5.1-.6 1.6-1.7 3-2.4 4.4-.8 1.7-1.5 3.3-2.4 4.7-1 1.6-2 3-2.9 4.2-1.5 1.9-2.7 3.3-3.7 3.7-1.4.6-2.9.6-4.5.3-2-.4-3.8-1.4-5.8-1.9-.4-.1-.9-.3-1.3-.4-.3-.1-.7-.1-.9-.3-1.1-.7-.8-2.3.1-3.5.7-1 1.7-1.8 2.3-2.4 2.1-2 3.4-3.9 5.2-6.2 1-1.3 1.9-2.7 2.9-4.2.8-1.3 3.9-7.2 4.6-8.8.6-1.4 1.6-2.7 2.2-4.3.9-2.2 1.8-4.3 2.5-6.5.3-1 .6-2 1-2.9 0-.1.1-.1 0-.2s-.5-.1-.8-.1c-.4 0-.7 0-1.1-.1-.8 0-1.6-.3-2.3-.4-1.5-.2-3.1-.2-4.6-.4-1.5-.2-3.7-.8-5.2-1.1-1.5-.3-3.3-.5-4.8-.9-1.4-.3-2.8-.7-4.2-1-1.6-.4-1.4-.9-2.9-1.4-2-.6-5-2.1-6-2.4-1.4-.5-1.3-.9-2.6-1.6-.5-.3-.9-.5-1.4-.8-.1-.1-.4-.4-.4.2 0 .5.1 1.3.1 1.3-.4.1-.1.6 0 1.2 0 1.1-.2 2.1-.2 3.2l.1 4-.3 4c-.1 1.1-.4 2.3-.6 3.5-.3 2.1 0 4.3.1 6.4.1 2.2.2 4.4.2 6.6v3.7l-.1 4.1c0 2.2-.1 4.3.1 6.5.1.8.1 1.6.1 2.5V99l-.2 2.7c-.1 2-.3 3.9-.6 5.8-.1.5-.1.8.7.8 2.6.2 5 .4 7.6.4 3.9.1 6.2-.2 10.1-.2 1.2 0 2.4.1 3.5.2l4 .3c6.6.2 13.2.4 19.8.5l4 .5 4 .3 4-.1 4-.1 4 .2 3.9.4h4c1 0 2-.2 3-.2 1.4-.1 2.8-.1 4.2-.1 1.4 0 2.7-.4 4-.8 1.3-.3 2.8-.3 4.2-.3 2.3-.1 4.5-.3 6.8-.2 2.3.1 2.9.2 5.2.2 1.4 0 2.8 0 4.1-.1.2 0 2.3-.1 3.3-.1.7 0 .6-.4.6-.6-.2-1.4-.4-4.3-.3-5.7.1-1.2.3-.8.3-2 0-1.3-.1-3.7-.1-5l.3-4c0-1.5.1-2.8 0-4.2" class="st0"/><path d="M48.5 33.9c0 .1.1.2.3.3.3.2.8.3 1.1.4 1 .3 2 .4 3 .4 1.4 0 2.8-.2 4.1-.5 1.6-.4 2.9-1.2 3.4-2.1.3-1.2.5-2.5.6-3.7.1-1.2.2-2.9.3-4.1.1-.8.2-1.5.3-2.3.1-.7.2-1.2-.3-1.7-.4-.4-.8-.7-1.3-1-1-.6-2-.8-3.2-.8l-4.3 1.1c-.7.6-1.6 2.2-2.4 4.2-.6 1.4-1.1 3.4-1.4 5-.4 1.7-.5 3.3-.3 4.4.1 0 .1.2.1.4" style="fill-rule:evenodd;clip-rule:evenodd;fill:#fdb934"/><path d="M29.6 38.2c.3.2.7.2 1 .3.7.2 1.6.5 2.3.5.4 0 1-.2 1.4-.4.7-.2 1.4-.7 2-1 .7-.4 1.2-.8 1.7-1.4.2-.2.5-.5.6-.8.1-.4 0-.7-.1-1.1l-.3-2.7c-.2-1.4-1.9-4.2-2.4-5.4-.4-1-.6-1.4-1.2-1.9-1-.8-2.8-.8-4.1-.8-1.1 0-4.3-.4-5 .9-.6.8 0 2.4.1 3.4.1 1.1.2 2.6.6 4 .3 1.3.8 2.6 1.4 3.8.5 1.1 1.2 2.1 2 2.6" style="fill-rule:evenodd;clip-rule:evenodd;fill:#4eb857"/><path d="m70 36.6 1.3 1.1c1 .6 2.3 1.2 3.4 1.2 1.1.1 2.9-1.1 3.9-2.3.9-1.1 2.3-2.7 3.5-4.4 1.3-1.8 2.3-3.6 2.2-4.8 0-1-1.1-2.4-2.1-2.7-1.3-.4-2.8-.4-4.2-.7-.6-.1-1-.4-1.6-.6-.4-.1-3.2.8-3.4 1.5 0 .1-1.3 2-2.6 3.9-1 1.6-2 3.1-2.1 3.3-.1 1.2.5 1.6.8 2.3.3.7.3 1.3.9 2.2" style="fill-rule:evenodd;clip-rule:evenodd;fill:#f26521"/><path d="M161 50.7c-.9 1.1-1.5 2.5-1.4 3.9 0 1.5.5 2.8 1.4 3.9.9 1.1 2.2 1.6 3.7 1.6 1.4 0 2.7-.6 3.6-1.6.9-1.1 1.4-2.4 1.4-3.9 0-1.4-.5-2.8-1.4-3.9-.9-1.1-2.2-1.7-3.6-1.6-1.5 0-2.8.5-3.7 1.6m14.4 7.8c-.6 1.2-1.4 2.2-2.5 3-1.1.9-2.3 1.6-3.7 2-1.4.5-3 .7-4.6.7-1.6 0-3.1-.2-4.6-.7-1.4-.4-2.6-1.1-3.7-2-1-.8-1.9-1.8-2.5-3-.6-1.2-.9-2.5-.9-3.8 0-1.9.5-3.4 1.4-4.5.8-1.1 1.9-2 3.1-2.6 1.1-.6 2.5-1.1 4.4-1.5.4-.5.5-.8 0-1.1-.4-.2-.6-.5-.6-.7 0-.9 1-1.3 3-1.1 2 .2 3.2.5 3.6 1 .4.5.5.8.2 1-.3.2-.4.5-.4.9 0 0 .5.2 1.4.3.9.2 1.9.6 3 1.2s2.1 1.5 3 2.6c.9 1.1 1.3 2.6 1.3 4.5 0 1.3-.3 2.6-.9 3.8m-10-33.1c-.3 1.6-.6 3-1 4.4-.5 1.7-1.2 3-2 4-.7.9-1.8 1.4-3 1.1-.9-.2-1.3-.8-1.3-1.8.1-1 .2-2.2.5-3.7.2-1.2.3-2.3.4-3.4s.2-2.3.2-3.7c-1 0-2.7.2-5.2.3l-3.8.3c-1.3.2-2.4.6-3.5 1.1-1 .5-3.4-.3-7.1-2.6-.7-.4-1.1-1.1-1.4-1.8-.3-.8.8-1.1 3.3-.8 2.1.3 5.2.5 9.4.4 4.2-.1 6.7-.3 7.6-.5.9-.3 1.9-.5 3.2-.6 1.3-.1 2.4-.1 3.2.2 1.6.4 2.2 1.1 1.8 2-.4.9-.7 1.7-1 2.6 0 .8-.2 1.7-.3 2.5m11.2 10.2c0 3.6-.4 6.2-1.2 7.8-.8 1.6-1.7 2.4-2.6 2.5-.7 0-1.3-.4-1.7-1.4-.4-1-.7-2.8-.8-5.3-3.2.6-6.9 1.3-11.1 2-4.3.7-7.7 1.2-10.3 1.3-1.6.3-3 .7-4.1 1.3s-3.6-.2-7.4-2.4c-1.4-.8-2.1-1.6-2.2-2.4-.1-.8 1-1.1 3.2-.9.9.1 1.9.2 3.1.2 1.6.1 3.2.1 4.9.1h1.7v-6c0-.7-.3-1.3-.9-1.7-.6-.4-1.3-.7-2.1-.9-1-.3-1.4-.8-1.2-1.4.2-.7 1.1-1 2.7-1 .5 0 1.6 0 3.1.1s2.7.2 3.4.4c1.2.3 1.6.9 1.5 1.7-.2.8-.3 1.7-.3 2.5v5.8l8.7-.9c2.9-.4 5.4-.7 7.5-1V19.9c0-.9-.3-1.9-.9-2.6-.6-.6-1.6-1.2-2.9-1.8-1.1-.5-1.6-1.1-1.4-1.8.1-.7 1.1-1 2.9-1 .5 0 1.8.2 3.7.4 2 .3 3.3.5 4 .8 1.1.4 1.5 1 1.2 1.9-.3 1.1-.4 2.2-.4 3.4v12.4c.7-.1 1.5-.2 2.2-.4.6-.1 1.2-.4 1.7-.8.3-.3 1-.5 2.1-.5 1 0 1.9 0 2.9.1 2 .4 2.9 1.3 2.6 2.6-.2 1.4-1.3 2.1-3.1 2.1h-8.4l-.1.9zm57.2-2.6c-.7 1-2.1 1.1-4.1.5-2.4-.7-4.8-1.5-7.2-2.1l-8.6-2.5c-2.8 1.5-5.7 2.8-8.7 3.9-3.1 1.1-6 2-8.7 2.5-2 .4-3.2.2-3.7-.6-.5-.7-.3-1.2.6-1.5 4.6-1.3 9-3.3 13.1-5.7 4.4-2.6 8.2-5.2 11.3-8-1.7.1-3.5.2-5.4.3-2 .1-3.3.3-4.1.4-.6 0-1.1.1-1.6.3-.2.1-.5.2-.7.2-.7.3-1.6.5-2.6.7-1 .2-2.9-.6-5.6-2.3-1.2-.8-1.6-1.5-1.3-2.1.3-.6 1.2-.9 2.8-.7l2.1.2c1 .1 2.2.1 3.4.1 2.1 0 4.9 0 8.3-.1 3.5-.1 5.6-.3 6.3-.7.6-.3 1.8-.4 3.7-.4 1.9 0 3 .1 3.4.3 1.2.3 1.8.9 1.7 1.8-.1.9-.8 1.9-2.2 3-1.2 1-2.5 2.1-3.8 3.1-1.3 1-2.7 2-4.1 2.8 1.4.3 2.7.6 3.9.9 1.2.2 2.1.4 2.7.5.6.1 1.3.1 1.9-.1.4-.1 1.1-.1 2 .1.9.3 1.8.6 2.6 1.1.8.5 1.5.9 2.1 1.4 1 .9 1.2 1.8.5 2.7m-29.2 10.5c-.6.1-1.2.1-1.8.2-1.6.1-3.1.5-4.5 1.3-1.2.7-4-.1-8.3-2.5-1.7-.9-2.3-1.7-1.8-2.3.4-.6 1.5-.9 3.2-.7 1.6.1 3.1.3 4.6.4 1.5.1 3.5.2 5.9.2l11.5.1c1.3 0 3.5 0 6.7-.1 3.2 0 5.2-.2 6.1-.6 1.9-.8 4.5-1.1 7.7-.9 3.2.2 4.8 1.1 4.7 2.7-.1 1.2-.8 1.8-2 2-1.5.2-3 .2-4.6.1-1.8-.1-3.9-.1-6.2-.1h-9.1v9.2c.1 4.1-.2 7.3-.9 9.4-.7 2.1-1.7 3.2-3 3.3-.9 0-1.6-.8-2.1-2.4-.5-1.7-.7-4.1-.8-7.4V43.2c-2.4.1-4.2.2-5.3.3m61.5 7.2c-1 1.1-1.5 2.5-1.4 3.9 0 1.5.5 2.8 1.4 3.9s2.2 1.6 3.7 1.6c1.4 0 2.7-.6 3.6-1.6.9-1.1 1.4-2.4 1.4-3.9 0-1.4-.5-2.8-1.4-3.9-.9-1.1-2.2-1.7-3.6-1.6-1.6 0-2.8.5-3.7 1.6m14.4 7.8c-.6 1.2-1.4 2.2-2.5 3-1.1.9-2.3 1.6-3.7 2-1.4.5-2.9.7-4.6.7-1.6 0-3.1-.2-4.6-.7-1.4-.4-2.6-1.1-3.7-2-1-.8-1.9-1.8-2.5-3-.6-1.2-.9-2.5-.9-3.8 0-1.9.5-3.4 1.4-4.5.8-1.1 1.9-2 3.1-2.6 1.1-.6 2.5-1.1 4.4-1.5.5-.5.5-.8 0-1.1-.4-.2-.6-.5-.6-.7 0-.9 1-1.3 3-1.1 2 .2 3.2.5 3.6 1 .4.5.5.8.2 1-.3.2-.4.5-.4.9 0 0 .5.2 1.4.3s1.9.6 3 1.2 2.1 1.5 3 2.6c.9 1.1 1.3 2.6 1.3 4.5-.1 1.3-.4 2.6-.9 3.8m-10-33.1c-.3 1.5-.6 2.9-1 4.4-.5 1.7-1.2 3-2 4-.7.9-1.8 1.4-3 1.1-.9-.2-1.3-.8-1.3-1.8.1-1 .2-2.2.5-3.7.2-1.2.3-2.3.4-3.4.1-1 .1-2.3.2-3.7-1.7.1-3.5.2-5.2.3l-3.8.3c-1.2.2-2.4.5-3.5 1.1-1 .5-3.4-.3-7.1-2.6-.7-.4-1.1-1.1-1.4-1.8-.3-.8.8-1.1 3.3-.8 2.1.3 5.2.5 9.4.4 4.2-.1 6.7-.3 7.6-.5.9-.3 1.9-.5 3.2-.6 1.1-.1 2.1-.1 3.2.2 1.6.4 2.2 1.1 1.8 2-.4.9-.7 1.7-1 2.6 0 .8-.2 1.7-.3 2.5m11.2 10.2c0 3.6-.4 6.2-1.2 7.8-.8 1.6-1.7 2.4-2.6 2.5-.7 0-1.3-.4-1.7-1.4-.5-1-.7-2.8-.8-5.3-3.2.6-6.9 1.3-11.1 2-3.4.6-6.9 1.1-10.3 1.3-1.4.2-2.8.7-4.1 1.3-1.1.6-3.6-.2-7.4-2.4-1.4-.8-2.1-1.6-2.2-2.4-.1-.8 1-1.1 3.2-.9.9.1 1.9.2 3.1.2 1.6.1 3.2.1 4.9.1h1.7v-6c0-.7-.3-1.3-.9-1.7-.6-.4-1.3-.7-2.1-.9-1-.3-1.4-.8-1.2-1.4.2-.7 1.1-1 2.7-1 .5 0 1.6 0 3.1.1s2.7.2 3.4.4c1.2.3 1.6.9 1.5 1.7-.2.8-.3 1.7-.3 2.5v5.8l8.7-.9c2.9-.4 5.4-.7 7.5-1V19.9c0-.9-.3-1.9-.9-2.6-.6-.6-1.6-1.2-2.9-1.8-1.1-.5-1.6-1.1-1.4-1.8.1-.7 1.1-1 2.9-1 .5 0 1.8.2 3.7.4 2 .3 3.3.5 4.1.8 1.1.4 1.5 1 1.2 1.9-.3 1.1-.4 2.2-.4 3.4v12.4c.7-.1 1.4-.2 2.2-.4.6-.1 1.2-.4 1.7-.8.3-.3 1-.5 2.1-.5s2.1 0 2.9.1c2 .4 2.8 1.3 2.6 2.6-.2 1.4-1.3 2.1-3.1 2.1h-8.4l-.2.9zm48.7-9.7c-.8.1-1.5.2-2.2.4-.3.1-.6.2-.9.2-.7.2-1.4.4-2 .7-.7.3-2-.1-3.8-1.2.3.6.5 1.2.7 1.8.2.7.3 1.4.3 2.2 0 1.3-.2 2.5-.8 3.7 1 .1 2.4.1 4 .1s3.2 0 4.7-.1v-7.8zm4.6 36.2c-.8 1.5-1.7 2.3-2.6 2.4-.7 0-1.4-.6-1.8-1.8-.5-1.2-.8-2.8-.8-4.9v-9l-7.1.3-5.6.3c-1.4.1-2.7.6-3.8 1.2-1 .6-3.5-.2-7.4-2.5-.6-.5-1.1-1.1-1.3-1.9-.3-.8.8-1.1 3.3-.9 2.2.3 6 .5 11.4.4 5.4-.1 8.5-.3 9.4-.5 1-.3 2.1-.5 3.4-.6 1.1-.1 2.2-.1 3.2.1 1.6.3 2.2 1 1.8 2-.4.9-.6 1.8-.6 2.8v6.4c-.3 2.6-.7 4.7-1.5 6.2m-20.7-36.6c-1.1-1.2-2.6-1.9-4.2-1.8-1.6 0-3.2.6-4.3 1.8-1.1 1.2-1.7 2.7-1.7 4.6 0 1.7.6 3.2 1.7 4.4 1.1 1.2 2.6 1.8 4.3 1.8 1.7 0 3.2-.6 4.2-1.8 1.1-1.2 1.6-2.6 1.6-4.4 0-1.9-.5-3.4-1.6-4.6m16.1-5.6c.1-.9-.3-1.9-.9-2.6-.6-.6-1.6-1.2-2.9-1.8-1.1-.5-1.6-1.1-1.4-1.8.1-.7 1.1-1 2.9-1 .5 0 1.8.2 3.7.4 2 .3 3.3.5 4.1.8 1.1.4 1.5 1 1.2 1.9-.3 1.1-.4 2.2-.4 3.4v14.2c0 3.6-.3 6.2-1.2 7.7-.8 1.5-1.7 2.3-2.6 2.4-.7 0-1.3-.4-1.8-1.3s-.7-2.6-.8-5.1c-.8.1-1.5.2-2.2.4-1.1.3-2.2.6-3.2.9-.9.3-2.5-.5-4.9-2.2-.6.7-1.3 1.3-2 1.8-.8.5-1.6.9-2.4 1.3-3.1 1.3-6.7 1.5-9.9.4-1.4-.5-2.8-1.1-4-2-1.2-.9-2.1-2-2.8-3.2-.8-1.3-1.1-2.8-1.1-4.3 0-2.1.5-3.7 1.5-5 .9-1.1 2-2.1 3.2-2.9 1.2-.7 2.8-1.2 4.7-1.7.5-.6.5-.9.1-1.1-.5-.2-.7-.5-.7-.9 0-1 1.1-1.4 3.2-1.2 2.1.2 3.4.6 3.8 1.2.3.5.4.8.1 1s-.3.5-.3 1c.7.2 1.3.3 1.8.5 1.3.4 2.6 1.1 3.7 1.9.2-.2.4-.3.9-.4.4-.1 1 0 1.8 0 1.4.1 2.7.1 4.1.1 1.7 0 3.3 0 4.9-.1v-2.7zm57.8 41.5c-.6 2.3-1.6 3.5-2.8 3.6-.9 0-1.5-.8-2-2.6-.4-1.8-.7-4.3-.7-7.8V19.9c0-.9-.3-1.9-.9-2.6-.6-.6-1.6-1.2-2.9-1.8-1.1-.5-1.6-1.1-1.4-1.8.1-.7 1.1-1 2.9-1 .5 0 1.8.2 3.7.4 2 .3 3.3.5 4.1.8 1.1.4 1.5 1 1.2 1.9-.3 1.1-.4 2.2-.4 3.4v32.4c.1 4.2-.2 7.5-.8 9.8m-11.9-13c-1.3.5-2.8-.2-4.4-1.9-2.9-3.2-5.8-6.3-8.8-9.4-1.6 2.2-3.4 4.4-5.5 6.5-2 2.2-4.2 3.9-6.5 5.1-1.6.8-2.8 1-3.5.6-.7-.4-.6-1 .3-1.7 2.4-2 5-5 7.8-9.2 2.6-3.8 4.7-8.1 6.1-12.5.3-.7.3-1.5.1-2.2-.2-.6-.7-1.2-1.6-1.7-1.2-.7-1.7-1.4-1.7-1.9s.9-.8 2.6-.7c.9 0 2.1.3 3.8.9 1.7.6 3 1.1 3.8 1.6 1 .6 1.4 1.2 1.3 1.8-.1.6-.3 1.3-.8 2.2-.6 1.4-1.3 2.7-2 4.1-.7 1.4-1.5 2.7-2.3 4.1 1.1.9 2.2 1.9 3.2 2.8 1.1.9 1.8 1.5 2.2 1.8.5.4 1.2.6 1.8.6.5 0 1.1.3 1.6.8.7.7 1.4 1.7 2 2.8.6 1.1 1 1.8 1.1 2.2 1 1.7.8 2.8-.6 3.3m64.6-19.1c-.5 3-1.1 5.8-1.8 8.5-.6 2.4-1.4 4.4-2.2 6-.9 1.6-2 2.2-3.3 2-.9-.2-1.3-.9-1.2-2.1.1-1.2.5-3.3 1-6.2.4-2.2.7-4.4.9-6.5.2-2.4.4-4.7.5-7.1-1.2 0-4.3.2-9.4.4l-7.7.3c-1.4.2-2.8.6-4.1 1.2-1.3.6-3.8-.3-7.5-2.7-.7-.4-1.2-1.1-1.4-1.9-.2-.8.9-1.1 3.3-.9 2.2.4 6.9.5 13.9.4 7.1-.1 11.1-.3 12-.6 1.1-.3 2.3-.5 3.5-.6 1.2-.1 2.3-.1 3.5.1 1.6.4 2.2 1.1 1.7 2.1-.5 1-.8 1.9-1 2.8 0 .2-.3 1.8-.7 4.8m-17 8.2c0-.7-.3-1.3-.8-1.7-.6-.4-1.3-.7-2-.9-1-.3-1.4-.8-1.2-1.5.2-.7 1-1 2.6-1.1.5 0 1.6.1 3.2.2s2.7.2 3.4.4c1.1.3 1.6.9 1.4 1.7-.2.8-.3 1.7-.3 2.6v13.6c1.4-.1 2.7-.1 3.7-.2 1.1-.1 1.8-.2 2.2-.3 1.9-.8 4.4-1.1 7.6-.9 3.2.2 4.7 1.1 4.6 2.7 0 1.2-.7 1.8-2 2-1.5.2-3 .2-4.5.1-2.1-.1-4.3-.1-6.4-.1-2.5 0-5.7 0-9.7.1-4.3 0-7.4.1-9.4.3-1.9.2-2.9.3-3 .3-1.6.1-3.1.5-4.5 1.2-1.2.7-3.9-.1-8.2-2.5-1.6-.9-2.2-1.7-1.8-2.4.4-.7 1.5-.9 3.2-.7 1.5.1 3 .3 4.5.4 1.5.1 3.4.2 5.8.2h.1V39c0-.7-.3-1.3-.8-1.7-.6-.4-1.3-.7-2-.9-1-.3-1.4-.8-1.2-1.5.2-.7 1-1 2.5-1.1l3.2.2c1.6.1 2.7.2 3.4.4 1.1.3 1.6.9 1.4 1.7-.2.8-.3 1.7-.3 2.6V51h5.3V37.5zm54.4 4c-1.9 0-3.8 0-5.8.1v6.2c2.5-.1 5.1-.1 7.6-.2v-6.1h-1.8zm2.2-20.5c-1.1-1.1-2.7-1.7-4.2-1.6-1.6 0-3 .6-4.2 1.6-1.2 1.1-1.9 2.6-1.8 4.2 0 1.7.6 3.1 1.8 4.2 1.2 1.1 2.6 1.6 4.2 1.6s3.1-.5 4.3-1.6c1.2-1.1 1.8-2.6 1.8-4.2s-.7-3.2-1.9-4.2m7.3 8.4c-.7 1.2-1.7 2.3-2.8 3.2-1.3.8-2.6 1.5-4.1 1.9-1.5.4-3.1.7-4.6.7-3 0-6-.9-8.5-2.6-1.2-.8-2.2-1.9-2.9-3.2-.8-1.3-1.1-2.8-1.1-4.3 0-1.9.5-3.5 1.5-4.7s2.1-2.1 3.3-2.7c1.2-.6 2.3-1.1 3.3-1.3 1-.2 1.5-.4 1.5-.4.6-.5.7-.9.2-1.1-.5-.2-.8-.4-.8-.7 0-1 1.1-1.4 3.2-1.3 2.1.1 3.3.5 3.8 1.1.4.5.5.8.3 1-.2.2-.4.5-.4 1 2 .4 3.5 1 4.7 1.6 1.2.6 2.2 1.5 3.2 2.7 1 1.2 1.4 2.7 1.4 4.6-.1 1.8-.5 3.3-1.2 4.5m-22.6 12.7c-1.6.1-3.1.6-4.5 1.3-1.3.7-4.1-.2-8.6-2.6-1.6-.9-2.2-1.7-1.8-2.3.4-.6 1.5-.9 3.2-.8l4.8.4c1.6.2 3.6.2 5.9.2h11.9c1.3 0 3.6 0 6.9-.1 3.3-.1 5.4-.3 6.3-.6 1.9-.7 4.5-1 7.8-.9 3.3.2 4.8 1 4.7 2.7-.1 1.2-.8 1.8-2.1 2-1.3.2-2.8.3-4.6.1-1.3-.1-2.6-.1-3.8-.2-1.6 0-3.3-.1-4.9-.1v5.3c.6 0 1.2-.1 1.8-.1.6 0 1.1 0 1.5.1 1.6.3 2.2 1 1.8 2-.4.9-.6 1.8-.6 2.8v4.4c0 2.6-.4 4.7-1.2 6.3-.8 1.5-1.7 2.3-2.6 2.4-.7 0-1.4-.5-1.8-1.8-.5-1.2-.8-2.8-.8-4.9v-6.9l-7.5.3-5.9.3c-1.3.1-2.6.5-3.8 1.2-1 .6-3.5-.2-7.4-2.5-.6-.4-1.1-1.1-1.3-1.8-.3-.8.8-1.1 3.3-.9 1.4.2 2.9.3 4.4.3V42l-1.1.1m66.4 8.9c-.9 1-1.4 2.4-1.4 3.8s.5 2.7 1.4 3.7c.9 1 2.1 1.6 3.7 1.6 1.4 0 2.7-.5 3.5-1.6.9-1 1.4-2.3 1.4-3.7 0-1.4-.5-2.7-1.4-3.7-.9-1-2.2-1.6-3.6-1.6-1.3 0-2.7.5-3.6 1.5m9.4-31.1c.1-.9-.3-1.9-.9-2.6-.6-.6-1.6-1.2-2.9-1.8-1.1-.5-1.6-1.1-1.4-1.8.1-.7 1.1-1 2.9-1 .5 0 1.8.2 3.7.4 2 .3 3.3.5 4.1.8 1.1.4 1.5 1 1.2 1.9-.3 1.1-.4 2.2-.4 3.4v17.9c0 3.6-.4 6.1-1.2 7.5-.8 1.4-1.7 2.1-2.6 2.1-.7 0-1.3-.5-1.8-1.6s-.7-3-.8-5.7v-5.8c-.5 0-1.1.1-1.6.2l-1.1.3c-.7.2-1.5.4-2.4.7-.9.3-2.5-.5-4.9-2.3-.5-.4-1-1-1.3-1.6-.4-.7.6-.9 2.9-.7 1 .1 2.3.1 3.9.1h4.6V19.9zm4.9 38.7c-.6 1.1-1.4 2.1-2.4 3-1.1.8-2.3 1.5-3.6 2-1.4.5-2.9.7-4.5.7-1.5 0-3.1-.2-4.5-.7-1.3-.4-2.6-1.1-3.7-2-1-.8-1.9-1.8-2.5-3-.6-1.1-.9-2.4-.9-3.6 0-1.9.5-3.3 1.4-4.4.9-1.1 1.9-1.9 3-2.5 1.1-.6 2.5-1.1 4.4-1.5.4-.5.5-.8 0-1s-.6-.4-.6-.7c0-.8 1-1.2 3-1 2 .2 3.2.5 3.6 1 .4.5.5.8.3.9-.2.1-.4.4-.4.8 0 0 .4.2 1.3.3.9.2 1.9.6 2.9 1.2 1.1.6 2.1 1.4 2.9 2.5.9 1.1 1.3 2.6 1.3 4.4-.2 1.2-.5 2.4-1 3.6M523 20.3c-1 0-2 0-2.9-.1-.8-.1-1.6-.4-2.2-.8-1-.6-2-1.4-2.9-2.1-.9-.9-1.1-1.5-.6-2 .5-.4 1.4-.5 2.7-.3 1.5.3 2.9.5 4 .6 1.2.1 2.7.2 4.6.3 2.6.1 3.8.8 3.6 2.1-.1 1.3-1.1 2-3 2.1-1 .1-2.1.2-3.3.2m11.8 23.1c-1.1.7-2.4.4-3.8-.8-.5-.4-1.5-1.3-3-2.7-1.4-1.3-2.8-2.5-4.2-3.7-2.2 2-4.5 3.7-7 5.3-2.2 1.5-4.7 2.6-7.2 3.4-2 .6-3.1.5-3.5-.1-.4-.6-.2-1.1.5-1.5 3.4-1.9 6.6-4.2 9.5-6.8 3.3-2.9 6.1-6.3 8.4-10.1-.8 0-1.5.1-2.3.3-.6.1-1.2.2-1.8.2-.5 0-1 .1-1.5.3-.5.2-.7.2-.8.2-.9.4-1.8.7-2.7.8-.9.2-2.7-.6-5.4-2.5-1.2-.8-1.6-1.5-1.4-2.1.2-.6 1.1-.9 2.8-.7l2.4.2c1.2.1 2.3.2 3.5.2 2.1 0 3.8 0 5.1-.1 1.3-.1 2.3-.3 3.1-.7.6-.3 1.8-.4 3.6-.4s2.8.1 3.1.2c1.1.4 1.5 1 1.1 2-.4 1-1 2-1.7 2.9-.8 1.1-1.6 2.2-2.5 3.2-.8 1-1.6 1.9-2.4 2.7.8.7 1.7 1.3 2.6 1.8.6.3 1.1.5 1.4.4.3-.1.7 0 1.3.4.9.5 1.6 1.3 2.3 2.4.7 1.1 1.2 1.9 1.4 2.3.4 1.4.2 2.3-.9 3" style="fill:#0073bc"/><path d="m148.5 80.9.4 2.9h-1.1c-.2-1.1-.7-1.8-1.3-2.3-.6-.4-1.4-.7-2.4-.7-.8 0-1.5.2-2.1.5-.6.3-1.1.8-1.6 1.3-.4.6-.8 1.2-1 1.8-.4 1.4-.4 2.9 0 4.3.2.7.6 1.3 1 1.9.4.5 1 1 1.6 1.3.6.3 1.3.5 2.1.5.6 0 1.1-.1 1.7-.3.3-.1.5-.2.7-.4v-2.5c0-.2 0-.4-.1-.6 0-.1-.1-.3-.2-.3-.2-.1-.3-.1-.5-.1h-.8v-.8H149.6v.8h-.6c-.1 0-.3.1-.4.2-.1.1-.2.2-.2.4s-.1.4-.1.6v2.2l.3.3v.5c-.8.4-1.6.6-2.4.8-.8.2-1.5.3-2.3.3-1 0-2-.2-2.8-.5-2.5-1-4.2-3.4-4.1-6.1 0-1.8.7-3.5 2-4.8 1.3-1.3 3-2 4.8-2 .8 0 1.6.1 2.4.3.7 0 1.5.2 2.3.5m9.9 7.5-2.3 4.9h-.9l-4.5-11-.3-.6c-.1-.2-.2-.3-.3-.4-.1-.1-.3-.2-.5-.2-.3 0-.5-.1-.8-.1v-.8h4.7v.8h-.7c-.2 0-.3.1-.3.2-.1.1-.1.2 0 .4 0 .2.1.4.2.6l3.3 8.4 1.7-3.7-1.9-4.5-.3-.6c-.1-.2-.2-.3-.3-.4-.1-.1-.3-.2-.5-.2-.2-.1-.5-.1-.7-.1v-.8h4.5v.7h-.6c-.1 0-.2.1-.3.2v.4c0 .2.1.4.2.7l.9 2.3 1-2.2c.1-.3.2-.5.3-.7v-.4c-.1-.1-.2-.2-.4-.2-.3 0-.5-.1-.8 0v-.8H162.7v.7c-.4 0-.8.2-1 .4-.1.1-.2.3-.3.5-.1.2-.2.4-.2.5l-1.7 3.8 1.7 4.2 2.9-7.9c.1-.3.2-.6.2-.8v-.4c-.1-.1-.2-.2-.4-.2h-.8v-.8h3.5v.7h-.5c-.1 0-.2.1-.3.2-.1.1-.2.3-.2.5-.1.3-.2.6-.3.8l-4 10.8h-.9l-2-4.9zm10.2-1h3.1l-1.5-4.5-1.6 4.5zm-.3 1-.8 2.4c-.1.2-.2.5-.2.7 0 .2 0 .3.1.5.1.1.2.2.4.3.3.1.6.1.9.1v.8h-4.4v-.8c.3 0 .5 0 .8-.1.2 0 .4-.1.5-.3.1-.1.3-.3.3-.5.1-.2.2-.5.3-.8l3.8-10.9h1l3.7 10.9c.1.3.2.6.3.8.1.2.2.3.4.5.2.1.3.2.5.2s.4.1.7.1v.8H171.8v-.8c.4 0 .7 0 .9-.1.2 0 .3-.1.4-.2.1-.1.1-.3 0-.5-.1-.3-.2-.6-.2-.8l-.8-2.3h-3.8z" class="st5"/><path d="M188.7 82.6v10.7h-1.1l-8.2-10.2v7.6c0 .4 0 .7.1.9 0 .2.1.3.2.5.1.1.3.2.5.2h.9v.8H176.3v-.8h1c.2 0 .4-.1.6-.2.1-.1.2-.3.3-.5 0-.2.1-.5.1-.9v-8.1c0-.3 0-.5-.1-.8-.1-.2-.2-.4-.4-.5-.2-.1-.4-.2-.7-.2-.3-.1-.7-.1-1.1-.1v-.8h3.1l8.3 10.1v-7.8c0-.3 0-.5-.1-.8 0-.2-.1-.3-.2-.4-.1-.1-.3-.2-.5-.2-.3 0-.6-.1-.9 0v-.8h4.7v.7h-.9c-.2 0-.4.1-.5.2-.1.1-.2.3-.2.5-.1.3-.1.6-.1.9m13-1.7.4 2.9H201c-.2-1.1-.7-1.8-1.3-2.3-.6-.4-1.4-.7-2.4-.7-.8 0-1.5.2-2.1.5-.6.3-1.1.8-1.6 1.3-.4.6-.8 1.2-1 1.8-.4 1.4-.4 2.9 0 4.3.2.7.6 1.3 1 1.9.9 1.2 2.3 1.8 3.7 1.8.6 0 1.1-.1 1.7-.3.3-.1.5-.2.7-.4v-2.5c0-.2 0-.4-.1-.6 0-.1-.1-.3-.2-.3-.2-.1-.3-.1-.5-.1h-.8v-.8H202.8v.8h-.6c-.1 0-.3.1-.4.2-.1.1-.2.2-.2.4s-.1.4-.1.6v2.2l.3.3v.5c-.8.4-1.6.6-2.4.8-.8.2-1.5.3-2.3.3-1 0-2-.2-2.8-.5-2.5-1-4.2-3.4-4.1-6.1 0-1.8.7-3.5 2-4.8 1.3-1.3 3-2 4.8-2 .8 0 1.6.1 2.3.3.9 0 1.6.2 2.4.5" class="st5"/><path d="M207 82.5v8.9c0 1.8-.3 3.2-.9 4.1-.6.9-1.5 1.4-2.8 1.4-.3 0-.5 0-.8-.1-.2-.1-.5-.1-.7-.3-.2-.1-.4-.3-.5-.4-.1-.2-.2-.4-.2-.6 0-.2.1-.4.2-.6.2-.2.4-.3.7-.3.4 0 .8.2 1.1.5.1.1.1.2.1.3 0 .2 0 .3.1.4.1.1.2.2.4.2.5 0 .8-.3 1-.8.2-.5.3-1.4.3-2.7v-10c0-.4 0-.6-.1-.8 0-.2-.1-.3-.2-.5-.1-.1-.3-.2-.5-.2h-.9v-.8H208.5v.8h-.9c-.2 0-.3.1-.5.2-.1.1-.2.3-.2.5.1.3.1.5.1.8" class="st5"/><path d="M220.4 80.1v.9h-.8c-.2 0-.3.1-.4.2-.1.1-.2.3-.2.4v7.3c0 .6-.1 1.2-.3 1.8-.2.5-.5 1-.9 1.4-.4.4-.9.7-1.5.9-.6.2-1.3.3-2.1.3-.7 0-1.4-.1-2-.3-.6-.2-1.1-.5-1.5-.9-.4-.4-.8-.9-1-1.5-.2-.7-.4-1.4-.4-2.1v-7c0-.2-.1-.3-.2-.5-.1-.1-.3-.2-.5-.2-.3 0-.6-.1-.9 0V80c.2 0 .6 0 1.1.1h2.9c.5 0 .9 0 1.1-.1v1h-.9c-.2 0-.4.1-.5.2-.1.1-.2.3-.2.5 0 .3-.1.5 0 .8v5.7c0 1.4.3 2.5.8 3.1.5.6 1.4.9 2.6.9.4 0 .8-.1 1.2-.2.4-.2.7-.4.9-.7.3-.3.5-.7.6-1.1.1-.4.2-.9.2-1.4v-7.2c0-.2-.1-.3-.2-.4-.1-.1-.3-.2-.4-.2-.3 0-.6-.1-.8-.1V80h3.3c.5.2.8.2 1 .1m16.7 3.4-4.4 9.7h-.9l-4.3-9.4-.1 6.9v.8c0 .2.1.3.2.5.1.1.3.2.4.3.2.1.5.1.7.1v.8h-4.9v-.8c.4 0 .8 0 1-.1.2 0 .4-.1.6-.2.2-.1.3-.3.3-.5.1-.2.1-.5.1-.9l.2-8.3c0-.5-.1-.9-.3-1.1-.2-.2-.6-.3-1.3-.3v-.8h3.1l4.8 10.4 4.7-10.4h.7c.9 0 1.7 0 2.5-.1v.9c-.3 0-.5 0-.8.1-.2 0-.3.1-.5.2-.1.1-.2.3-.2.4 0 .2-.1.4-.1.6l.2 8.3c0 .4 0 .7.1.9 0 .2.1.4.3.5.1.1.3.2.6.2.2 0 .6.1 1 .1v.8H235.2v-.8c.4 0 .7 0 1-.1.2 0 .4-.1.6-.2.1-.1.2-.3.3-.5 0-.2.1-.5.1-.9l-.1-7.1zM244.4 81.1v4.8h2.7c.1 0 .2-.1.3-.2.1-.1.1-.3.2-.5v-.8h1v4.4h-1v-.9c0-.2-.1-.4-.1-.5-.1-.1-.2-.2-.3-.2-.2 0-.3-.1-.5 0h-2.2V91c0 .3 0 .6.1.8 0 .2.1.3.2.4.1.1.3.2.5.2h2.1c.4 0 .7 0 1-.1.3-.1.5-.2.7-.3.2-.2.4-.4.5-.7.2-.4.3-.7.4-1.1h1.1c-.2.5-.3 1-.5 1.6-.2.5-.3 1-.4 1.6h-9.4v-.8c.4 0 .7 0 .9-.1.2 0 .4-.1.5-.2.1-.1.2-.3.2-.5V81.9c0-.2-.1-.3-.2-.4-.1-.1-.3-.2-.5-.2h-.9v-.8h8.9v3.1h-1c0-.4-.1-.8-.2-1.2 0-.2-.2-.5-.3-.7-.2-.2-.4-.3-.6-.3-.3 0-.7-.1-1-.1l-2.2-.2zm17.3-.9-.1 2.7h-1.1c0-.3 0-.6-.1-.8 0-.2-.1-.4-.2-.5-.1-.1-.3-.2-.4-.2-.2-.1-.5-.1-.8-.1h-2.1v10.3c0 .2.1.3.2.5.1.1.3.2.5.2s.5.1.9.1v.8h-5.1v-.8c.4 0 .6 0 .8-.1.2 0 .4-.1.5-.2.1-.1.2-.3.2-.5 0-.3.1-.6.1-.9v-9.4h-1.8c-.3 0-.6 0-.8.1-.2 0-.4.1-.5.2-.1.1-.3.3-.3.5-.1.3-.2.6-.2.9h-1.1l.2-2.7c.8 0 1.6.1 2.6.1h6c.9-.2 1.8-.2 2.6-.2" class="st5"/><path d="M264.8 86.2h.9c.5 0 1-.1 1.4-.2.3-.1.7-.3.9-.6.2-.2.4-.5.5-.8.1-.3.2-.6.2-.9 0-.4 0-.7-.1-1-.2-.6-.7-1.1-1.4-1.3-.4-.1-.9-.2-1.3-.2h-1l-.1 5zm1.5 1h-1.6v3.5c0 .3 0 .6.1.8 0 .2.1.3.2.5.1.1.3.2.5.2s.5.1.9.1v.8c-1.7-.1-3.4-.1-5.1 0v-.8h.9c.2 0 .4-.1.5-.2.1-.1.2-.3.2-.5v-9.9c0-.2-.1-.3-.2-.4-.1-.1-.3-.2-.5-.2-.3 0-.6-.1-.9 0v-.8h5.1c.8 0 1.5.1 2.1.3.5.2.9.5 1.3.8.3.3.5.7.6 1.1.1.3.2.7.2 1.1 0 .4-.1.8-.2 1.1-.3.7-.7 1.2-1.3 1.7-.3.2-.6.3-.9.4l1.5 2.4c.5.7 1 1.4 1.6 2.1.3.3.5.6.8.8.3.2.7.3 1.2.3v.8c-1-.1-2-.1-3 0-.4-.5-.7-.9-1-1.4-.7-1-1.4-2.1-2.1-3.2-.3-.5-.6-1-.9-1.4m17.9-.1c0-1-.2-1.9-.5-2.8-.2-.5-.4-.9-.6-1.3-.2-.4-.5-.8-.9-1.1-.3-.3-.7-.6-1.1-.7-.4-.2-.9-.3-1.4-.3-.6 0-1.2.1-1.7.4-.5.3-1 .6-1.3 1.1-.4.5-.7 1.1-.9 1.7-.2.7-.3 1.5-.3 2.2 0 1.5.4 2.9 1.2 4.1.4.6.9 1.1 1.4 1.5.6.4 1.3.6 2 .6s1.2-.1 1.8-.4c.5-.3 1-.6 1.3-1.1.4-.5.6-1 .8-1.7.1-.7.2-1.4.2-2.2m2.1-.5c0 .8-.2 1.7-.5 2.5s-.7 1.5-1.3 2.2c-.6.6-1.3 1.2-2 1.5-.8.4-1.7.6-2.7.6-.9 0-1.7-.2-2.5-.5-1.6-.7-2.8-2-3.4-3.6-.3-.8-.5-1.7-.5-2.5 0-1.7.7-3.4 1.8-4.6.6-.6 1.3-1.2 2.1-1.5.8-.4 1.7-.6 2.7-.6.9 0 1.7.2 2.5.5 1.6.7 2.8 2 3.4 3.6.3.7.4 1.5.4 2.4m3.7.1c.5 0 .9.1 1.4 0 .6 0 1.2-.3 1.6-.7.4-.5.6-1.1.6-2 0-.5-.1-.9-.2-1.3-.3-.7-.9-1.2-1.6-1.5-.3-.1-.7-.2-1.1-.2-.2 0-.5 0-.7.1v5.6zm0 1.1v2.9c0 .4 0 .7.1.9 0 .2.1.3.2.5.1.1.3.2.5.2s.5.1.9.1v.8H286.5v-.8c.4 0 .7 0 .9-.1.2 0 .4-.1.5-.2.1-.1.2-.3.2-.5 0-.3.1-.6.1-.9v-9c0-.2-.1-.3-.2-.4-.1-.1-.3-.2-.5-.2h-.9v-.8H291.2c.7 0 1.3.1 1.8.3.6.2 1 .4 1.4.8.8.7 1.3 1.7 1.3 2.7 0 1-.4 2-1.1 2.7-.4.3-.8.6-1.2.8-.5.2-1 .3-1.5.3h-.8l-1.1-.1zm16.6-.7c0-1-.2-1.9-.5-2.8-.2-.5-.4-.9-.6-1.3-.2-.4-.5-.8-.9-1.1-.3-.3-.7-.6-1.1-.7-.4-.2-.9-.3-1.4-.3-.6 0-1.2.1-1.7.4-.5.3-1 .6-1.3 1.1-.4.5-.7 1.1-.9 1.7-.2.7-.3 1.4-.3 2.2 0 1.5.4 2.9 1.2 4.1.4.6.9 1.1 1.4 1.5.6.4 1.3.6 2 .6s1.2-.1 1.8-.4c.5-.3.9-.6 1.3-1.1.4-.5.6-1 .8-1.7.1-.7.2-1.4.2-2.2m2.1-.5c0 .8-.2 1.7-.5 2.5s-.7 1.5-1.3 2.2c-.6.6-1.3 1.2-2.1 1.5-.8.4-1.7.6-2.7.6-.9 0-1.7-.2-2.5-.5-1.6-.7-2.8-2-3.4-3.6-.3-.8-.5-1.7-.5-2.5 0-1.7.7-3.4 1.8-4.6.6-.6 1.3-1.2 2.1-1.5.8-.4 1.7-.6 2.7-.6.9 0 1.7.2 2.5.5 1.6.7 2.8 2 3.4 3.6.3.7.5 1.5.5 2.4m10.5 3.4-.8 3.1H309v-.8c.4 0 .7 0 .9-.1.2 0 .4-.1.5-.2.1-.1.2-.3.2-.5v-9.8c0-.2-.1-.3-.2-.5-.1-.1-.3-.2-.5-.2h-.9v-.8h5.1v.8h-.9c-.2 0-.4.1-.5.2-.1.1-.2.3-.2.5 0 .3-.1.5 0 .8v8.1c0 .4 0 .7.1.9.1.2.2.4.4.5.2.1.5.2.9.2h1.5c.4 0 .8 0 1.1-.1.3 0 .5-.1.7-.3.2-.2.4-.4.5-.7.1-.3.3-.7.4-1.2l1.1.1z" class="st5"/><path d="M320.1 90.7v-9c0-.2-.1-.3-.2-.4-.1-.1-.3-.2-.5-.2h-.9v-.8h5.2v.7h-.9c-.2 0-.3.1-.5.2-.1.1-.2.3-.2.4v9.8c0 .2.1.4.2.5.1.1.3.2.5.2s.5.1.8.1v.8h-5.1v-.8c.4 0 .6 0 .9-.1.2 0 .4-.1.5-.2.1-.1.2-.3.2-.5v-.7" class="st5"/><path d="m334.3 80.2-.1 2.7h-1.1c0-.3 0-.6-.1-.8 0-.2-.1-.4-.2-.5-.1-.1-.3-.2-.4-.2-.2-.1-.5-.1-.8-.1h-2.1v9.4c0 .4 0 .7.1.9 0 .2.1.3.2.5.1.1.3.2.5.2s.5.1.9.1v.8H326v-.8c.4 0 .6 0 .8-.1.2 0 .3-.1.5-.2.1-.1.2-.3.2-.5 0-.3.1-.6.1-.9v-9.4h-1.8c-.3 0-.6 0-.8.1-.2 0-.4.1-.5.2-.1.1-.3.3-.3.5-.1.3-.2.6-.2.9h-1.1l.2-2.7c.8 0 1.6.1 2.6.1h6c1-.2 1.9-.2 2.6-.2m2.4 7.2h3.1l-1.5-4.5-1.6 4.5zm-.3 1-.8 2.4c-.1.2-.2.5-.2.7 0 .2 0 .3.1.5.1.1.2.2.4.3.3.1.6.1.9.1v.8h-4.4v-.8c.3 0 .5 0 .8-.1.2 0 .4-.1.5-.3.1-.1.3-.3.3-.5.1-.3.2-.5.3-.8l3.8-10.9h1l3.7 10.9c.1.3.2.6.3.8.1.2.2.3.4.5.1.1.3.2.5.2s.4.1.7.1v.8H339.9v-.8c.4 0 .7 0 .9-.1.2 0 .3-.1.4-.2.1-.1.1-.3 0-.5-.1-.3-.2-.6-.2-.8l-.8-2.3h-3.8z" class="st5"/><path d="M356.8 82.6v10.7h-1.1l-8.2-10.2v7.6c0 .4 0 .7.1.9 0 .2.1.3.2.5.1.1.3.2.5.2h.9v.8H344.4v-.8h1c.2 0 .4-.1.6-.2.1-.1.2-.3.3-.5.1-.3.1-.6.1-.9v-8.1c0-.3 0-.5-.1-.8-.1-.2-.2-.4-.4-.5-.2-.1-.4-.2-.7-.2-.3-.1-.7-.1-1.1-.1v-.8h3.1l8.3 10.1v-7.8c0-.3 0-.6-.1-.8 0-.2-.1-.3-.2-.4-.1-.1-.3-.2-.5-.2-.3 0-.6-.1-.9 0v-.8h4.7v.7h-.9c-.2 0-.4.1-.5.2-.1.1-.2.3-.2.5-.1.3-.1.6-.1.9M373.4 84.1c-.6-1.6-1.9-2.9-3.4-3.6-.8-.4-1.6-.5-2.5-.5-.9 0-1.8.2-2.7.6-.8.4-1.5.9-2.1 1.5-.6.6-1 1.4-1.3 2.2-.3.8-.5 1.6-.5 2.5 0 .9.2 1.7.5 2.5.6 1.6 1.9 2.9 3.4 3.6.8.4 1.6.6 2.5.6.9 0 1.8-.2 2.7-.6.8-.4 1.5-.9 2.1-1.5.6-.6 1-1.4 1.3-2.2.3-.8.5-1.6.5-2.5 0-.9-.2-1.8-.5-2.6zm-1.6 3.1c0 .8-.1 1.5-.3 2.2-.2.7-.5 1.2-.8 1.7-.3.5-.8.8-1.3 1.1-.5.3-1.1.4-1.8.4s-1.4-.2-2-.6c-.6-.4-1.1-.9-1.4-1.5-.7-1.3-1.1-2.7-1.2-4.1 0-.7.1-1.5.3-2.2.2-.6.5-1.2.9-1.7s.8-.8 1.3-1.1c.5-.3 1.1-.4 1.7-.4.5 0 1 .1 1.4.3.4.2.8.4 1.1.8.3.3.6.7.9 1.1.3.4.5.9.6 1.3.4.8.6 1.7.6 2.7zM377.8 87v4.7c0 .2.1.4.2.5.1.1.3.2.5.2h.9v.8H374.2v-.8h.9c.2 0 .4-.1.5-.2.1-.1.2-.3.2-.5V81.7c0-.2-.1-.3-.2-.4-.1-.1-.3-.2-.5-.2-.3 0-.6-.1-.9-.1v-.8h8.9l.1 3h-1.1c0-.3-.1-.7-.2-1l-.3-.6c-.2-.2-.4-.3-.6-.3-.3-.1-.7-.1-1-.1h-2.2V86h2.7c.1 0 .2-.1.3-.2.1-.1.2-.3.2-.5 0-.3.1-.5.1-.8h1.1v4.3h-1.1c0-.3 0-.6-.1-.8 0-.2-.1-.4-.2-.5-.1-.1-.2-.2-.3-.2-.2-.1-.4-.1-.5-.1h-2.2z" class="st5"/><path d="M386.5 87v4.7c0 .2.1.4.2.5.1.1.3.2.5.2h.9v.8H382.9v-.8h.9c.2 0 .4-.1.5-.2.1-.1.2-.3.2-.5V81.7c0-.2-.1-.3-.2-.4-.1-.1-.3-.2-.5-.2-.3 0-.6-.1-.9-.1v-.8h8.9l.1 3h-1.1c0-.3-.1-.7-.2-1l-.3-.6c-.2-.2-.4-.3-.6-.3-.3-.1-.7-.1-1-.1h-2.2V86h2.7c.1 0 .2-.1.3-.2.1-.1.2-.3.2-.5 0-.3.1-.5.1-.8h1.1v4.3h-1.1c0-.3 0-.6-.1-.8 0-.2-.1-.4-.2-.5-.1-.1-.2-.2-.3-.2-.2-.1-.4-.1-.5-.1h-2.2z" class="st5"/><path d="M393.1 90.8v-9c0-.2-.1-.3-.2-.4-.1-.1-.3-.2-.5-.2h-.9v-.8h5.2v.8h-.9c-.2 0-.3.1-.5.2-.1.1-.2.3-.2.4v9c0 .4 0 .6.1.9 0 .2.1.4.2.5.1.1.3.2.5.2s.5.1.8.1v.8h-5.1v-.8c.4 0 .6 0 .9-.1.2 0 .4-.1.5-.2.1-.1.2-.3.2-.5-.1-.3-.1-.6-.1-.9m14.7-9.8.2 2.9h-1c-.2-1.1-.5-1.8-1.1-2.3-.6-.5-1.3-.7-2.3-.7-1.3 0-2.6.5-3.5 1.5-.5.5-.8 1.1-1.1 1.8-.2.7-.4 1.5-.4 2.3 0 .9.1 1.8.4 2.5.3.7.6 1.4 1.1 1.9.9 1 2.3 1.6 3.7 1.6.9 0 1.6-.3 2.1-.8.5-.6.9-1.3 1-2.2h1l-.5 3c-.3.2-.5.3-.8.4-.3.1-.7.2-1 .3-.4.1-.7.2-1.1.2-1.3.2-2.6 0-3.9-.4-.8-.3-1.6-.8-2.2-1.4-.6-.6-1.1-1.4-1.4-2.2-.3-.9-.5-1.9-.5-2.8 0-.9.2-1.8.6-2.6.4-.8.9-1.5 1.5-2.1 1.3-1.2 3-1.9 4.8-1.9.8 0 1.5.1 2.2.3.8.2 1.5.4 2.2.7" class="st5"/><path d="M411.4 81.2V86h2.2c.2 0 .3 0 .5-.1.1 0 .2-.1.3-.2.1-.1.1-.3.2-.5v-.8h1v4.4h-1v-.9c0-.2-.1-.4-.1-.5-.1-.1-.2-.2-.3-.2-.2 0-.3-.1-.5 0h-2.2V91c0 .3 0 .6.1.8 0 .2.1.3.2.4.2.1.3.2.5.2h2.2c.4 0 .7 0 1-.1.3-.1.5-.2.7-.3.2-.2.4-.4.5-.7.2-.4.3-.7.4-1.1h1.1c-.2.5-.3 1-.5 1.6-.2.5-.3 1.1-.4 1.6h-9.4v-.8h.9c.2 0 .4-.1.5-.2.1-.1.2-.3.2-.5s.1-.5.1-.8v-8.3c0-.3 0-.6-.1-.8 0-.2-.1-.3-.2-.4-.1-.1-.3-.2-.5-.2h-.9v-.8h8.9v3.1h-1c0-.4-.1-.8-.2-1.2 0-.2-.2-.5-.3-.7-.2-.2-.4-.3-.6-.3-.3 0-.6-.1-1-.1l-2.3-.2zm21.8 6c0-1-.2-1.9-.5-2.8-.2-.5-.4-.9-.6-1.3-.2-.4-.5-.8-.9-1.1-.3-.3-.7-.6-1.1-.8-.4-.2-.9-.3-1.4-.3-.6 0-1.2.1-1.7.4-.5.3-1 .6-1.3 1.1-.4.5-.7 1.1-.9 1.7-.2.7-.3 1.5-.3 2.2 0 1.5.4 2.9 1.2 4.1.4.6.9 1.1 1.4 1.5.6.4 1.3.6 2 .6s1.3-.1 1.8-.4c.5-.3 1-.6 1.3-1.1.4-.5.6-1 .8-1.7.1-.6.2-1.3.2-2.1m2.1-.5c0 .8-.2 1.7-.5 2.5s-.8 1.5-1.3 2.2c-.6.6-1.3 1.2-2.1 1.5-.8.4-1.7.6-2.7.6-.9 0-1.7-.2-2.5-.6-1.6-.7-2.8-2-3.4-3.6-.3-.8-.5-1.7-.5-2.5s.2-1.7.5-2.5.8-1.5 1.3-2.2c.6-.6 1.3-1.2 2.1-1.5.8-.4 1.8-.6 2.7-.6.9 0 1.7.2 2.5.5 1.6.7 2.8 2 3.4 3.6.3.8.5 1.7.5 2.6m3.9.3v4.7c0 .2.1.4.2.5.1.1.3.2.5.2h.9v.8H435.6v-.8h.9c.2 0 .4-.1.5-.2.1-.1.2-.3.2-.5V81.7c0-.2-.1-.3-.2-.4-.1-.1-.3-.2-.5-.2-.3 0-.6-.1-.9-.1v-.8h8.9l.1 3h-1.1c0-.3-.1-.7-.2-1l-.3-.6c-.2-.2-.4-.3-.6-.3-.3-.1-.7-.1-1-.1h-2.2V86h2.7c.1 0 .2-.1.3-.2.1-.1.2-.3.2-.5 0-.3.1-.5.1-.8h1.1v4.3h-1.1c0-.3 0-.6-.1-.8 0-.2-.1-.4-.2-.5-.1-.1-.2-.2-.3-.2-.2-.1-.4-.1-.5-.1h-2.2zm12.9-5.8V86h2.2c.2 0 .3 0 .5-.1.1 0 .2-.1.3-.2.1-.1.1-.3.2-.5v-.8h1.1v4.4h-1.1v-.9c0-.2-.1-.4-.1-.5-.1-.1-.2-.2-.3-.2-.2 0-.3-.1-.5 0h-2.2V91c0 .3 0 .6.1.8 0 .2.1.3.2.4.2.1.3.2.5.2h2.2c.4 0 .8 0 1-.1.3-.1.5-.2.7-.3.2-.2.4-.4.5-.7.2-.4.3-.7.4-1.1h1.1c-.2.5-.3 1-.5 1.6-.2.5-.3 1.1-.4 1.6h-9.4v-.8h.9c.2 0 .4-.1.5-.2.1-.1.2-.3.2-.5s.1-.5.1-.8v-8.3c0-.3 0-.6-.1-.8 0-.2-.1-.3-.2-.4-.1-.1-.3-.2-.5-.2h-.9v-.8h8.9v3.1h-1c0-.4-.1-.8-.2-1.2 0-.2-.2-.5-.3-.7-.2-.2-.4-.3-.6-.3-.3 0-.7-.1-1-.1l-2.3-.2z" class="st5"/><path d="M461.7 81.2v9.7c0 .3 0 .6.1.8 0 .2.1.3.2.4.1.1.3.2.5.2h1c.9 0 1.7-.2 2.3-.5 1.3-.6 2.2-1.7 2.5-3 .2-.7.3-1.4.3-2.2 0-.9-.1-1.6-.4-2.3-.2-.7-.6-1.2-1.1-1.7-.5-.5-1.1-.8-1.8-1.1-.8-.3-1.6-.4-2.4-.4-.3.1-.8.1-1.2.1m-1.9 9.7v-9.1c0-.2-.1-.3-.2-.4-.1-.1-.3-.2-.5-.2-.3 0-.6-.1-.9-.1v-.8h5.3c1.2 0 2.2.2 3.1.5.9.4 1.7.9 2.3 1.5 1.2 1.2 1.9 2.8 1.9 4.5 0 .8-.2 1.6-.5 2.4-.3.8-.8 1.5-1.4 2.1-.6.6-1.4 1.1-2.3 1.5-1.1.4-2.2.6-3.3.6h-5v-.8h.9c.2 0 .4-.1.5-.2.1-.1.2-.3.2-.4-.1-.5-.1-.8-.1-1.1m23.5-10.7v.9h-.8c-.2 0-.3.1-.4.2-.1.1-.2.3-.2.4V89c0 .6-.1 1.2-.3 1.8-.2.5-.5 1-.9 1.4-.4.4-.9.7-1.5.9-.6.2-1.3.3-2.1.3-.7 0-1.4-.1-2-.3-.6-.2-1.1-.5-1.5-.9-.4-.4-.8-.9-1-1.5-.2-.7-.4-1.4-.4-2.1v-7c0-.2-.1-.3-.2-.5-.1-.1-.3-.2-.5-.2-.3 0-.6-.1-.9 0v-.8c.3 0 .6 0 1.1.1h3c.5 0 .9 0 1.1-.1v.8h-.9c-.2 0-.4.1-.5.2-.1.1-.2.3-.2.5 0 .3-.1.5 0 .8v5.7c0 1.4.3 2.5.8 3.1.5.6 1.4 1 2.6 1 .4 0 .8-.1 1.2-.2.4-.2.7-.4.9-.7.3-.3.5-.7.6-1.1.2-.4.2-.9.2-1.4v-7.2c0-.2-.1-.3-.2-.4-.1-.1-.3-.2-.4-.2-.3 0-.6-.1-.9-.1V80h3.3c.4.2.7.2 1 .2m11 .8.2 2.9h-1c-.2-1.1-.5-1.8-1.1-2.3-.6-.5-1.3-.7-2.3-.7-1.3 0-2.6.5-3.5 1.5-.4.5-.8 1.1-1 1.8-.3.7-.4 1.5-.4 2.3 0 .9.1 1.8.4 2.5.3.7.7 1.4 1.1 1.9.9 1 2.3 1.6 3.7 1.6.9 0 1.6-.3 2.1-.8.5-.6.9-1.3 1-2.2h1l-.5 3c-.3.2-.5.3-.8.4-.3.1-.7.2-1 .3-.4.1-.7.2-1.1.2-1.3.2-2.6 0-3.9-.4-.8-.3-1.6-.8-2.2-1.4-.6-.6-1.1-1.4-1.4-2.2-.3-.9-.5-1.9-.5-2.8 0-.9.2-1.8.6-2.6.4-.8.9-1.5 1.5-2.1 1.3-1.2 3-1.8 4.8-1.9.8 0 1.5.1 2.2.3.8.2 1.5.4 2.1.7m4.3 6.5h3.1l-1.5-4.6-1.6 4.6zm-.4 1-.8 2.4c-.1.2-.2.5-.2.7 0 .2 0 .4.1.5.1.1.3.2.4.3.2.1.5.1.9.1v.8h-4.4v-.8c.3 0 .5 0 .8-.1.2 0 .4-.1.5-.3.1-.1.3-.3.3-.5.1-.2.2-.5.3-.8l3.8-10.9h1l3.7 11c.1.3.2.6.3.8.1.2.2.3.4.5.2.1.3.2.5.2.2.1.5.1.7.1v.8H501.7v-.8c.4 0 .7 0 .9-.1.2 0 .3-.1.4-.2.1-.1.1-.3 0-.5-.1-.3-.2-.6-.2-.8l-.8-2.4h-3.8zm17.8-8.3-.1 2.7h-1.1c0-.3 0-.6-.1-.8 0-.2-.1-.4-.2-.5-.1-.1-.3-.2-.4-.2-.3-.1-.5-.1-.8-.1h-2.1v9.5c0 .4 0 .7.1.9 0 .2.1.3.2.5.1.1.3.2.5.2s.5.1.9.1v.8H507.7v-.8c.4 0 .6 0 .9-.1.2 0 .4-.1.5-.2.1-.1.2-.3.2-.5 0-.3.1-.6.1-.9v-9.5h-1.8c-.3 0-.6 0-.8.1-.2 0-.4.1-.5.2-.1.1-.3.3-.3.5-.1.3-.2.6-.2.9h-1.1l.2-2.7c.8 0 1.6.1 2.6.1h6c.9-.1 1.7-.1 2.5-.2" class="st5"/><path d="M517 90.8v-9c0-.2-.1-.3-.2-.4-.1-.1-.3-.2-.5-.2h-.9v-.8h5.2v.8h-.9c-.2 0-.3.1-.5.2-.1.1-.2.3-.2.4v9c0 .4 0 .6.1.9 0 .2.1.4.2.5.1.1.3.2.5.2s.5.1.8.1v.8h-5.1v-.8c.4 0 .6 0 .9-.1.2 0 .4-.1.5-.2.1-.1.2-.3.2-.5-.1-.3-.1-.6-.1-.9m14.5-3.6c0-1-.2-1.9-.5-2.8-.2-.5-.4-.9-.6-1.3-.2-.4-.5-.8-.9-1.1-.3-.3-.7-.6-1.1-.8-.4-.2-.9-.3-1.4-.3-.6 0-1.2.1-1.7.4-.5.3-1 .6-1.3 1.1-.4.5-.7 1.1-.9 1.7-.2.7-.3 1.5-.3 2.2 0 1.5.4 2.9 1.2 4.1.4.6.9 1.1 1.4 1.5.6.4 1.3.6 2 .6s1.3-.1 1.8-.4c.5-.3 1-.6 1.3-1.1.4-.5.6-1 .8-1.7.1-.6.2-1.3.2-2.1m2.1-.5c0 .8-.2 1.7-.5 2.5s-.8 1.5-1.3 2.2c-.6.6-1.3 1.2-2.1 1.5-.8.4-1.8.6-2.7.6-.9 0-1.7-.2-2.5-.6-1.6-.7-2.8-2-3.4-3.6-.3-.8-.5-1.7-.5-2.5s.2-1.7.5-2.5.8-1.5 1.3-2.2c.6-.6 1.3-1.2 2.1-1.5.8-.4 1.8-.6 2.7-.6.9 0 1.7.2 2.5.5 1.6.7 2.8 2 3.4 3.6.3.8.5 1.7.5 2.6m12.9-4.1v10.7h-1.1l-8.3-10.2v8.6c0 .2.1.3.2.5.1.1.3.2.5.2h.9v.8H533.9v-.8h1c.2 0 .4-.1.6-.2.1-.1.2-.3.3-.5 0-.2.1-.5.1-.9v-8.1c0-.3 0-.5-.1-.8-.1-.2-.2-.4-.4-.5-.2-.1-.4-.2-.7-.2-.3-.1-.7-.1-1.1-.1v-.8h3.1l8.3 10.1v-8.6c0-.2-.1-.3-.2-.4-.1-.1-.3-.2-.5-.2-.3 0-.6-.1-.9-.1v-.8h4.7v.8h-.9c-.2 0-.4.1-.5.2-.1.1-.2.3-.2.5v.8" class="st5"/></svg>