<svg xmlns="http://www.w3.org/2000/svg" xml:space="preserve" width="1108.0032" height="200" viewBox="0 0 1108.0032 200"><path d="M0 0c0 .447-.117.792-.351 1.037-.233.244-.552.366-.956.366-.601 0-1.016-.247-1.244-.741v.693h-.956v-4.042h.956v2.169c0 .361.085.639.255.833.17.194.38.291.63.291.218 0 .391-.068.518-.203.127-.136.191-.337.191-.602v-2.488H0Zm-6.979.263c.162.25.395.375.697.375.33 0 .572-.124.726-.371.154-.247.231-.564.231-.953 0-.377-.08-.688-.239-.932-.16-.245-.396-.367-.709-.367a.79.79 0 0 0-.702.375c-.165.25-.247.561-.247.932 0 .378.081.691.243.941m2.14.57c-.34.391-.821.586-1.443.586-.584 0-1.054-.201-1.41-.602-.357-.401-.535-.91-.535-1.526 0-.596.172-1.084.515-1.467.342-.383.819-.574 1.43-.574.617 0 1.096.196 1.439.59.343.393.514.895.514 1.507 0 .6-.17 1.095-.51 1.486m-4.32 2.141a.556.556 0 0 1-.407.167.558.558 0 0 1-.407-.167.556.556 0 0 1-.167-.407.566.566 0 0 1 .574-.582.566.566 0 0 1 .574.582c0 .16-.056.295-.167.407m.072-1.619h-.957v-4.042h.957zm-1.786-3.125a1 1 0 0 0-.558-.167.515.515 0 0 0-.375.132c-.09.087-.135.216-.135.386V.638h1.004v.717h-1.004v.973h-.957v-.973h-.606V.638h.606v-2.041c0-.882.436-1.323 1.307-1.323.293 0 .532.045.718.135zm-4.169-.917h.948v2.583c0 1.021-.547 1.531-1.642 1.531-.569 0-1.004-.093-1.307-.279V.263c.361.239.757.359 1.188.359.281 0 .48-.059.598-.175.116-.117.175-.287.175-.51v-.248h-.59c-.542 0-.956-.109-1.244-.327-.287-.217-.43-.518-.43-.901 0-.339.113-.621.339-.844.225-.223.53-.335.912-.335.516 0 .866.173 1.053.518zm-1.308 1.188c0 .16.067.291.2.395.132.104.324.155.573.155h.495v-.382a.676.676 0 0 0-.18-.49c-.119-.125-.285-.188-.498-.188-.393 0-.59.17-.59.51m-1.618-.183a1.663 1.663 0 0 0-.917-.271c-.377 0-.676.117-.896.351-.221.234-.337.542-.347.924.005.388.122.699.351.933.228.234.528.351.901.351.339 0 .642-.085.908-.255v.845c-.276.149-.611.223-1.004.223-.659 0-1.179-.202-1.559-.606-.38-.404-.573-.9-.578-1.491 0-.6.193-1.097.578-1.49.385-.394.889-.59 1.511-.59.419 0 .77.082 1.052.247zm-3.962 3.037h-.964V-.813c0-.377-.079-.659-.235-.845-.157-.186-.374-.279-.65-.279-.218 0-.389.066-.514.199s-.187.327-.187.582v2.511h-.957v-2.734c0-.431.114-.763.343-.996.228-.234.547-.351.956-.351.617 0 1.031.234 1.244.701v-.662h.964zm-4.504 1.595h-.956V.733c-.282.452-.686.678-1.212.678-.51 0-.929-.187-1.255-.562-.327-.374-.491-.881-.491-1.518 0-.574.156-1.063.467-1.467.311-.404.732-.606 1.263-.606.542 0 .951.228 1.228.685v-.63h.956zm-2.65-2.691a.873.873 0 0 0 .697.339.947.947 0 0 0 .694-.307c.202-.205.303-.512.303-.92 0-.42-.096-.741-.287-.961a.91.91 0 0 0-.718-.331.859.859 0 0 0-.693.343c-.186.228-.279.526-.279.892 0 .404.094.719.283.945m-2.013-2.124h-2.192v1.459h1.921v.813h-1.921v1.459h2.16v.821h-3.173v-5.374h3.205zm-5.803 3.22h-.806v.231c0 .436.194.654.582.654.128 0 .261-.027.399-.079v.805a1.75 1.75 0 0 1-.526.072c-.441 0-.787-.128-1.036-.383-.25-.256-.375-.609-.375-1.06v-.24h-.59V.638h.59v-3.325h.956V.638h.806zM-42.444.263c.162.25.394.375.697.375.33 0 .571-.124.726-.371.153-.247.23-.564.23-.953 0-.377-.079-.688-.239-.932-.159-.245-.396-.367-.709-.367a.79.79 0 0 0-.701.375c-.165.25-.248.561-.248.932 0 .378.081.691.244.941m2.14.57c-.341.391-.821.586-1.443.586-.585 0-1.055-.201-1.411-.602-.356-.401-.534-.91-.534-1.526 0-.596.171-1.084.514-1.467.343-.383.82-.574 1.431-.574.617 0 1.096.196 1.439.59.343.393.514.895.514 1.507 0 .6-.17 1.095-.51 1.486m-7.091-.422c.13-.157.201-.366.211-.626v-.119h-1.697c.047.318.155.562.322.729a.815.815 0 0 0 .594.251c.25 0 .44-.079.57-.235m.865-2.045c-.292-.213-.651-.319-1.076-.319-.33 0-.604.077-.825.231a1.088 1.088 0 0 0-.435.67h2.535c.038.234.056.425.056.574 0 .611-.154 1.076-.462 1.395-.308.319-.725.478-1.252.478-.526 0-.964-.183-1.315-.55-.351-.366-.526-.871-.526-1.514 0-.606.186-1.101.558-1.483.372-.383.879-.574 1.522-.574.532 0 .938.087 1.22.263zm-3.906-.048a1.663 1.663 0 0 0-.917-.271c-.377 0-.676.117-.897.351-.22.234-.335.542-.346.924.005.388.122.699.35.933.229.234.529.351.901.351.34 0 .643-.085.909-.255v.845c-.276.149-.611.223-1.004.223-.659 0-1.179-.202-1.559-.606-.38-.404-.573-.9-.578-1.491 0-.6.193-1.097.578-1.49.385-.394.889-.59 1.511-.59.42 0 .77.082 1.052.247zm-4.073 4.656a.556.556 0 0 1-.407.167.554.554 0 0 1-.406-.167.553.553 0 0 1-.168-.407c0-.165.056-.303.168-.415a.554.554 0 0 1 .406-.167.566.566 0 0 1 .574.582c0 .16-.056.295-.167.407m.071-1.619h-.957v-4.042h.957zm-1.634 0h-.805v.231c0 .436.194.654.582.654.128 0 .26-.027.399-.079v.805a1.755 1.755 0 0 1-.526.072c-.442 0-.787-.128-1.037-.383-.25-.256-.374-.609-.374-1.06v-.24h-.59V.638h.59v-3.325h.956V.638h.805zm-2.71 0h-.805v.231c0 .436.193.654.582.654.127 0 .26-.027.398-.079v.805a1.746 1.746 0 0 1-.526.072c-.441 0-.786-.128-1.036-.383-.25-.256-.375-.609-.375-1.06v-.24h-.59V.638h.59v-3.325h.957V.638h.805zm-6.545.008c.261.33.617.494 1.068.494.457 0 .816-.164 1.076-.494.261-.329.391-.779.391-1.347 0-.569-.13-1.016-.391-1.343-.26-.327-.616-.49-1.067-.49-.447 0-.803.164-1.069.494-.265.329-.398.776-.398 1.339 0 .568.13 1.018.39 1.347m2.926.666c-.457.502-1.077.753-1.858.753-.77 0-1.386-.252-1.845-.757-.46-.505-.689-1.174-.689-2.009 0-.829.23-1.496.693-2.001.462-.505 1.079-.757 1.85-.757.77 0 1.385.252 1.845.757.46.505.689 1.172.689 2.001 0 .839-.228 1.511-.685 2.013M-69.536 0c0 .447-.117.792-.35 1.037-.234.244-.553.366-.957.366-.601 0-1.015-.247-1.243-.741v.693h-.957v-4.042h.957v2.169c0 .361.085.639.254.833.17.194.38.291.63.291.218 0 .391-.068.518-.203.128-.136.192-.337.192-.602v-2.488h.956zm-5.444-2.687h.948v2.583c0 1.021-.547 1.531-1.642 1.531-.569 0-1.004-.093-1.307-.279V.263c.361.239.757.359 1.188.359.281 0 .48-.059.598-.175.116-.117.175-.287.175-.51v-.248h-.59c-.542 0-.957-.109-1.244-.327-.287-.217-.43-.518-.43-.901 0-.339.113-.621.339-.844.226-.223.53-.335.912-.335.516 0 .866.173 1.053.518zm-1.308 1.188c0 .16.067.291.2.395.132.104.324.155.574.155h.494v-.382a.68.68 0 0 0-.179-.49c-.12-.125-.286-.188-.499-.188-.393 0-.59.17-.59.51m-1.586-.271a1 1 0 0 0-.558-.167.517.517 0 0 0-.375.132c-.09.087-.135.216-.135.386V.638h1.004v.717h-1.004v.973h-.957v-.973h-.606V.638h.606v-2.041c0-.882.436-1.323 1.308-1.323.292 0 .531.045.717.135zm-3.38 4.744a.555.555 0 0 1-.407.167.554.554 0 0 1-.406-.167.552.552 0 0 1-.167-.407c0-.165.055-.303.167-.415a.554.554 0 0 1 .406-.167c.16 0 .296.056.407.167.112.112.168.25.168.415 0 .16-.056.295-.168.407m.072-1.619h-.957v-4.042h.957zm-2.073 1.595h-.957v-5.636h.957zM-87.723.263c.162.25.395.375.698.375.329 0 .571-.124.725-.371.154-.247.231-.564.231-.953 0-.377-.079-.688-.239-.932-.159-.245-.396-.367-.709-.367a.793.793 0 0 0-.702.375c-.165.25-.247.561-.247.932 0 .378.081.691.243.941m2.14.57c-.339.391-.82.586-1.442.586-.585 0-1.055-.201-1.411-.602-.356-.401-.534-.91-.534-1.526 0-.596.171-1.084.514-1.467.343-.383.82-.574 1.431-.574.616 0 1.096.196 1.439.59.342.393.514.895.514 1.507 0 .6-.17 1.095-.511 1.486m-5.93-.235c.276 0 .505-.11.685-.331.181-.221.271-.53.271-.929 0-.398-.09-.708-.271-.928a.862.862 0 0 0-.701-.331.912.912 0 0 0-.71.335c-.197.223-.295.539-.295.948 0 .409.101.718.304.925.201.208.44.311.717.311m-1.021-2.679c.277-.44.686-.661 1.228-.661.532 0 .952.198 1.264.594.311.396.466.897.466 1.502 0 .617-.155 1.114-.466 1.491-.312.377-.73.566-1.256.566-.537 0-.949-.226-1.236-.678v.622h-.956v-5.564h.956zM-96.962.263c.162.25.395.375.698.375.329 0 .571-.124.725-.371.154-.247.231-.564.231-.953 0-.377-.079-.688-.239-.932-.159-.245-.396-.367-.709-.367a.793.793 0 0 0-.702.375c-.165.25-.247.561-.247.932 0 .378.081.691.243.941m2.141.57c-.341.391-.822.586-1.443.586-.585 0-1.055-.201-1.411-.602-.356-.401-.534-.91-.534-1.526 0-.596.171-1.084.514-1.467.342-.383.82-.574 1.431-.574.616 0 1.096.196 1.439.59.343.393.514.895.514 1.507 0 .6-.17 1.095-.51 1.486m-5.031-1.431c0 .319.083.585.248.797a.77.77 0 0 0 .637.319.996.996 0 0 0 .407-.08v.925a1.238 1.238 0 0 1-.271.024c-.494 0-.835-.25-1.021-.749v.717h-.956l-.008-4.042h.964zm-1.745-1.172a1.003 1.003 0 0 0-.558-.167.517.517 0 0 0-.375.132c-.09.087-.136.216-.136.386V.638h1.005v.717h-1.005v.973h-.956v-.973h-.606V.638h.606v-2.041c0-.882.435-1.323 1.308-1.323.292 0 .531.045.717.135zm-4.229 2.181c.13-.157.201-.366.211-.626v-.119h-1.698c.048.318.156.562.323.729a.812.812 0 0 0 .594.251c.25 0 .439-.079.57-.235m.865-2.045c-.292-.213-.651-.319-1.076-.319-.33 0-.605.077-.825.231a1.084 1.084 0 0 0-.435.67h2.535c.037.234.056.425.056.574 0 .611-.154 1.076-.462 1.395-.309.319-.726.478-1.252.478s-.965-.183-1.315-.55c-.351-.366-.526-.871-.526-1.514 0-.606.185-1.101.557-1.483.372-.383.88-.574 1.523-.574.532 0 .938.087 1.22.263zm-8.992 1.044c.069.978.103 1.597.103 1.858l.63-1.858.734-2.016h.685l.75 2.016c.265.707.494 1.334.685 1.882l.143-1.882.192-2.097h1.004l-.526 5.374h-1.148l-.749-1.954a26.71 26.71 0 0 1-.686-1.961l-.072.248c-.047.159-.127.402-.239.729-.111.327-.231.655-.358.984l-.734 1.954h-1.148l-.43-5.374h1.004zm-4.026.59c0 .447-.117.792-.351 1.037-.233.244-.552.366-.956.366-.601 0-1.015-.247-1.244-.741v.693h-.956v-4.042h.956v2.169c0 .361.085.639.256.833.17.194.379.291.629.291a.682.682 0 0 0 .519-.203c.127-.136.19-.337.19-.602v-2.488h.957zm-5.444-2.687h.948v2.583c0 1.021-.547 1.531-1.642 1.531-.569 0-1.004-.093-1.307-.279V.263c.361.239.757.359 1.188.359.281 0 .481-.059.597-.175.118-.117.176-.287.176-.51v-.248h-.59c-.542 0-.957-.109-1.244-.327-.286-.217-.43-.518-.43-.901 0-.339.113-.621.339-.844.225-.223.53-.335.912-.335.516 0 .867.173 1.053.518zm-1.307 1.188c0 .16.066.291.199.395.133.104.324.155.573.155h.495v-.382a.676.676 0 0 0-.18-.49c-.119-.125-.285-.188-.498-.188-.393 0-.589.17-.589.51m-1.81.638c-.165.17-.388.324-.67.463a3.846 3.846 0 0 1-.175.079 4.357 4.357 0 0 0-.176.08l-.151.076a.763.763 0 0 0-.235.175.284.284 0 0 0-.072.108.358.358 0 0 0-.02.119c0 .112.047.203.14.275a.617.617 0 0 0 .386.108c.399 0 .731-.08.997-.239v.845c-.271.117-.611.175-1.021.175-.425 0-.778-.106-1.06-.319-.281-.212-.423-.505-.423-.876 0-.5.296-.883.886-1.148.01-.006.024-.011.039-.017a.162.162 0 0 0 .036-.015.484.484 0 0 0 .729-.427.36.36 0 0 0 .049-.187.315.315 0 0 0-.148-.275c-.098-.067-.235-.1-.41-.1-.415 0-.801.12-1.156.359v-.877c.308-.165.712-.247 1.211-.247.452 0 .813.106 1.084.319.271.212.407.507.407.885 0 .271-.082.491-.247.661m-3.468 3.811h-.957v-5.636h.957zm-2.04-.263h-1.005V-.629c0-.803-.366-1.204-1.1-1.204-.324 0-.587.091-.789.275-.202.183-.303.479-.303.889v3.356h-1.005V-.678c0-.669.19-1.183.57-1.542.38-.359.889-.538 1.527-.538.654 0 1.168.182 1.543.546.374.364.562.894.562 1.59z" style="fill:#444141;fill-opacity:1;fill-rule:nonzero;stroke:none" transform="matrix(6.03187 0 0 -6.03187 1108.003 170.802)"/><path d="M0 0c-.418-.387-.971-.581-1.659-.581-.689 0-1.244.194-1.669.581a1.88 1.88 0 0 0-.635 1.447c0 .59.212 1.075.635 1.456.425.381.98.572 1.669.572.688 0 1.241-.191 1.659-.572.417-.381.627-.866.627-1.456C.627.869.417.387 0 0m2.157 4.341C1.21 5.14-.062 5.54-1.659 5.54c-1.598 0-2.87-.4-3.816-1.199-.91-.749-1.364-1.714-1.364-2.894 0-1.179.454-2.144 1.364-2.894.946-.786 2.218-1.18 3.816-1.18 1.597 0 2.869.394 3.816 1.18.909.75 1.364 1.715 1.364 2.894 0 1.18-.455 2.145-1.364 2.894m-7.171 7.282h3.447v1.899H-5.07v1.991h-2.968v-1.991h-3.484v-1.899h3.447c-.159-2.077-1.45-3.57-3.871-4.479l1.106-1.789a8.217 8.217 0 0 1 2.71 1.429c.836.657 1.395 1.367 1.678 2.129.369-.688.937-1.306 1.705-1.852a7.777 7.777 0 0 1 2.535-1.189l.995 1.714c-2.372.799-3.637 2.144-3.797 4.037m8.609 3.503H.627v-4.333h-3.079V8.95H.627v-3.3h2.968Zm-26.104-9.623h2.784V3.844h-2.784zm3.014 5.152c-.4-.362-.937-.544-1.613-.544-.676 0-1.214.182-1.613.544-.4.363-.599.827-.599 1.392s.199 1.03.599 1.392c.399.362.937.544 1.613.544.676 0 1.213-.182 1.613-.544.399-.362.599-.827.599-1.392s-.2-1.029-.599-1.392m6.812-3.327h-16.85V5.503h4.13V3.844h-2.028V2.019h9.014c.394 0 .59-.197.59-.59v-3.54h2.692l.313 4.627c.062.885-.35 1.328-1.235 1.328h-.755v1.659h4.129zm-4.628 7.447c-.909.75-2.175 1.125-3.797 1.125-1.622 0-2.888-.369-3.798-1.106-.86-.7-1.29-1.616-1.29-2.747 0-1.13.43-2.046 1.29-2.747.91-.737 2.176-1.106 3.798-1.106 1.622 0 2.888.369 3.797 1.106.861.701 1.291 1.617 1.291 2.747 0 1.131-.43 2.04-1.291 2.728M-30.196 3.143h-6.711v5.752h-2.691V3.143h-1.493v5.752h-2.692V3.143h-3.263V1.208h16.85zm-3.356 11.596h-11.411v-1.936h9.015c.381 0 .572-.221.572-.663V5.484h2.654l.534 7.798c.074.971-.38 1.457-1.364 1.457m-23.836-2.526v2.692h-3.005v-2.692c0-1.991-.295-3.626-.885-4.903-.651-1.401-1.757-2.637-3.318-3.706l1.42-1.659c.946.516 1.852 1.254 2.719 2.212.866.959 1.41 1.837 1.631 2.636.258-.774.854-1.653 1.788-2.636.934-.983 1.795-1.653 2.581-2.009l1.346 1.714c-2.851 1.868-4.277 4.652-4.277 8.351m8.443 2.913h-2.968V-2.111h2.968zm-26.251-6.25c-.393-.455-.928-.682-1.604-.682-.663 0-1.192.227-1.585.682-.394.455-.59 1.039-.59 1.752 0 .725.196 1.315.59 1.769.393.455.922.683 1.585.683.676 0 1.211-.228 1.604-.683.393-.454.59-1.044.59-1.769 0-.713-.197-1.297-.59-1.752m3.263.664c.074.344.111.707.111 1.088 0 .405-.044.786-.13 1.143h2.526V9.54Zm4.35-4.996h-11.023V2.608h8.646c.368 0 .553-.196.553-.589v-4.13h2.71l.313 5.328c.049.885-.35 1.327-1.199 1.327m1.125 10.582h-2.968v-1.475h-3.466c-.921 1.057-2.224 1.585-3.908 1.585-1.474 0-2.67-.421-3.585-1.262-.916-.842-1.374-1.957-1.374-3.346s.458-2.504 1.374-3.346c.915-.842 2.111-1.263 3.585-1.263 1.733 0 3.054.547 3.964 1.641h3.41V5.337h2.968zM-88.34-.193c-.406-.345-.959-.516-1.659-.516-.701 0-1.257.171-1.668.516-.413.344-.618.804-.618 1.382 0 .59.205 1.057.618 1.401.411.344.967.516 1.668.516.7 0 1.253-.172 1.659-.516.405-.344.608-.811.608-1.401 0-.578-.203-1.038-.608-1.382m2.138 4.267c-.909.731-2.175 1.097-3.797 1.097-1.623 0-2.901-.375-3.834-1.125-.886-.713-1.328-1.665-1.328-2.857 0-1.18.442-2.132 1.328-2.857.933-.738 2.211-1.106 3.834-1.106 1.622 0 2.888.365 3.797 1.096.91.732 1.365 1.687 1.365 2.867 0 1.192-.455 2.154-1.365 2.885m-4.534 10.886h-7.854v-1.862h5.623c.381 0 .571-.221.571-.663V8.987h2.636l.351 4.554c.074.946-.369 1.419-1.327 1.419m8.59-3.521h-2.636v3.687h-2.968V9.374c0-.553-.209-.946-.627-1.18-.32-.184-.86-.319-1.622-.405-.701-.074-2.126-.111-4.277-.111v3.171h-2.747V7.678h-2.507V5.816h4.148c2.667 0 4.393.056 5.18.166 1.192.185 2.01.492 2.452.922V5.318h2.968v4.203h2.636zM-101.761.12h-8.553c-.357 0-.535.154-.535.461v3.595h-2.968V-.562c0-.467.108-.796.322-.986.216-.191.569-.286 1.06-.286h10.674zm-8.591 13.421v1.364h-3.004v-1.402c0-1.683-.295-3.047-.885-4.092-.615-1.081-1.641-1.979-3.079-2.691l1.198-1.715a9.147 9.147 0 0 1 2.701 1.779c.817.768 1.355 1.521 1.613 2.258.283-.712.849-1.453 1.696-2.221.848-.768 1.684-1.294 2.508-1.576l1.143 1.659c-2.594 1.29-3.891 3.503-3.891 6.637m10.767-2.342h-2.858v3.927h-2.968V3.291h2.968v5.973h2.858zm-24.989-.23c-.399-.326-.937-.489-1.613-.489-.676 0-1.214.163-1.613.489-.399.325-.599.753-.599 1.281 0 .516.2.937.599 1.263.399.325.937.488 1.613.488.676 0 1.214-.163 1.613-.488.399-.326.599-.747.599-1.263 0-.528-.2-.956-.599-1.281m6.812-2.977h-16.85V6.185h6.95V4.876h-4.664V3.088h9.015c.221 0 .332-.111.332-.332v-.608h-9.347V-.857c0-1.008.572-1.512 1.715-1.512h10.895v1.807h-9.273c-.234 0-.35.11-.35.332v.682h9.107l.239 3.41c.037.676-.301 1.014-1.014 1.014h-3.705v1.309h6.95zm-4.591 6.876c-.897.688-2.175 1.032-3.834 1.032-1.659 0-2.938-.344-3.834-1.032-.836-.652-1.254-1.524-1.254-2.618 0-1.106.418-1.985 1.254-2.636.896-.689 2.175-1.032 3.834-1.032 1.659 0 2.937.343 3.834 1.032.836.651 1.254 1.53 1.254 2.636 0 1.094-.418 1.966-1.254 2.618" style="fill:#444141;fill-opacity:1;fill-rule:nonzero;stroke:none" transform="matrix(6.03187 0 0 -6.03187 1086.22 115.219)"/><path d="M0 0a4.197 4.197 0 1 0-8.394-.002A4.197 4.197 0 0 0 0 0" style="fill:#d9058d;fill-opacity:1;fill-rule:nonzero;stroke:none" transform="matrix(6.03187 0 0 -6.03187 136.97 25.316)"/><path d="M0 0c0 .868-.869 1.468-1.68 1.158-3.072-1.17-7.681-2.701-11.411-2.983-6.183-.467-8.553.706-8.909 2.137 0 0-6.962-.948-6.697-4.285.265-3.338 10.05-3.564 14.584-3.146 4.812.443 9.419 1.426 13.325 2.964.475.187.788.644.788 1.154Z" style="fill:#2056ae;fill-opacity:1;fill-rule:nonzero;stroke:none" transform="matrix(6.03187 0 0 -6.03187 223.89 156.117)"/><path d="M0 0c-.265 3.338-10.049 3.563-14.583 3.146-4.783-.441-9.365-1.415-13.256-2.937a1.24 1.24 0 0 1-.711-1.592l.989-2.633a1.238 1.238 0 0 1 1.584-.728c3.012 1.097 7.042 2.343 10.371 2.595 6.183.468 8.553-.706 8.909-2.136 0 0 6.962.947 6.697 4.285" style="fill:#1aae48;fill-opacity:1;fill-rule:nonzero;stroke:none" transform="matrix(6.03187 0 0 -6.03187 172.692 127.955)"/><path d="M0 0c-3.864 0-7.423.587-10.258 1.573a1.24 1.24 0 0 1-1.619-.911l-.66-3.082a1.24 1.24 0 0 1 .872-1.453C-8.361-4.821-4.587-5.359-.58-5.359c6.204 0 11.849 1.29 16.059 3.397.584.293.838.99.582 1.592l-1.127 2.653a1.242 1.242 0 0 1-1.76.588C10.108 1.123 5.347 0 0 0" style="fill:#f79210;fill-opacity:1;fill-rule:nonzero;stroke:none" transform="matrix(6.03187 0 0 -6.03187 101.147 67.43)"/></svg>