<svg xmlns="http://www.w3.org/2000/svg" xml:space="preserve" width="981.43011" height="177.25369" viewBox="0 0 981.4301 177.25369"><path d="M86.114 175.52a3.793 3.793 0 0 1-4.581-3.709V56.999h79.23a6.636 6.636 0 0 1 6.637 6.636v94.607z" style="fill:#003063;fill-opacity:1;fill-rule:nonzero;stroke:none" transform="matrix(1.33333 0 0 -1.33333 -70.545 234.139)"/><path d="M52.908 133.907V56.999h107.856a6.636 6.636 0 0 1 6.635 6.636v94.608z" style="fill:#eb5d48;fill-opacity:1;fill-rule:nonzero;stroke:none" transform="matrix(1.33333 0 0 -1.33333 -70.545 234.139)"/><path d="M52.908 133.907V42.664h72.08a6.636 6.636 0 0 1 6.636 6.636v67.876z" style="fill:#00aca9;fill-opacity:1;fill-rule:nonzero;stroke:none" transform="matrix(1.33333 0 0 -1.33333 -70.545 234.139)"/><path d="M67.227 103.486V42.664h57.759a6.637 6.637 0 0 1 6.637 6.636v67.874z" style="fill:#003063;fill-opacity:1;fill-rule:nonzero;stroke:none" transform="matrix(1.33333 0 0 -1.33333 -70.545 234.139)"/><path d="m110.364 70.07-4.413 6.63a17.617 17.617 0 0 0-2.95 9.76v5.557a4.74 4.74 0 0 1-3.752 4.636l-32.022 6.831v-60.82H103v9.102a.335.335 0 0 1-.41.326 20.461 20.461 0 0 0-4.334-.468c-2.601 0-5.242.498-7.79 1.55-.662.272-1.077 1.046-.837 1.72a1.338 1.338 0 0 0 1.777.786 17.687 17.687 0 0 1 11.34-.81.342.342 0 0 1 .254.33v3.941a2.66 2.66 0 0 0 2.66 2.66h.274c4.247 0 6.782 4.732 4.429 8.268" style="fill:#ffcd1d;fill-opacity:1;fill-rule:nonzero;stroke:none" transform="matrix(1.33333 0 0 -1.33333 -70.545 234.139)"/><path d="M204.726 63.479c0-1.756-.92-2.61-2.81-2.61H198.9c-1.891 0-2.811.854-2.811 2.61v4.223h-4.655v-4.377c0-1.943.613-3.485 1.822-4.583 1.202-1.093 2.9-1.647 5.049-1.647h4.246c2.12 0 3.805.554 5.007 1.646 1.209 1.099 1.822 2.64 1.822 4.584v19.084h-4.655zM217.836 60.87v7.187h9.469v3.775h-9.47v6.802h10.87v3.775h-15.482V57.094h15.483v3.775zM432.804 60.87v7.187h9.469v3.775h-9.47v6.802h10.87v3.775h-15.482V57.094h15.483v3.775zM245.779 76.024V63.479c0-1.756-.933-2.61-2.853-2.61h-3.694c-1.891 0-2.81.854-2.81 2.61v12.545c0 1.756.919 2.61 2.81 2.61h3.694c1.92 0 2.853-.854 2.853-2.61m-2.216 6.385h-4.925c-2.15 0-3.84-.548-5.028-1.628-1.195-1.086-1.801-2.635-1.801-4.602V63.324c0-1.941.605-3.483 1.8-4.582 1.188-1.093 2.879-1.648 5.029-1.648h4.925c2.148 0 3.847.554 5.05 1.647 1.208 1.099 1.82 2.641 1.82 4.583v12.855c0 1.968-.612 3.517-1.821 4.603-1.203 1.08-2.901 1.627-5.05 1.627M268.5 82.409V65.545L258.674 81.6a1.69 1.69 0 0 1-1.44.808h-3.213V57.094h4.57V73.96l9.855-16.06c.308-.5.853-.806 1.441-.806h3.183v25.315zM290.56 63.324c0-1.704-.961-2.532-2.937-2.532h-6.165v7.458h5.995c2.09 0 3.107-.829 3.107-2.533zm-.382 12.854v-1.776c0-1.73-.975-2.57-2.98-2.57h-5.74v6.88h5.825c1.948 0 2.895-.83 2.895-2.534m3.758-7.278a4.523 4.523 0 0 1-1.982 1.201c1.855.778 2.794 2.21 2.794 4.263v1.891c0 1.943-.614 3.473-1.824 4.547-1.203 1.066-2.9 1.606-5.047 1.606h-11.032V57.094h11.414c2.119 0 3.803.54 5.005 1.606 1.21 1.073 1.824 2.603 1.824 4.547v2.47c0 1.321-.388 2.392-1.152 3.183M312.178 63.479c0-1.756-.933-2.61-2.853-2.61h-3.482c-1.891 0-2.81.854-2.81 2.61v18.93h-4.612V63.325c0-1.943.613-3.485 1.82-4.583 1.203-1.093 2.887-1.647 5.008-1.647h4.713c2.12 0 3.81.553 5.027 1.645 1.224 1.1 1.844 2.642 1.844 4.585v19.084h-4.655zM367.894 68.14c-.53.898-1.236 1.58-2.095 2.024-.834.43-1.765.781-2.769 1.042a25.05 25.05 0 0 1-2.98.585c-.968.127-1.868.282-2.675.46-1.728.386-2.568 1.077-2.568 2.113v1.197c0 1.134.24 1.938.71 2.388.474.454 1.295.685 2.441.685h2.675c1.147 0 1.97-.219 2.445-.65.467-.426.705-1.163.705-2.192v-1.405h4.655v1.753c0 1.941-.62 3.49-1.843 4.603-1.217 1.105-2.923 1.666-5.07 1.666h-4.502c-2.119 0-3.81-.56-5.027-1.666-1.223-1.113-1.844-2.66-1.844-4.603v-1.62c0-1.49.367-2.735 1.09-3.7.721-.965 1.627-1.63 2.69-1.979a32.318 32.318 0 0 1 3.38-.895c1.22-.258 2.354-.46 3.371-.6.976-.137 1.805-.435 2.464-.886.627-.432.933-1.003.933-1.746v-.888c0-1.056-.245-1.82-.729-2.27-.487-.456-1.317-.687-2.464-.687h-2.929c-1.149 0-1.972.22-2.446.65-.467.425-.705 1.15-.705 2.153v1.598h-4.655v-1.907c0-1.943.628-3.492 1.866-4.604 1.23-1.105 2.928-1.665 5.048-1.665h4.756c2.12 0 3.811.561 5.027 1.666 1.223 1.112 1.843 2.661 1.843 4.603v1.505c0 1.274-.268 2.375-.798 3.272M387.97 78.634v3.775h-17.775v-3.775h6.54v-21.54h4.654v21.54zM425.53 78.634v3.775h-17.774v-3.775h6.539v-21.54h4.655v21.54zM394.35 66.35l3.49 11.537 3.53-11.537zm.376 16.059-7.966-25.315h4.77l1.818 5.675h8.982l1.828-5.674h4.76l-7.956 25.314zM331.308 71.19l8.602 10.632v.587h-5.038l-9.487-11.44v11.44h-4.612V57.095h4.612v7.266l3.08 3.707 7.692-10.973h4.821v.564zM547.68 60.87v7.187h9.469v3.775h-9.47v6.802h10.87v3.775h-15.482V57.094h15.483v3.775zM621.084 60.87v7.187h9.469v3.775h-9.47v6.802h10.87v3.775h-15.482V57.094h15.483v3.775zM784.411 82.409V65.545L774.585 81.6a1.69 1.69 0 0 1-1.44.808h-3.213V57.094h4.57V73.96l9.855-16.06c.308-.5.853-.806 1.441-.806h3.183v25.315zM736.774 78.634v3.775H719v-3.775h6.54v-21.54h4.654v21.54zM706.079 66.35l3.49 11.537 3.529-11.537zm.376 16.059-7.966-25.315h4.77l1.818 5.675h8.982l1.828-5.674h4.759l-7.955 25.314zM468.819 76.024V63.479c0-1.756-.933-2.61-2.853-2.61h-3.694c-1.891 0-2.81.854-2.81 2.61v12.545c0 1.756.919 2.61 2.81 2.61h3.694c1.92 0 2.853-.854 2.853-2.61m-2.216 6.385h-4.925c-2.15 0-3.84-.548-5.028-1.628-1.195-1.086-1.801-2.635-1.801-4.602V63.324c0-1.941.605-3.483 1.8-4.582 1.188-1.093 2.879-1.648 5.029-1.648h4.925c2.148 0 3.847.554 5.049 1.647 1.209 1.099 1.822 2.641 1.822 4.583v12.855c0 1.968-.613 3.517-1.822 4.603-1.203 1.08-2.902 1.627-5.05 1.627M476.921 82.409V57.094h4.613v10.153h9.468v3.775h-9.468v7.612h10.657v3.775zM494.63 82.409V57.094h4.614v10.153h9.468v3.775h-9.468v7.612H509.9v3.775zM591.105 82.409V57.094h4.613v10.153h9.468v3.775h-9.468v7.612h10.657v3.775zM513.135 57.094h4.613v25.315h-4.613zM739.806 57.094h4.613v25.315h-4.613zM538.21 80.782c-1.203 1.08-2.887 1.627-5.006 1.627h-4.925c-2.149 0-3.84-.548-5.028-1.628-1.195-1.086-1.801-2.635-1.801-4.603V63.324c0-1.942.605-3.483 1.8-4.582 1.187-1.094 2.879-1.648 5.029-1.648h4.925c2.12 0 3.804.554 5.007 1.647 1.208 1.1 1.821 2.641 1.821 4.583v2.795h-4.655v-2.64c0-1.756-.919-2.61-2.81-2.61h-3.694c-1.891 0-2.81.854-2.81 2.61v12.545c0 1.756.919 2.61 2.81 2.61h3.694c1.891 0 2.81-.854 2.81-2.61v-2.64h4.655v2.794c0 1.968-.613 3.517-1.822 4.604M582.86 76.024V63.479c0-1.756-.932-2.61-2.852-2.61h-3.694c-1.891 0-2.81.854-2.81 2.61v12.545c0 1.756.919 2.61 2.81 2.61h3.694c1.92 0 2.853-.854 2.853-2.61m-2.216 6.385h-4.925c-2.15 0-3.84-.548-5.028-1.628-1.195-1.086-1.801-2.635-1.801-4.602V63.324c0-1.941.605-3.483 1.8-4.582 1.188-1.093 2.879-1.648 5.029-1.648h4.925c2.148 0 3.847.554 5.049 1.647 1.209 1.099 1.822 2.641 1.822 4.583v12.855c0 1.968-.613 3.517-1.822 4.603-1.203 1.08-2.902 1.627-5.05 1.627M649.082 63.479c0-1.756-.919-2.61-2.81-2.61h-6.207v17.765h6.207c1.891 0 2.81-.854 2.81-2.61zm2.81 17.304c-1.216 1.079-2.907 1.626-5.026 1.626h-11.414V57.095h11.414c2.12 0 3.811.553 5.027 1.645 1.224 1.1 1.844 2.642 1.844 4.585v12.854c0 1.968-.62 3.518-1.845 4.604M670.773 63.479c0-1.756-.933-2.61-2.853-2.61h-3.482c-1.891 0-2.81.854-2.81 2.61v18.93h-4.612V63.325c0-1.943.613-3.485 1.82-4.583 1.203-1.093 2.887-1.647 5.008-1.647h4.713c2.12 0 3.81.553 5.027 1.645 1.224 1.1 1.844 2.642 1.844 4.585v19.084h-4.655zM761.958 76.024V63.479c0-1.756-.933-2.61-2.853-2.61h-3.694c-1.891 0-2.81.854-2.81 2.61v12.545c0 1.756.919 2.61 2.81 2.61h3.694c1.92 0 2.853-.854 2.853-2.61m-2.216 6.385h-4.925c-2.15 0-3.84-.548-5.028-1.628-1.195-1.086-1.801-2.635-1.801-4.602V63.324c0-1.941.605-3.483 1.8-4.582 1.188-1.093 2.879-1.648 5.029-1.648h4.925c2.148 0 3.847.554 5.049 1.647 1.209 1.099 1.822 2.641 1.822 4.583v12.855c0 1.968-.613 3.517-1.822 4.603-1.203 1.08-2.901 1.627-5.05 1.627M695.563 80.782c-1.203 1.08-2.887 1.627-5.006 1.627h-4.925c-2.15 0-3.84-.548-5.028-1.628-1.195-1.086-1.801-2.635-1.801-4.603V63.324c0-1.942.605-3.483 1.8-4.582 1.187-1.094 2.879-1.648 5.029-1.648h4.925c2.12 0 3.804.554 5.007 1.647 1.208 1.1 1.82 2.641 1.82 4.583v2.795h-4.654v-2.64c0-1.756-.92-2.61-2.81-2.61h-3.694c-1.891 0-2.81.854-2.81 2.61v12.545c0 1.756.919 2.61 2.81 2.61h3.694c1.89 0 2.81-.854 2.81-2.61v-2.64h4.655v2.794c0 1.968-.613 3.517-1.822 4.604M233.904 145.886h-10.441v-6.465h10.44V117.54h9.093v40.515h-9.092zM208.426 117.54h-9.091v-16.447a4.402 4.402 0 0 1 4.402-4.402h39.259v5.98h-34.57z" style="fill:#003063;fill-opacity:1;fill-rule:nonzero;stroke:none" transform="matrix(1.33333 0 0 -1.33333 -70.545 234.139)"/><path d="m220.424 123.854 5.24 4.92-11.635 12.927c-.984 1.135-1.385 2.173-1.385 3.58v5.756h12.306v5.634h-33.29v-5.634h12.307v-5.825c0-1.408-.402-2.445-1.39-3.584l-12.39-13.751 5.237-4.854 12.881 14.542zM265.781 145.528h25.338v-5.522h-25.338zm-6.218-11.157h37.714a2.935 2.935 0 0 1 2.935 2.935v20.748h-9.093v-6.89h-25.338v6.89h-9.095l-.057-20.74a2.934 2.934 0 0 1 2.934-2.943M250.328 123.499h23.507v-5.888h-18.806v-5.635h36.574V96.638h9.093v18.039a2.934 2.934 0 0 1-2.934 2.934h-14.835v5.888h23.507v5.635h-56.106zM311.085 122.585h56.107v5.635h-56.107zM358.31 117.47H317.17v-5.636h34.985v-15.22h9.092v17.921a2.935 2.935 0 0 1-2.935 2.934M320.312 132.715h41.21v4.944h-35.053v5.288h34.017v4.944h-34.017v4.874h35.053v5.29h-44.144v-22.406a2.934 2.934 0 0 1 2.934-2.934M395.523 133.235H381.8v9.92h13.723zm9.092 13.308h9.713v-7.986h-9.713zm0-16.009v2.735h9.713v-7.866h8.885v32.651h-8.885v-6.222h-9.713v5.601h-9.092v-8.643H381.8v8.643h-9.093v-26.899a2.934 2.934 0 0 1 2.934-2.935h26.04a2.935 2.935 0 0 1 2.934 2.935M389.336 107.287h33.877v15.125h-42.97v-5.635h34.085v-4.2h-34.085v-11.416a4.401 4.401 0 0 1 4.4-4.4h39.954v5.98h-35.261zM482.588 158.054h-9.092V96.691h9.092v31.184h6.915v6.326h-6.915zM454.034 138.608v12.428h12.099v5.635h-33.29v-5.635h12.099V138.54c0-1.616-.32-2.856-1.141-4.424l-12.726-24.013 6.813-3.792 11.657 22.758 12.009-21.64 6.554 4.174-12.93 22.574c-.834 1.46-1.144 2.661-1.144 4.432M536.725 96.691h9.092v61.363h-9.092zM515.603 139.3v7.588h12.376v5.636h-12.03v7.605h-9.438v-7.605h-12.03v-5.636h12.03v-7.657c0-1.617-.319-2.858-1.139-4.423l-12.456-23.952 6.544-3.848 11.656 22.752 12.003-21.634 6.423 4.368-12.793 22.373c-.835 1.462-1.146 2.664-1.146 4.433M586.196 121.705h17.56v5.635h-34.224v21.623h33.533v5.635H560.44v-29.959a2.934 2.934 0 0 1 2.934-2.934h13.728v-14.192h-23.576v-5.981h56.107v5.981h-23.438zM655.732 118.542h9.093v33.122a2.934 2.934 0 0 1-2.934 2.934H621.3v-5.635h34.43z" style="fill:#003063;fill-opacity:1;fill-rule:nonzero;stroke:none" transform="matrix(1.33333 0 0 -1.33333 -70.545 234.139)"/><path d="M650.096 130.26h-8.4v-22.747h-6.81v22.748h-8.401v-22.748H614.87v-5.981h56.108v5.98h-20.883zM703.18 154.01c7.58 0 13.083-2.886 13.083-6.862 0-3.376-4.494-6.793-13.084-6.793-8.544 0-13.014 3.417-13.014 6.793 0 4.505 6.547 6.862 13.014 6.862m0-19.36c12.85 0 22.176 5.257 22.176 12.498 0 7.242-9.326 12.497-22.176 12.497-13.016 0-22.107-5.139-22.107-12.497 0-7.24 9.297-12.498 22.107-12.498M698.254 124.159h10.681v-8.331h-10.681zm-22.92 0h13.827v-8.331h-7.674v-5.636h34.846V96.689h9.092v16.204a2.935 2.935 0 0 1-2.935 2.935h-4.878v8.331h13.829v5.635h-56.107zM779.837 158.054v-13.896h-10.371v-6.327h10.371v-13.673h9.092v33.896z" style="fill:#003063;fill-opacity:1;fill-rule:nonzero;stroke:none" transform="matrix(1.33333 0 0 -1.33333 -70.545 234.139)"/><path d="m766.768 124.44 5.582 5.325-11.895 12.169c-.99 1.06-1.393 2.1-1.393 3.589v2.61h12.03v5.635h-11.754v6.269H749.9v-6.27h-12.099v-5.634h12.514v-2.68c0-1.487-.404-2.527-1.397-3.593l-12.72-12.992 5.58-5.26 12.875 14.193zM767.757 100.95c-8.157 0-12.425 3.725-12.425 7.406 0 4.91 6.25 7.48 12.425 7.48 6.174 0 12.425-2.57 12.425-7.48 0-3.681-4.268-7.406-12.425-7.406m0 20.597c-12.427 0-21.105-5.424-21.105-13.19 0-7.643 8.875-13.191 21.105-13.191s21.105 5.548 21.105 13.19c0 7.767-8.678 13.19-21.105 13.19" style="fill:#003063;fill-opacity:1;fill-rule:nonzero;stroke:none" transform="matrix(1.33333 0 0 -1.33333 -70.545 234.139)"/></svg>